{
.appVersion = "3201";
.formatVersion = 3;
axes = (
{
name = Weight;
tag = wght;
}
);
customParameters = (
{
name = fsType;
value = (
);
},
{
name = "Use Typo Metrics";
value = 1;
}
);
date = "2016-08-02 10:21:29 +0000";
familyName = Oswald;
featurePrefixes = (
{
automatic = 1;
code = "languagesystem DFLT dflt;

languagesystem latn dflt;
languagesystem latn ROM;
languagesystem latn MOL;
languagesystem latn CAT;
";
name = Languagesystems;
}
);
features = (
{
automatic = 1;
code = "feature locl;
feature sups;
feature frac;
feature ordn;
";
tag = aalt;
},
{
automatic = 1;
code = "lookup ccmp_Other_1 {
	@CombiningTopAccents = [acutecomb brevecomb breveinvertedcomb caroncomb circumflexcomb dblgravecomb dieresiscomb dotaccentcomb gravecomb macroncomb ringcomb tildecomb];
	lookupflag UseMarkFilteringSet @CombiningTopAccents;
	sub i' @CombiningTopAccents by idotless;
	sub j' @CombiningTopAccents by jdotless;
} ccmp_Other_1;

lookup ccmp_latn_1 {
	sub fi by f i;
	sub fl by f l;
	sub lj by l j;
	sub Lj by L j;
	sub LJ by L J;
	sub nj by n j;
	sub Nj by N j;
	sub NJ by N J;
	sub dzcaron by d zcaron;
	sub Dzcaron by D zcaron;
	sub DZcaron by D Zcaron;
} ccmp_latn_1;

script latn;
lookup ccmp_latn_1;
";
tag = ccmp;
},
{
automatic = 1;
code = "script latn;
language ROM;
lookup locl_latn_0 {
	sub Scedilla by Scommaaccent;
	sub scedilla by scommaaccent;
	sub Tcedilla by Tcommaaccent;
	sub tcedilla by tcommaaccent;
} locl_latn_0;
language MOL;
lookup locl_latn_0;

script latn;
language CAT;
lookup locl_latn_1 {
	sub  l' periodcentered' l by ldot;
	sub  L' periodcentered' L by Ldot;
} locl_latn_1;
";
tag = locl;
},
{
automatic = 1;
code = "sub one by onesuperior;
sub two by twosuperior;
sub three by threesuperior;
sub four by foursuperior;
";
tag = sups;
},
{
automatic = 1;
code = "sub one slash four by onequarter;
sub one slash two by onehalf;
sub three slash four by threequarters;
";
tag = frac;
},
{
automatic = 1;

glyphs = (
{
glyphname = A;
lastChange = "2023-07-06 13:31:46 +0000";
layers = (
{
anchors = (
{
name = bottom;
pos = (234,0);
},
{
name = ogonek;
pos = (421,10);
},
{
name = top;
pos = (297,810);
}
);
background = {
shapes = (
{
closed = 1;
nodes = (
(65,0,l),
(132,224,l),
(342,224,l),
(360,0,l),
(415,0,l),
(329,810,l),
(267,810,l),
(11,0,l)
);
},
{
closed = 1;
nodes = (
(291,744,l),
(339,264,l),
(145,264,l)
);
}
);
};
layerId = "6D1B020D-7C4E-4885-9208-B35BA480FE8F";
shapes = (
{
closed = 1;
nodes = (
(65,0,l),
(132,224,l),
(342,224,l),
(360,0,l),
(415,0,l),
(329,810,l),
(267,810,l),
(11,0,l)
);
},
{
closed = 1;
nodes = (
(291,744,l),
(339,264,l),
(145,264,l)
);
}
);
width = 468;
},
{
anchors = (
{
name = bottom;
pos = (283,0);
},
{
name = ogonek;
pos = (509,10);
},
{
name = top;
pos = (340,810);
}
);
background = {
shapes = (
{
closed = 1;
nodes = (
(182,0,l),
(224,164,l),
(331,164,l),
(340,0,l),
(519,0,l),
(457,810,l),
(231,810,l),
(-2,0,l)
);
},
{
closed = 1;
nodes = (
(321,581,l),
(326,276,l),
(251,276,l)
);
}
);
};
layerId = "BF03A18F-065F-4249-8E16-486B9CB494A0";
shapes = (
{
closed = 1;
nodes = (
(182,0,l),
(224,164,l),
(331,164,l),
(340,0,l),
(519,0,l),
(457,810,l),
(231,810,l),
(-2,0,l)
);
},
{
closed = 1;
nodes = (
(321,581,l),
(326,276,l),
(251,276,l)
);
}
);
width = 565;
},
{
anchors = (
{
name = bottom;
pos = (245,0);
},
{
name = ogonek;
pos = (441,10);
},
{
name = top;
pos = (302,810);
}
);
background = {
shapes = (
{
closed = 1;
nodes = (
(100,0,l),
(160,206,l),
(327,206,l),
(343,0,l),
(447,0,l),
(359,810,l),
(253,810,l),
(-4,0,l)
);
},
{
closed = 1;
nodes = (
(291,656,l),
(321,284,l),
(182,284,l)
);
}
);
};
layerId = "43161617-4660-4075-B14A-1D8E25AEE542";
shapes = (
{
closed = 1;
nodes = (
(100,0,l),
(160,206,l),
(327,206,l),
(343,0,l),
(447,0,l),
(359,810,l),
(253,810,l),
(-4,0,l)
);
},
{
closed = 1;
nodes = (
(291,656,l),
(321,284,l),
(182,284,l)
);
}
);
width = 490;
}
);
unicode = 65;
},
{
glyphname = Aacute;
lastChange = "2023-07-06 13:19:01 +0000";
layers = (
{
background = {
shapes = (
{
closed = 1;
nodes = (
(65,0,l),
(132,224,l),
(342,224,l),
(360,0,l),
(415,0,l),
(329,810,l),
(267,810,l),
(11,0,l)
);
},
{
closed = 1;
nodes = (
(291,744,l),
(339,264,l),
(145,264,l)
);
},
{
closed = 1;
nodes = (
(260,879,l),
(370,1073,l),
(317,1073,l),
(232,879,l)
);
}
);
};
layerId = "6D1B020D-7C4E-4885-9208-B35BA480FE8F";
shapes = (
{
ref = A;
},
{
pos = (253,232);
ref = acutecomb;
}
);
width = 468;
},
{
background = {
shapes = (
{
closed = 1;
nodes = (
(182,0,l),
(224,164,l),
(331,164,l),
(340,0,l),
(519,0,l),
(457,810,l),
(231,810,l),
(-2,0,l)
);
},
{
closed = 1;
nodes = (
(321,581,l),
(326,276,l),
(251,276,l)
);
},
{
closed = 1;
nodes = (
(344,881,l),
(494,1084,l),
(313,1084,l),
(230,881,l)
);
}
);
};
layerId = "BF03A18F-065F-4249-8E16-486B9CB494A0";
shapes = (
{
ref = A;
},
{
pos = (235,232);
ref = acutecomb;
}
);
width = 565;
},
{
background = {
shapes = (
{
closed = 1;
nodes = (
(100,0,l),
(160,206,l),
(327,206,l),
(343,0,l),
(447,0,l),
(359,810,l),
(253,810,l),
(-4,0,l)
);
},
{
closed = 1;
nodes = (
(291,656,l),
(321,284,l),
(182,284,l)
);
},
{
closed = 1;
nodes = (
(282,877,l),
(413,1075,l),
(309,1075,l),
(229,877,l)
);
}
);
};
layerId = "43161617-4660-4075-B14A-1D8E25AEE542";
shapes = (
{
ref = A;
},
{
pos = (234,232);
ref = acutecomb;
}
);
width = 490;
}
);
unicode = 193;
userData = {
com.fontlab.hintData = {
hhints = (
{
position = 1800;
width = 394;
}
);
};
};
},
{
glyphname = Abreve;
lastChange = "2023-07-06 13:12:48 +0000";
layers = (
{
background = {
shapes = (
{
closed = 1;
nodes = (
(65,0,l),
(132,224,l),
(342,224,l),
(360,0,l),
(415,0,l),
(329,810,l),
(267,810,l),
(11,0,l)
);
},
{
closed = 1;
nodes = (
(291,744,l),
(339,264,l),
(145,264,l)
);
}
);
};
layerId = "6D1B020D-7C4E-4885-9208-B35BA480FE8F";
shapes = (
{
ref = A;
}
);
width = 468;
},
{
background = {
shapes = (
{
closed = 1;
nodes = (
(182,0,l),
(224,164,l),
(331,164,l),
(340,0,l),
(519,0,l),
(457,810,l),
(231,810,l),
(-2,0,l)
);
},
{
closed = 1;
nodes = (
(321,581,l),
(326,276,l),
(251,276,l)
);
}
);
};
layerId = "BF03A18F-065F-4249-8E16-486B9CB494A0";
shapes = (
{
ref = A;
}
);
width = 565;
},
{
background = {
shapes = (
{
closed = 1;
nodes = (
(100,0,l),
(160,206,l),
(327,206,l),
(343,0,l),
(447,0,l),
(359,810,l),
(253,810,l),
(-4,0,l)
);
},
{
closed = 1;
nodes = (
(291,656,l),
(321,284,l),
(182,284,l)
);
}
);
};
layerId = "43161617-4660-4075-B14A-1D8E25AEE542";
shapes = (
{
ref = A;
}
);
width = 490;
}
);
unicode = 258;
userData = {
com.fontlab.hintData = {
hhints = (
{
position = 1800;
width = 48;
}
);
vhints = (
{
position = 331;
width = 54;
},
{
position = 715;
width = 54;
}
);
};
};
},
{
glyphname = Acircumflex;
lastChange = "2023-07-06 13:12:48 +0000";
layers = (
{
background = {
shapes = (
{
closed = 1;
nodes = (
(65,0,l),
(132,224,l),
(342,224,l),
(360,0,l),
(415,0,l),
(329,810,l),
(267,810,l),
(11,0,l)
);
},
{
closed = 1;
nodes = (
(291,744,l),
(339,264,l),
(145,264,l)
);
}
);
};
layerId = "6D1B020D-7C4E-4885-9208-B35BA480FE8F";
shapes = (
{
ref = A;
}
);
width = 468;
},
{
background = {
shapes = (
{
closed = 1;
nodes = (
(182,0,l),
(224,164,l),
(331,164,l),
(340,0,l),
(519,0,l),
(457,810,l),
(231,810,l),
(-2,0,l)
);
},
{
closed = 1;
nodes = (
(321,581,l),
(326,276,l),
(251,276,l)
);
}
);
};
layerId = "BF03A18F-065F-4249-8E16-486B9CB494A0";
shapes = (
{
ref = A;
}
);
width = 565;
},
{
background = {
shapes = (
{
closed = 1;
nodes = (
(100,0,l),
(160,206,l),
(327,206,l),
(343,0,l),
(447,0,l),
(359,810,l),
(253,810,l),
(-4,0,l)
);
},
{
closed = 1;
nodes = (
(291,656,l),
(321,284,l),
(182,284,l)
);
}
);
};
layerId = "43161617-4660-4075-B14A-1D8E25AEE542";
shapes = (
{
ref = A;
}
);
width = 490;
}
);
unicode = 194;
userData = {
com.fontlab.hintData = {
hhints = (
{
position = 1806;
width = 405;
}
);
};
};
},
{
glyphname = Adblgrave;
lastChange = "2023-07-06 13:29:48 +0000";
layers = (
{
background = {
shapes = (
{
closed = 1;
nodes = (
(65,0,l),
(132,224,l),
(342,224,l),
(360,0,l),
(415,0,l),
(329,810,l),
(267,810,l),
(11,0,l)
);
},
{
closed = 1;
nodes = (
(291,744,l),
(339,264,l),
(145,264,l)
);
},
{
closed = 1;
nodes = (
(299,878,l),
(259,1025,l),
(200,1025,l),
(272,878,l)
);
},
{
closed = 1;
nodes = (
(396,878,l),
(369,1025,l),
(317,1025,l),
(369,878,l)
);
}
);
};
layerId = "6D1B020D-7C4E-4885-9208-B35BA480FE8F";
shapes = (
{
ref = A;
},
{
pos = (150,232);
ref = dblgravecomb;
}
);
width = 468;
},
{
background = {
shapes = (
{
closed = 1;
nodes = (
(182,0,l),
(224,164,l),
(331,164,l),
(340,0,l),
(519,0,l),
(457,810,l),
(231,810,l),
(-2,0,l)
);
},
{
closed = 1;
nodes = (
(321,581,l),
(326,276,l),
(251,276,l)
);
},
{
closed = 1;
nodes = (
(355,882,l),
(312,1097,l),
(184,1097,l),
(259,882,l)
);
},
{
closed = 1;
nodes = (
(539,882,l),
(497,1097,l),
(372,1097,l),
(444,882,l)
);
}
);
};
layerId = "BF03A18F-065F-4249-8E16-486B9CB494A0";
shapes = (
{
ref = A;
},
{
pos = (97,232);
ref = dblgravecomb;
}
);
width = 565;
},
{
background = {
shapes = (
{
closed = 1;
nodes = (
(100,0,l),
(160,206,l),
(327,206,l),
(343,0,l),
(447,0,l),
(359,810,l),
(253,810,l),
(-4,0,l)
);
},
{
closed = 1;
nodes = (
(291,656,l),
(321,284,l),
(182,284,l)
);
},
{
closed = 1;
nodes = (
(328,877,l),
(289,1046,l),
(184,1046,l),
(277,877,l)
);
},
{
closed = 1;
nodes = (
(455,877,l),
(432,1046,l),
(346,1046,l),
(403,877,l)
);
}
);
};
layerId = "43161617-4660-4075-B14A-1D8E25AEE542";
shapes = (
{
ref = A;
},
{
pos = (147,232);
ref = dblgravecomb;
}
);
width = 490;
}
);
unicode = 512;
userData = {
com.fontlab.hintData = {
hhints = (
{
position = 1800;
width = 280;
}
);
vhints = (
{
position = 368;
width = 80;
},
{
position = 566;
width = 77;
}
);
};
};
},
{
glyphname = Adieresis;
lastChange = "2023-07-06 13:12:48 +0000";
layers = (
{
background = {
shapes = (
{
closed = 1;
nodes = (
(65,0,l),
(132,224,l),
(342,224,l),
(360,0,l),
(415,0,l),
(329,810,l),
(267,810,l),
(11,0,l)
);
},
{
closed = 1;
nodes = (
(291,744,l),
(339,264,l),
(145,264,l)
);
}
);
};
layerId = "6D1B020D-7C4E-4885-9208-B35BA480FE8F";
shapes = (
{
ref = A;
}
);
width = 468;
},
{
background = {
shapes = (
{
closed = 1;
nodes = (
(182,0,l),
(224,164,l),
(331,164,l),
(340,0,l),
(519,0,l),
(457,810,l),
(231,810,l),
(-2,0,l)
);
},
{
closed = 1;
nodes = (
(321,581,l),
(326,276,l),
(251,276,l)
);
}
);
};
layerId = "BF03A18F-065F-4249-8E16-486B9CB494A0";
shapes = (
{
ref = A;
}
);
width = 565;
},
{
background = {
shapes = (
{
closed = 1;
nodes = (
(100,0,l),
(160,206,l),
(327,206,l),
(343,0,l),
(447,0,l),
(359,810,l),
(253,810,l),
(-4,0,l)
);
},
{
closed = 1;
nodes = (
(291,656,l),
(321,284,l),
(182,284,l)
);
}
);
};
layerId = "43161617-4660-4075-B14A-1D8E25AEE542";
shapes = (
{
ref = A;
}
);
width = 490;
}
);
unicode = 196;
userData = {
com.fontlab.hintData = {
hhints = (
{
position = 1800;
width = 125;
}
);
};
};
},
{
glyphname = Agrave;
lastChange = "2023-07-06 13:30:30 +0000";
layers = (
{
background = {
shapes = (
{
closed = 1;
nodes = (
(65,0,l),
(132,224,l),
(342,224,l),
(360,0,l),
(415,0,l),
(329,810,l),
(267,810,l),
(11,0,l)
);
},
{
closed = 1;
nodes = (
(291,744,l),
(339,264,l),
(145,264,l)
);
},
{
closed = 1;
nodes = (
(344,879,l),
(310,1073,l),
(257,1073,l),
(317,879,l)
);
}
);
};
layerId = "6D1B020D-7C4E-4885-9208-B35BA480FE8F";
shapes = (
{
ref = A;
},
{
pos = (205,232);
ref = gravecomb;
}
);
width = 468;
},
{
background = {
shapes = (
{
closed = 1;
nodes = (
(182,0,l),
(224,164,l),
(331,164,l),
(340,0,l),
(519,0,l),
(457,810,l),
(231,810,l),
(-2,0,l)
);
},
{
closed = 1;
nodes = (
(321,581,l),
(326,276,l),
(251,276,l)
);
},
{
closed = 1;
nodes = (
(473,881,l),
(433,1084,l),
(250,1084,l),
(359,881,l)
);
}
);
};
layerId = "BF03A18F-065F-4249-8E16-486B9CB494A0";
shapes = (
{
ref = A;
},
{
pos = (180,232);
ref = gravecomb;
}
);
width = 565;
},
{
background = {
shapes = (
{
closed = 1;
nodes = (
(100,0,l),
(160,206,l),
(327,206,l),
(343,0,l),
(447,0,l),
(359,810,l),
(253,810,l),
(-4,0,l)
);
},
{
closed = 1;
nodes = (
(291,656,l),
(321,284,l),
(182,284,l)
);
},
{
closed = 1;
nodes = (
(392,877,l),
(355,1075,l),
(251,1075,l),
(340,877,l)
);
}
);
};
layerId = "43161617-4660-4075-B14A-1D8E25AEE542";
shapes = (
{
ref = A;
},
{
pos = (188,232);
ref = gravecomb;
}
);
width = 490;
}
);
unicode = 192;
userData = {
com.fontlab.hintData = {
hhints = (
{
position = 1800;
width = 394;
}
);
};
};
},
{
glyphname = Ainvertedbreve;
lastChange = "2023-07-06 13:31:19 +0000";
layers = (
{
background = {
shapes = (
{
closed = 1;
nodes = (
(65,0,l),
(132,224,l),
(342,224,l),
(360,0,l),
(415,0,l),
(329,810,l),
(267,810,l),
(11,0,l)
);
},
{
closed = 1;
nodes = (
(291,744,l),
(339,264,l),
(145,264,l)
);
},
{
closed = 1;
nodes = (
(214,879,l),
(223,936,o),
(258,955,o),
(300,955,cs),
(342,955,o),
(372,936,o),
(368,879,c),
(405,879,l),
(409,954,o),
(370,990,o),
(303,990,cs),
(236,990,o),
(187,954,o),
(177,879,c)
);
}
);
};
layerId = "6D1B020D-7C4E-4885-9208-B35BA480FE8F";
shapes = (
{
ref = A;
},
{
pos = (125,232);
ref = breveinvertedcomb;
}
);
width = 468;
},
{
background = {
shapes = (
{
closed = 1;
nodes = (
(182,0,l),
(224,164,l),
(331,164,l),
(340,0,l),
(519,0,l),
(457,810,l),
(231,810,l),
(-2,0,l)
);
},
{
closed = 1;
nodes = (
(321,581,l),
(326,276,l),
(251,276,l)
);
},
{
closed = 1;
nodes = (
(296,882,l),
(299,916,o),
(316,932,o),
(356,932,cs),
(396,932,o),
(408,916,o),
(405,882,c),
(478,882,l),
(485,960,o),
(437,1000,o),
(362,1000,cs),
(288,1000,o),
(231,959,o),
(223,882,c)
);
}
);
};
layerId = "BF03A18F-065F-4249-8E16-486B9CB494A0";
shapes = (
{
ref = A;
},
{
pos = (189,232);
ref = breveinvertedcomb;
}
);
width = 565;
},
{
background = {
shapes = (
{
closed = 1;
nodes = (
(100,0,l),
(160,206,l),
(327,206,l),
(343,0,l),
(447,0,l),
(359,810,l),
(253,810,l),
(-4,0,l)
);
},
{
closed = 1;
nodes = (
(291,656,l),
(321,284,l),
(182,284,l)
);
},
{
closed = 1;
nodes = (
(241,878,l),
(249,940,o),
(271,965,o),
(320,965,cs),
(369,965,o),
(386,941,o),
(380,878,c),
(441,878,l),
(449,960,o),
(429,1024,o),
(326,1024,cs),
(222,1024,o),
(189,961,o),
(180,878,c)
);
}
);
};
layerId = "43161617-4660-4075-B14A-1D8E25AEE542";
shapes = (
{
ref = A;
},
{
pos = (134,232);
ref = breveinvertedcomb;
}
);
width = 490;
}
);
unicode = 514;
userData = {
com.fontlab.hintData = {
hhints = (
{
position = 1948;
width = 48;
}
);
vhints = (
{
position = 311;
width = 54;
},
{
position = 695;
width = 54;
}
);
};
};
},
{
glyphname = Amacron;
lastChange = "2023-07-06 13:31:38 +0000";
layers = (
{
background = {
shapes = (
{
closed = 1;
nodes = (
(65,0,l),
(132,224,l),
(342,224,l),
(360,0,l),
(415,0,l),
(329,810,l),
(267,810,l),
(11,0,l)
);
},
{
closed = 1;
nodes = (
(291,744,l),
(339,264,l),
(145,264,l)
);
},
{
closed = 1;
nodes = (
(375,878,l),
(379,915,l),
(208,915,l),
(205,878,l)
);
}
);
};
layerId = "6D1B020D-7C4E-4885-9208-B35BA480FE8F";
shapes = (
{
ref = A;
},
{
pos = (47,232);
ref = macroncomb;
}
);
width = 468;
},
{
background = {
shapes = (
{
closed = 1;
nodes = (
(182,0,l),
(224,164,l),
(331,164,l),
(340,0,l),
(519,0,l),
(457,810,l),
(231,810,l),
(-2,0,l)
);
},
{
closed = 1;
nodes = (
(321,581,l),
(326,276,l),
(251,276,l)
);
},
{
closed = 1;
nodes = (
(499,881,l),
(507,960,l),
(212,960,l),
(203,881,l)
);
}
);
};
layerId = "BF03A18F-065F-4249-8E16-486B9CB494A0";
shapes = (
{
ref = A;
},
{
pos = (286,232);
ref = macroncomb;
}
);
width = 565;
},
{
background = {
shapes = (
{
closed = 1;
nodes = (
(100,0,l),
(160,206,l),
(327,206,l),
(343,0,l),
(447,0,l),
(359,810,l),
(253,810,l),
(-4,0,l)
);
},
{
closed = 1;
nodes = (
(291,656,l),
(321,284,l),
(182,284,l)
);
},
{
closed = 1;
nodes = (
(406,877,l),
(413,940,l),
(221,940,l),
(215,877,l)
);
}
);
};
layerId = "43161617-4660-4075-B14A-1D8E25AEE542";
shapes = (
{
ref = A;
},
{
pos = (84,232);
ref = macroncomb;
}
);
width = 490;
}
);
unicode = 256;
userData = {
com.fontlab.hintData = {
hhints = (
{
position = 1806;
width = 163;
}
);
vhints = (
{
position = 180;
width = 562;
}
);
};
};
},
{
glyphname = Aogonek;
lastChange = "2023-07-06 13:33:10 +0000";
layers = (
{
background = {
shapes = (
{
closed = 1;
nodes = (
(65,0,l),
(132,224,l),
(342,224,l),
(360,0,l),
(415,0,l),
(329,810,l),
(267,810,l),
(11,0,l)
);
},
{
closed = 1;
nodes = (
(291,744,l),
(339,264,l),
(145,264,l)
);
},
{
closed = 1;
nodes = (
(599,-168,l),
(551,-168,o),
(510,-154,o),
(514,-115,cs),
(518,-80,o),
(552,-37,o),
(595,2,c),
(565,2,l),
(519,-21,o),
(478,-72,o),
(472,-119,cs),
(467,-171,o),
(506,-199,o),
(587,-199,c)
);
}
);
};
layerId = "6D1B020D-7C4E-4885-9208-B35BA480FE8F";
shapes = (
{
ref = A;
},
{
pos = (287,-2);
ref = ogonekcomb;
}
);
width = 468;
},
{
background = {
shapes = (
{
closed = 1;
nodes = (
(182,0,l),
(224,164,l),
(331,164,l),
(340,0,l),
(519,0,l),
(457,810,l),
(231,810,l),
(-2,0,l)
);
},
{
closed = 1;
nodes = (
(321,581,l),
(326,276,l),
(251,276,l)
);
},
{
closed = 1;
nodes = (
(752,-171,l),
(726,-171,o),
(663,-173,o),
(669,-115,cs),
(674,-71,o),
(696,-32,o),
(708,10,c),
(629,10,l),
(583,-31,o),
(549,-93,o),
(544,-144,cs),
(532,-255,o),
(658,-258,o),
(729,-256,c)
);
}
);
};
layerId = "BF03A18F-065F-4249-8E16-486B9CB494A0";
shapes = (
{
ref = A;
},
{
pos = (376,0);
ref = ogonekcomb;
}
);
width = 565;
},
{
background = {
shapes = (
{
closed = 1;
nodes = (
(100,0,l),
(160,206,l),
(327,206,l),
(343,0,l),
(447,0,l),
(359,810,l),
(253,810,l),
(-4,0,l)
);
},
{
closed = 1;
nodes = (
(291,656,l),
(321,284,l),
(182,284,l)
);
},
{
closed = 1;
nodes = (
(628,-173,l),
(587,-173,o),
(515,-183,o),
(520,-138,cs),
(525,-89,o),
(585,-33,o),
(618,3,c),
(566,3,l),
(513,-13,o),
(448,-76,o),
(442,-140,cs),
(434,-218,o),
(502,-226,o),
(604,-226,c)
);
}
);
};
layerId = "43161617-4660-4075-B14A-1D8E25AEE542";
shapes = (
{
ref = A;
},
{
pos = (319,-3);
ref = ogonekcomb;
}
);
width = 490;
}
);
unicode = 260;
userData = {
com.fontlab.hintData = {
hhints = (
{
position = -383;
width = 42;
}
);
};
};
},
{
glyphname = Aring;
lastChange = "2023-07-06 13:34:33 +0000";
layers = (
{
background = {
shapes = (
{
closed = 1;
nodes = (
(65,0,l),
(132,224,l),
(342,224,l),
(360,0,l),
(415,0,l),
(329,810,l),
(267,810,l),
(11,0,l)
);
},
{
closed = 1;
nodes = (
(291,744,l),
(339,264,l),
(145,264,l)
);
}
);
};
layerId = "6D1B020D-7C4E-4885-9208-B35BA480FE8F";
shapes = (
{
ref = A;
},
{
pos = (164,232);
ref = ringcomb;
}
);
width = 468;
},
{
background = {
shapes = (
{
closed = 1;
nodes = (
(182,0,l),
(224,164,l),
(331,164,l),
(340,0,l),
(519,0,l),
(457,810,l),
(231,810,l),
(-2,0,l)
);
},
{
closed = 1;
nodes = (
(321,581,l),
(326,276,l),
(251,276,l)
);
}
);
};
layerId = "BF03A18F-065F-4249-8E16-486B9CB494A0";
shapes = (
{
ref = A;
},
{
pos = (191,232);
ref = ringcomb;
}
);
width = 565;
},
{
background = {
shapes = (
{
closed = 1;
nodes = (
(100,0,l),
(160,206,l),
(327,206,l),
(343,0,l),
(447,0,l),
(359,810,l),
(253,810,l),
(-4,0,l)
);
},
{
closed = 1;
nodes = (
(291,656,l),
(321,284,l),
(182,284,l)
);
}
);
};
layerId = "43161617-4660-4075-B14A-1D8E25AEE542";
shapes = (
{
ref = A;
},
{
pos = (186,232);
ref = ringcomb;
}
);
width = 490;
}
);
unicode = 197;
userData = {
com.fontlab.hintData = {
hhints = (
{
position = 1668;
width = 43;
},
{
position = 1930;
width = 42;
}
);
};
};
},
{
glyphname = Atilde;
lastChange = "2023-07-06 13:12:48 +0000";
layers = (
{
background = {
shapes = (
{
closed = 1;
nodes = (
(65,0,l),
(132,224,l),
(342,224,l),
(360,0,l),
(415,0,l),
(329,810,l),
(267,810,l),
(11,0,l)
);
},
{
closed = 1;
nodes = (
(291,744,l),
(339,264,l),
(145,264,l)
);
}
);
};
layerId = "6D1B020D-7C4E-4885-9208-B35BA480FE8F";
shapes = (
{
ref = A;
}
);
width = 468;
},
{
background = {
shapes = (
{
closed = 1;
nodes = (
(182,0,l),
(224,164,l),
(331,164,l),
(340,0,l),
(519,0,l),
(457,810,l),
(231,810,l),
(-2,0,l)
);
},
{
closed = 1;
nodes = (
(321,581,l),
(326,276,l),
(251,276,l)
);
}
);
};
layerId = "BF03A18F-065F-4249-8E16-486B9CB494A0";
shapes = (
{
ref = A;
}
);
width = 565;
},
{
background = {
shapes = (
{
closed = 1;
nodes = (
(100,0,l),
(160,206,l),
(327,206,l),
(343,0,l),
(447,0,l),
(359,810,l),
(253,810,l),
(-4,0,l)
);
},
{
closed = 1;
nodes = (
(291,656,l),
(321,284,l),
(182,284,l)
);
}
);
};
layerId = "43161617-4660-4075-B14A-1D8E25AEE542";
shapes = (
{
ref = A;
}
);
width = 490;
}
);
unicode = 195;
userData = {
com.fontlab.hintData = {
vhints = (
{
position = 320;
width = 55;
},
{
position = 718;
width = 49;
}
);
};
};
},
{
glyphname = AE;
lastChange = "2023-07-06 13:16:51 +0000";
layers = (
{
anchors = (
{
name = bottom;
pos = (315,0);
},
{
name = top;
pos = (315,810);
}
);
background = {
shapes = (
{
closed = 1;
nodes = (
(17,0,l),
(129,224,l),
(318,224,l),
(294,0,l),
(575,0,l),
(580,44,l),
(351,44,l),
(388,401,l),
(553,401,l),
(558,441,l),
(393,441,l),
(426,766,l),
(655,766,l),
(660,810,l),
(363,810,l),
(-36,0,l)
);
},
{
closed = 1;
nodes = (
(370,734,l),
(322,268,l),
(149,268,l)
);
}
);
};
layerId = "6D1B020D-7C4E-4885-9208-B35BA480FE8F";
shapes = (
{
closed = 1;
nodes = (
(17,0,l),
(129,224,l),
(318,224,l),
(294,0,l),
(575,0,l),
(580,44,l),
(351,44,l),
(388,401,l),
(553,401,l),
(558,441,l),
(393,441,l),
(426,766,l),
(655,766,l),
(660,810,l),
(363,810,l),
(-36,0,l)
);
},
{
closed = 1;
nodes = (
(370,734,l),
(322,268,l),
(149,268,l)
);
}
);
width = 629;
},
{
associatedMasterId = "6D1B020D-7C4E-4885-9208-B35BA480FE8F";
layerId = "B45D9027-F677-408B-8511-9BA9D5CA972C";
name = b;
width = 627;
},
{
anchors = (
{
name = bottom;
pos = (363,0);
},
{
name = top;
pos = (363,810);
}
);
background = {
shapes = (
{
closed = 1;
nodes = (
(168,0,l),
(250,160,l),
(375,160,l),
(358,0,l),
(685,0,l),
(698,130,l),
(537,130,l),
(560,350,l),
(674,350,l),
(688,486,l),
(574,486,l),
(593,664,l),
(754,664,l),
(768,795,l),
(410,795,l),
(-29,0,l)
);
},
{
closed = 1;
nodes = (
(413,516,l),
(388,280,l),
(300,280,l)
);
}
);
};
layerId = "BF03A18F-065F-4249-8E16-486B9CB494A0";
shapes = (
{
closed = 1;
nodes = (
(168,0,l),
(250,160,l),
(375,160,l),
(358,0,l),
(685,0,l),
(698,130,l),
(537,130,l),
(560,350,l),
(674,350,l),
(688,486,l),
(574,486,l),
(593,664,l),
(754,664,l),
(768,795,l),
(410,795,l),
(-29,0,l)
);
},
{
closed = 1;
nodes = (
(413,516,l),
(388,280,l),
(300,280,l)
);
}
);
width = 725;
},
{
anchors = (
{
name = bottom;
pos = (317,0);
},
{
name = top;
pos = (317,810);
}
);
background = {
shapes = (
{
closed = 1;
nodes = (
(31,0,l),
(139,206,l),
(292,206,l),
(270,0,l),
(581,0,l),
(589,79,l),
(382,79,l),
(414,380,l),
(563,380,l),
(571,458,l),
(422,458,l),
(451,731,l),
(658,731,l),
(666,810,l),
(352,810,l),
(-73,0,l)
);
},
{
closed = 1;
nodes = (
(334,614,l),
(300,285,l),
(177,285,l)
);
}
);
};
layerId = "43161617-4660-4075-B14A-1D8E25AEE542";
shapes = (
{
closed = 1;
nodes = (
(31,0,l),
(139,206,l),
(292,206,l),
(270,0,l),
(581,0,l),
(589,79,l),
(382,79,l),
(414,380,l),
(563,380,l),
(571,458,l),
(422,458,l),
(451,731,l),
(658,731,l),
(666,810,l),
(352,810,l),
(-73,0,l)
);
},
{
closed = 1;
nodes = (
(334,614,l),
(300,285,l),
(177,285,l)
);
}
);
width = 634;
}
);
unicode = 198;
userData = {
com.typemytype.robofont.layerData = {
b = {
anchors = (
);
components = (
);
contours = (
);
lib = {
};
name = AE;
unicodes = (
);
width = 1284;
};
};
};
},
{
glyphname = B;
lastChange = "2023-07-06 13:16:51 +0000";
layers = (
{
anchors = (
{
name = bottom;
pos = (244,0);
},
{
name = center;
pos = (244,405);
},
{
name = top;
pos = (244,810);
}
);
background = {
shapes = (
{
closed = 1;
nodes = (
(246,0,ls),
(401,0,o),
(438,114,o),
(451,236,cs),
(458,308,o),
(451,409,o),
(359,437,c),
(439,456,o),
(465,543,o),
(472,608,cs),
(484,720,o),
(455,810,o),
(306,810,cs),
(139,810,l),
(54,0,l)
);
},
{
closed = 1;
nodes = (
(152,412,l),
(289,412,ls),
(386,412,o),
(407,332,o),
(397,235,cs),
(384,104,o),
(350,43,o),
(243,43,cs),
(113,43,l)
);
},
{
closed = 1;
nodes = (
(189,766,l),
(289,766,ls),
(416,766,o),
(431,698,o),
(422,608,cs),
(413,524,o),
(382,455,o),
(292,455,cs),
(156,455,l)
);
}
);
};
layerId = "6D1B020D-7C4E-4885-9208-B35BA480FE8F";
shapes = (
{
closed = 1;
nodes = (
(246,0,ls),
(401,0,o),
(438,114,o),
(451,236,cs),
(458,308,o),
(451,409,o),
(359,437,c),
(439,456,o),
(465,543,o),
(472,608,cs),
(484,720,o),
(455,810,o),
(306,810,cs),
(139,810,l),
(54,0,l)
);
},
{
closed = 1;
nodes = (
(152,412,l),
(289,412,ls),
(386,412,o),
(407,332,o),
(397,235,cs),
(384,104,o),
(350,43,o),
(243,43,cs),
(113,43,l)
);
},
{
closed = 1;
nodes = (
(189,766,l),
(289,766,ls),
(416,766,o),
(431,698,o),
(422,608,cs),
(413,524,o),
(382,455,o),
(292,455,cs),
(156,455,l)
);
}
);
width = 488;
},
{
anchors = (
{
name = bottom;
pos = (302,0);
},
{
name = center;
pos = (302,405);
},
{
name = top;
pos = (302,810);
}
);
background = {
shapes = (
{
closed = 1;
nodes = (
(292,0,ls),
(450,0,o),
(555,68,o),
(571,243,cs),
(582,357,o),
(538,426,o),
(447,435,c),
(520,449,o),
(569,498,o),
(582,595,cs),
(606,786,o),
(474,810,o),
(337,810,cs),
(119,810,l),
(34,0,l)
);
},
{
closed = 1;
nodes = (
(268,364,l),
(297,364,ls),
(371,364,o),
(393,334,o),
(383,246,cs),
(375,174,o),
(347,136,o),
(272,136,cs),
(244,136,l)
);
},
{
closed = 1;
nodes = (
(301,681,l),
(333,681,ls),
(389,681,o),
(417,643,o),
(412,590,cs),
(405,529,o),
(386,489,o),
(309,489,cs),
(281,489,l)
);
}
);
};
layerId = "BF03A18F-065F-4249-8E16-486B9CB494A0";
shapes = (
{
closed = 1;
nodes = (
(292,0,ls),
(450,0,o),
(555,68,o),
(571,243,cs),
(582,357,o),
(538,426,o),
(447,435,c),
(520,449,o),
(569,498,o),
(582,595,cs),
(606,786,o),
(474,810,o),
(337,810,cs),
(119,810,l),
(34,0,l)
);
},
{
closed = 1;
nodes = (
(268,364,l),
(297,364,ls),
(371,364,o),
(393,334,o),
(383,246,cs),
(375,174,o),
(347,136,o),
(272,136,cs),
(244,136,l)
);
},
{
closed = 1;
nodes = (
(301,681,l),
(333,681,ls),
(389,681,o),
(417,643,o),
(412,590,cs),
(405,529,o),
(386,489,o),
(309,489,cs),
(281,489,l)
);
}
);
width = 604;
},
{
anchors = (
{
name = bottom;
pos = (261,0);
},
{
name = center;
pos = (261,405);
},
{
name = top;
pos = (261,810);
}
);
background = {
shapes = (
{
closed = 1;
nodes = (
(254,0,ls),
(400,0,o),
(470,93,o),
(485,232,cs),
(497,343,o),
(464,412,o),
(371,436,c),
(450,447,o),
(493,510,o),
(503,607,cs),
(517,744,o),
(456,810,o),
(309,810,cs),
(125,810,l),
(40,0,l)
);
},
{
closed = 1;
nodes = (
(190,387,l),
(261,387,ls),
(360,387,o),
(391,332,o),
(381,232,cs),
(370,125,o),
(338,79,o),
(238,79,cs),
(158,79,l)
);
},
{
closed = 1;
nodes = (
(226,729,l),
(257,729,ls),
(373,729,o),
(419,717,o),
(408,607,cs),
(397,512,o),
(365,470,o),
(270,470,cs),
(199,470,l)
);
}
);
};
layerId = "43161617-4660-4075-B14A-1D8E25AEE542";
shapes = (
{
closed = 1;
nodes = (
(254,0,ls),
(400,0,o),
(470,93,o),
(485,232,cs),
(497,343,o),
(464,412,o),
(371,436,c),
(450,447,o),
(493,510,o),
(503,607,cs),
(517,744,o),
(456,810,o),
(309,810,cs),
(125,810,l),
(40,0,l)
);
},
{
closed = 1;
nodes = (
(190,387,l),
(261,387,ls),
(360,387,o),
(391,332,o),
(381,232,cs),
(370,125,o),
(338,79,o),
(238,79,cs),
(158,79,l)
);
},
{
closed = 1;
nodes = (
(226,729,l),
(257,729,ls),
(373,729,o),
(419,717,o),
(408,607,cs),
(397,512,o),
(365,470,o),
(270,470,cs),
(199,470,l)
);
}
);
width = 521;
}
);
unicode = 66;
userData = {
com.fontlab.hintData = {
hhints = (
{
position = 0;
width = 56;
},
{
position = 864;
width = 53;
},
{
position = 1602;
width = 56;
}
);
};
};
},
{
glyphname = Bdotaccent;
lastChange = "2023-07-06 13:12:48 +0000";
layers = (
{
background = {
shapes = (
{
closed = 1;
nodes = (
(246,0,ls),
(401,0,o),
(438,114,o),
(451,236,cs),
(458,308,o),
(451,409,o),
(359,437,c),
(439,456,o),
(465,543,o),
(472,608,cs),
(484,720,o),
(455,810,o),
(306,810,cs),
(139,810,l),
(54,0,l)
);
},
{
closed = 1;
nodes = (
(152,412,l),
(289,412,ls),
(386,412,o),
(407,332,o),
(397,235,cs),
(384,104,o),
(350,43,o),
(243,43,cs),
(113,43,l)
);
},
{
closed = 1;
nodes = (
(189,766,l),
(289,766,ls),
(416,766,o),
(431,698,o),
(422,608,cs),
(413,524,o),
(382,455,o),
(292,455,cs),
(156,455,l)
);
}
);
};
layerId = "6D1B020D-7C4E-4885-9208-B35BA480FE8F";
shapes = (
{
ref = B;
}
);
width = 488;
},
{
background = {
shapes = (
{
closed = 1;
nodes = (
(292,0,ls),
(450,0,o),
(555,68,o),
(571,243,cs),
(582,357,o),
(538,426,o),
(447,435,c),
(520,449,o),
(569,498,o),
(582,595,cs),
(606,786,o),
(474,810,o),
(337,810,cs),
(119,810,l),
(34,0,l)
);
},
{
closed = 1;
nodes = (
(268,364,l),
(297,364,ls),
(371,364,o),
(393,334,o),
(383,246,cs),
(375,174,o),
(347,136,o),
(272,136,cs),
(244,136,l)
);
},
{
closed = 1;
nodes = (
(301,681,l),
(333,681,ls),
(389,681,o),
(417,643,o),
(412,590,cs),
(405,529,o),
(386,489,o),
(309,489,cs),
(281,489,l)
);
}
);
};
layerId = "BF03A18F-065F-4249-8E16-486B9CB494A0";
shapes = (
{
ref = B;
}
);
width = 604;
},
{
background = {
shapes = (
{
closed = 1;
nodes = (
(254,0,ls),
(400,0,o),
(470,93,o),
(485,232,cs),
(497,343,o),
(464,412,o),
(371,436,c),
(450,447,o),
(493,510,o),
(503,607,cs),
(517,744,o),
(456,810,o),
(309,810,cs),
(125,810,l),
(40,0,l)
);
},
{
closed = 1;
nodes = (
(190,387,l),
(261,387,ls),
(360,387,o),
(391,332,o),
(381,232,cs),
(370,125,o),
(338,79,o),
(238,79,cs),
(158,79,l)
);
},
{
closed = 1;
nodes = (
(226,729,l),
(257,729,ls),
(373,729,o),
(419,717,o),
(408,607,cs),
(397,512,o),
(365,470,o),
(270,470,cs),
(199,470,l)
);
}
);
};
layerId = "43161617-4660-4075-B14A-1D8E25AEE542";
shapes = (
{
ref = B;
}
);
width = 521;
}
);
unicode = 7682;
userData = {
com.fontlab.hintData = {
hhints = (
{
position = 0;
width = 56;
},
{
position = 864;
width = 53;
},
{
position = 1602;
width = 56;
},
{
position = 1800;
width = 161;
}
);
};
};
},
{
glyphname = C;
lastChange = "2023-07-06 13:18:38 +0000";
layers = (
{
anchors = (
{
name = bottom;
pos = (245,0);
},
{
name = top;
pos = (322,810);
}
);
background = {
shapes = (
{
closed = 1;
nodes = (
(379,-11,o),
(429,88,o),
(443,227,c),
(447,267,l),
(395,267,l),
(390,218,ls),
(378,107,o),
(346,34,o),
(238,34,cs),
(125,34,o),
(103,105,o),
(116,225,cs),
(153,583,ls),
(166,697,o),
(198,774,o),
(316,774,cs),
(422,774,o),
(441,706,o),
(430,591,cs),
(425,550,l),
(477,550,l),
(481,591,ls),
(496,729,o),
(461,819,o),
(320,819,cs),
(165,819,o),
(112,716,o),
(98,577,cs),
(62,233,ls),
(47,98,o),
(73,-11,o),
(233,-11,cs)
);
}
);
};
layerId = "6D1B020D-7C4E-4885-9208-B35BA480FE8F";
shapes = (
{
closed = 1;
nodes = (
(379,-11,o),
(429,88,o),
(443,227,c),
(447,267,l),
(395,267,l),
(390,218,ls),
(378,107,o),
(346,34,o),
(238,34,cs),
(125,34,o),
(103,105,o),
(116,225,cs),
(153,583,ls),
(166,697,o),
(198,774,o),
(316,774,cs),
(422,774,o),
(441,706,o),
(430,591,cs),
(425,550,l),
(477,550,l),
(481,591,ls),
(496,729,o),
(461,819,o),
(320,819,cs),
(165,819,o),
(112,716,o),
(98,577,cs),
(62,233,ls),
(47,98,o),
(73,-11,o),
(233,-11,cs)
);
}
);
width = 489;
},
{
anchors = (
{
name = bottom;
pos = (287,0);
},
{
name = top;
pos = (357,810);
}
);
background = {
shapes = (
{
closed = 1;
nodes = (
(459,-12,o),
(524,91,o),
(538,227,c),
(545,298,l),
(354,298,l),
(344,208,ls),
(340,170,o),
(334,123,o),
(287,123,cs),
(240,123,o),
(240,168,o),
(245,208,cs),
(286,602,ls),
(290,640,o),
(298,687,o),
(346,687,cs),
(394,687,o),
(390,640,o),
(386,604,cs),
(376,516,l),
(568,516,l),
(576,588,ls),
(590,723,o),
(546,822,o),
(360,822,cs),
(172,822,o),
(100,720,o),
(83,550,cs),
(52,259,ls),
(34,91,o),
(84,-12,o),
(272,-12,cs)
);
}
);
};
layerId = "BF03A18F-065F-4249-8E16-486B9CB494A0";
shapes = (
{
closed = 1;
nodes = (
(459,-12,o),
(524,91,o),
(538,227,c),
(545,298,l),
(354,298,l),
(344,208,ls),
(340,170,o),
(334,123,o),
(287,123,cs),
(240,123,o),
(240,168,o),
(245,208,cs),
(286,602,ls),
(290,640,o),
(298,687,o),
(346,687,cs),
(394,687,o),
(390,640,o),
(386,604,cs),
(376,516,l),
(568,516,l),
(576,588,ls),
(590,723,o),
(546,822,o),
(360,822,cs),
(172,822,o),
(100,720,o),
(83,550,cs),
(52,259,ls),
(34,91,o),
(84,-12,o),
(272,-12,cs)
);
}
);
width = 574;
},
{
anchors = (
{
name = bottom;
pos = (257,0);
},
{
name = top;
pos = (325,810);
}
);
background = {
shapes = (
{
closed = 1;
nodes = (
(399,-9,o),
(454,92,o),
(469,240,c),
(476,299,l),
(372,299,l),
(366,240,ls),
(355,143,o),
(343,77,o),
(250,77,cs),
(170,77,o),
(148,119,o),
(161,241,cs),
(194,563,ls),
(206,665,o),
(223,732,o),
(319,732,cs),
(415,732,o),
(411,669,o),
(401,578,cs),
(396,522,l),
(499,522,l),
(506,585,ls),
(521,730,o),
(479,818,o),
(327,818,cs),
(157,818,o),
(100,711,o),
(83,548,cs),
(52,258,ls),
(37,108,o),
(69,-9,o),
(240,-9,cs)
);
}
);
};
layerId = "43161617-4660-4075-B14A-1D8E25AEE542";
shapes = (
{
closed = 1;
nodes = (
(399,-9,o),
(454,92,o),
(469,240,c),
(476,299,l),
(372,299,l),
(366,240,ls),
(355,143,o),
(343,77,o),
(250,77,cs),
(170,77,o),
(148,119,o),
(161,241,cs),
(194,563,ls),
(206,665,o),
(223,732,o),
(319,732,cs),
(415,732,o),
(411,669,o),
(401,578,cs),
(396,522,l),
(499,522,l),
(506,585,ls),
(521,730,o),
(479,818,o),
(327,818,cs),
(157,818,o),
(100,711,o),
(83,548,cs),
(52,258,ls),
(37,108,o),
(69,-9,o),
(240,-9,cs)
);
}
);
width = 513;
}
);
unicode = 67;
userData = {
com.fontlab.hintData = {
hhints = (
{
position = -24;
width = 56;
},
{
position = 1623;
width = 55;
}
);
};
};
},
{
glyphname = Cacute;
lastChange = "2023-07-06 13:19:01 +0000";
layers = (
{
background = {
shapes = (
{
closed = 1;
nodes = (
(379,-11,o),
(429,88,o),
(443,227,c),
(447,267,l),
(395,267,l),
(390,218,ls),
(378,107,o),
(346,34,o),
(238,34,cs),
(125,34,o),
(103,105,o),
(116,225,cs),
(153,583,ls),
(166,697,o),
(198,774,o),
(316,774,cs),
(422,774,o),
(441,706,o),
(430,591,cs),
(425,550,l),
(477,550,l),
(481,591,ls),
(496,729,o),
(461,819,o),
(320,819,cs),
(165,819,o),
(112,716,o),
(98,577,cs),
(62,233,ls),
(47,98,o),
(73,-11,o),
(233,-11,cs)
);
},
{
closed = 1;
nodes = (
(277,879,l),
(387,1073,l),
(334,1073,l),
(249,879,l)
);
}
);
};
layerId = "6D1B020D-7C4E-4885-9208-B35BA480FE8F";
shapes = (
{
ref = C;
},
{
pos = (278,232);
ref = acutecomb;
}
);
width = 489;
},
{
background = {
shapes = (
{
closed = 1;
nodes = (
(459,-12,o),
(524,91,o),
(538,227,c),
(545,298,l),
(354,298,l),
(344,208,ls),
(340,170,o),
(334,123,o),
(287,123,cs),
(240,123,o),
(240,168,o),
(245,208,cs),
(286,602,ls),
(290,640,o),
(298,687,o),
(346,687,cs),
(394,687,o),
(390,640,o),
(386,604,cs),
(376,516,l),
(568,516,l),
(576,588,ls),
(590,723,o),
(546,822,o),
(360,822,cs),
(172,822,o),
(100,720,o),
(83,550,cs),
(52,259,ls),
(34,91,o),
(84,-12,o),
(272,-12,cs)
);
},
{
closed = 1;
nodes = (
(359,881,l),
(509,1084,l),
(328,1084,l),
(245,881,l)
);
}
);
};
layerId = "BF03A18F-065F-4249-8E16-486B9CB494A0";
shapes = (
{
ref = C;
},
{
pos = (252,232);
ref = acutecomb;
}
);
width = 574;
},
{
background = {
shapes = (
{
closed = 1;
nodes = (
(399,-9,o),
(454,92,o),
(469,240,c),
(476,299,l),
(372,299,l),
(366,240,ls),
(355,143,o),
(343,77,o),
(250,77,cs),
(170,77,o),
(148,119,o),
(161,241,cs),
(194,563,ls),
(206,665,o),
(223,732,o),
(319,732,cs),
(415,732,o),
(411,669,o),
(401,578,cs),
(396,522,l),
(499,522,l),
(506,585,ls),
(521,730,o),
(479,818,o),
(327,818,cs),
(157,818,o),
(100,711,o),
(83,548,cs),
(52,258,ls),
(37,108,o),
(69,-9,o),
(240,-9,cs)
);
},
{
closed = 1;
nodes = (
(301,877,l),
(432,1075,l),
(328,1075,l),
(248,877,l)
);
}
);
};
layerId = "43161617-4660-4075-B14A-1D8E25AEE542";
shapes = (
{
ref = C;
},
{
pos = (257,232);
ref = acutecomb;
}
);
width = 513;
}
);
unicode = 262;
userData = {
com.fontlab.hintData = {
hhints = (
{
position = -24;
width = 56;
},
{
position = 1623;
width = 55;
},
{
position = 1800;
width = 394;
}
);
};
};
},
{
glyphname = Ccaron;
lastChange = "2023-07-06 13:12:48 +0000";
layers = (
{
background = {
shapes = (
{
closed = 1;
nodes = (
(379,-11,o),
(429,88,o),
(443,227,c),
(447,267,l),
(395,267,l),
(390,218,ls),
(378,107,o),
(346,34,o),
(238,34,cs),
(125,34,o),
(103,105,o),
(116,225,cs),
(153,583,ls),
(166,697,o),
(198,774,o),
(316,774,cs),
(422,774,o),
(441,706,o),
(430,591,cs),
(425,550,l),
(477,550,l),
(481,591,ls),
(496,729,o),
(461,819,o),
(320,819,cs),
(165,819,o),
(112,716,o),
(98,577,cs),
(62,233,ls),
(47,98,o),
(73,-11,o),
(233,-11,cs)
);
}
);
};
layerId = "6D1B020D-7C4E-4885-9208-B35BA480FE8F";
shapes = (
{
ref = C;
}
);
width = 489;
},
{
background = {
shapes = (
{
closed = 1;
nodes = (
(459,-12,o),
(524,91,o),
(538,227,c),
(545,298,l),
(354,298,l),
(344,208,ls),
(340,170,o),
(334,123,o),
(287,123,cs),
(240,123,o),
(240,168,o),
(245,208,cs),
(286,602,ls),
(290,640,o),
(298,687,o),
(346,687,cs),
(394,687,o),
(390,640,o),
(386,604,cs),
(376,516,l),
(568,516,l),
(576,588,ls),
(590,723,o),
(546,822,o),
(360,822,cs),
(172,822,o),
(100,720,o),
(83,550,cs),
(52,259,ls),
(34,91,o),
(84,-12,o),
(272,-12,cs)
);
}
);
};
layerId = "BF03A18F-065F-4249-8E16-486B9CB494A0";
shapes = (
{
ref = C;
}
);
width = 574;
},
{
background = {
shapes = (
{
closed = 1;
nodes = (
(399,-9,o),
(454,92,o),
(469,240,c),
(476,299,l),
(372,299,l),
(366,240,ls),
(355,143,o),
(343,77,o),
(250,77,cs),
(170,77,o),
(148,119,o),
(161,241,cs),
(194,563,ls),
(206,665,o),
(223,732,o),
(319,732,cs),
(415,732,o),
(411,669,o),
(401,578,cs),
(396,522,l),
(499,522,l),
(506,585,ls),
(521,730,o),
(479,818,o),
(327,818,cs),
(157,818,o),
(100,711,o),
(83,548,cs),
(52,258,ls),
(37,108,o),
(69,-9,o),
(240,-9,cs)
);
}
);
};
layerId = "43161617-4660-4075-B14A-1D8E25AEE542";
shapes = (
{
ref = C;
}
);
width = 513;
}
);
unicode = 268;
userData = {
com.fontlab.hintData = {
hhints = (
{
position = -24;
width = 56;
},
{
position = 1623;
width = 55;
}
);
};
};
},
{
glyphname = Ccedilla;
lastChange = "2023-07-06 13:12:48 +0000";
layers = (
{
background = {
shapes = (
{
closed = 1;
nodes = (
(379,-11,o),
(429,88,o),
(443,227,c),
(447,267,l),
(395,267,l),
(390,218,ls),
(378,107,o),
(346,34,o),
(238,34,cs),
(125,34,o),
(103,105,o),
(116,225,cs),
(153,583,ls),
(166,697,o),
(198,774,o),
(316,774,cs),
(422,774,o),
(441,706,o),
(430,591,cs),
(425,550,l),
(477,550,l),
(481,591,ls),
(496,729,o),
(461,819,o),
(320,819,cs),
(165,819,o),
(112,716,o),
(98,577,cs),
(62,233,ls),
(47,98,o),
(73,-11,o),
(233,-11,cs)
);
},
{
closed = 1;
nodes = (
(561,-192,o),
(605,-171,o),
(613,-125,cs),
(618,-89,o),
(593,-55,o),
(540,-47,c),
(545,0,l),
(516,0,l),
(510,-62,l),
(553,-69,o),
(578,-88,o),
(572,-121,cs),
(566,-150,o),
(541,-160,o),
(478,-156,c),
(475,-185,l)
);
}
);
};
layerId = "6D1B020D-7C4E-4885-9208-B35BA480FE8F";
shapes = (
{
ref = C;
},
{
pos = (489,0);
ref = cedilla;
}
);
width = 698;
},
{
background = {
shapes = (
{
closed = 1;
nodes = (
(459,-12,o),
(524,91,o),
(538,227,c),
(545,298,l),
(354,298,l),
(344,208,ls),
(340,170,o),
(334,123,o),
(287,123,cs),
(240,123,o),
(240,168,o),
(245,208,cs),
(286,602,ls),
(290,640,o),
(298,687,o),
(346,687,cs),
(394,687,o),
(390,640,o),
(386,604,cs),
(376,516,l),
(568,516,l),
(576,588,ls),
(590,723,o),
(546,822,o),
(360,822,cs),
(172,822,o),
(100,720,o),
(83,550,cs),
(52,259,ls),
(34,91,o),
(84,-12,o),
(272,-12,cs)
);
},
{
closed = 1;
nodes = (
(676,-305,o),
(812,-283,o),
(823,-173,cs),
(829,-111,o),
(771,-69,o),
(690,-68,c),
(698,0,l),
(637,0,l),
(623,-124,l),
(660,-125,o),
(715,-140,o),
(711,-182,cs),
(707,-217,o),
(619,-210,o),
(588,-201,c),
(580,-275,l)
);
}
);
};
layerId = "BF03A18F-065F-4249-8E16-486B9CB494A0";
shapes = (
{
ref = C;
},
{
pos = (574,0);
ref = cedilla;
}
);
width = 855;
},
{
background = {
shapes = (
{
closed = 1;
nodes = (
(399,-9,o),
(454,92,o),
(469,240,c),
(476,299,l),
(372,299,l),
(366,240,ls),
(355,143,o),
(343,77,o),
(250,77,cs),
(170,77,o),
(148,119,o),
(161,241,cs),
(194,563,ls),
(206,665,o),
(223,732,o),
(319,732,cs),
(415,732,o),
(411,669,o),
(401,578,cs),
(396,522,l),
(499,522,l),
(506,585,ls),
(521,730,o),
(479,818,o),
(327,818,cs),
(157,818,o),
(100,711,o),
(83,548,cs),
(52,258,ls),
(37,108,o),
(69,-9,o),
(240,-9,cs)
);
},
{
closed = 1;
nodes = (
(590,-248,o),
(686,-223,o),
(692,-141,cs),
(695,-92,o),
(644,-64,o),
(592,-56,c),
(597,0,l),
(545,0,l),
(536,-82,l),
(579,-93,o),
(619,-104,o),
(614,-142,cs),
(608,-179,o),
(550,-183,o),
(500,-170,c),
(494,-222,l)
);
}
);
};
layerId = "43161617-4660-4075-B14A-1D8E25AEE542";
shapes = (
{
ref = C;
},
{
pos = (513,0);
ref = cedilla;
}
);
width = 763;
}
);
unicode = 199;
userData = {
com.fontlab.hintData = {
hhints = (
{
position = -357;
width = 36;
},
{
position = -24;
width = 56;
},
{
position = 1623;
width = 55;
}
);
};
};
},
{
glyphname = Ccircumflex;
lastChange = "2023-07-06 13:12:48 +0000";
layers = (
{
background = {
shapes = (
{
closed = 1;
nodes = (
(379,-11,o),
(429,88,o),
(443,227,c),
(447,267,l),
(395,267,l),
(390,218,ls),
(378,107,o),
(346,34,o),
(238,34,cs),
(125,34,o),
(103,105,o),
(116,225,cs),
(153,583,ls),
(166,697,o),
(198,774,o),
(316,774,cs),
(422,774,o),
(441,706,o),
(430,591,cs),
(425,550,l),
(477,550,l),
(481,591,ls),
(496,729,o),
(461,819,o),
(320,819,cs),
(165,819,o),
(112,716,o),
(98,577,cs),
(62,233,ls),
(47,98,o),
(73,-11,o),
(233,-11,cs)
);
}
);
};
layerId = "6D1B020D-7C4E-4885-9208-B35BA480FE8F";
shapes = (
{
ref = C;
}
);
width = 489;
},
{
background = {
shapes = (
{
closed = 1;
nodes = (
(459,-12,o),
(524,91,o),
(538,227,c),
(545,298,l),
(354,298,l),
(344,208,ls),
(340,170,o),
(334,123,o),
(287,123,cs),
(240,123,o),
(240,168,o),
(245,208,cs),
(286,602,ls),
(290,640,o),
(298,687,o),
(346,687,cs),
(394,687,o),
(390,640,o),
(386,604,cs),
(376,516,l),
(568,516,l),
(576,588,ls),
(590,723,o),
(546,822,o),
(360,822,cs),
(172,822,o),
(100,720,o),
(83,550,cs),
(52,259,ls),
(34,91,o),
(84,-12,o),
(272,-12,cs)
);
}
);
};
layerId = "BF03A18F-065F-4249-8E16-486B9CB494A0";
shapes = (
{
ref = C;
}
);
width = 574;
},
{
background = {
shapes = (
{
closed = 1;
nodes = (
(399,-9,o),
(454,92,o),
(469,240,c),
(476,299,l),
(372,299,l),
(366,240,ls),
(355,143,o),
(343,77,o),
(250,77,cs),
(170,77,o),
(148,119,o),
(161,241,cs),
(194,563,ls),
(206,665,o),
(223,732,o),
(319,732,cs),
(415,732,o),
(411,669,o),
(401,578,cs),
(396,522,l),
(499,522,l),
(506,585,ls),
(521,730,o),
(479,818,o),
(327,818,cs),
(157,818,o),
(100,711,o),
(83,548,cs),
(52,258,ls),
(37,108,o),
(69,-9,o),
(240,-9,cs)
);
}
);
};
layerId = "43161617-4660-4075-B14A-1D8E25AEE542";
shapes = (
{
ref = C;
}
);
width = 513;
}
);
unicode = 264;
userData = {
com.fontlab.hintData = {
hhints = (
{
position = -24;
width = 56;
},
{
position = 1623;
width = 55;
}
);
};
};
},
{
glyphname = Cdotaccent;
lastChange = "2023-07-06 13:12:48 +0000";
layers = (
{
background = {
shapes = (
{
closed = 1;
nodes = (
(379,-11,o),
(429,88,o),
(443,227,c),
(447,267,l),
(395,267,l),
(390,218,ls),
(378,107,o),
(346,34,o),
(238,34,cs),
(125,34,o),
(103,105,o),
(116,225,cs),
(153,583,ls),
(166,697,o),
(198,774,o),
(316,774,cs),
(422,774,o),
(441,706,o),
(430,591,cs),
(425,550,l),
(477,550,l),
(481,591,ls),
(496,729,o),
(461,819,o),
(320,819,cs),
(165,819,o),
(112,716,o),
(98,577,cs),
(62,233,ls),
(47,98,o),
(73,-11,o),
(233,-11,cs)
);
}
);
};
layerId = "6D1B020D-7C4E-4885-9208-B35BA480FE8F";
shapes = (
{
ref = C;
}
);
width = 489;
},
{
background = {
shapes = (
{
closed = 1;
nodes = (
(459,-12,o),
(524,91,o),
(538,227,c),
(545,298,l),
(354,298,l),
(344,208,ls),
(340,170,o),
(334,123,o),
(287,123,cs),
(240,123,o),
(240,168,o),
(245,208,cs),
(286,602,ls),
(290,640,o),
(298,687,o),
(346,687,cs),
(394,687,o),
(390,640,o),
(386,604,cs),
(376,516,l),
(568,516,l),
(576,588,ls),
(590,723,o),
(546,822,o),
(360,822,cs),
(172,822,o),
(100,720,o),
(83,550,cs),
(52,259,ls),
(34,91,o),
(84,-12,o),
(272,-12,cs)
);
}
);
};
layerId = "BF03A18F-065F-4249-8E16-486B9CB494A0";
shapes = (
{
ref = C;
}
);
width = 574;
},
{
background = {
shapes = (
{
closed = 1;
nodes = (
(399,-9,o),
(454,92,o),
(469,240,c),
(476,299,l),
(372,299,l),
(366,240,ls),
(355,143,o),
(343,77,o),
(250,77,cs),
(170,77,o),
(148,119,o),
(161,241,cs),
(194,563,ls),
(206,665,o),
(223,732,o),
(319,732,cs),
(415,732,o),
(411,669,o),
(401,578,cs),
(396,522,l),
(499,522,l),
(506,585,ls),
(521,730,o),
(479,818,o),
(327,818,cs),
(157,818,o),
(100,711,o),
(83,548,cs),
(52,258,ls),
(37,108,o),
(69,-9,o),
(240,-9,cs)
);
}
);
};
layerId = "43161617-4660-4075-B14A-1D8E25AEE542";
shapes = (
{
ref = C;
}
);
width = 513;
}
);
unicode = 266;
userData = {
com.fontlab.hintData = {
hhints = (
{
position = -24;
width = 56;
},
{
position = 1623;
width = 55;
},
{
position = 1800;
width = 161;
}
);
};
};
},
{
glyphname = D;
lastChange = "2023-07-06 13:16:51 +0000";
layers = (
{
anchors = (
{
name = bottom;
pos = (259,0);
},
{
name = center;
pos = (259,405);
},
{
name = top;
pos = (259,810);
}
);
background = {
shapes = (
{
closed = 1;
nodes = (
(236,0,ls),
(393,0,o),
(449,102,o),
(464,241,cs),
(499,577,ls),
(513,707,o),
(478,810,o),
(316,810,cs),
(139,810,l),
(54,0,l)
);
},
{
closed = 1;
nodes = (
(189,766,l),
(312,766,ls),
(436,766,o),
(456,691,o),
(444,573,cs),
(410,247,ls),
(398,137,o),
(369,43,o),
(238,43,cs),
(113,43,l)
);
}
);
};
layerId = "6D1B020D-7C4E-4885-9208-B35BA480FE8F";
shapes = (
{
closed = 1;
nodes = (
(236,0,ls),
(393,0,o),
(449,102,o),
(464,241,cs),
(499,577,ls),
(513,707,o),
(478,810,o),
(316,810,cs),
(139,810,l),
(54,0,l)
);
},
{
closed = 1;
nodes = (
(189,766,l),
(312,766,ls),
(436,766,o),
(456,691,o),
(444,573,cs),
(410,247,ls),
(398,137,o),
(369,43,o),
(238,43,cs),
(113,43,l)
);
}
);
width = 517;
},
{
anchors = (
{
name = bottom;
pos = (300,0);
},
{
name = center;
pos = (300,405);
},
{
name = top;
pos = (300,810);
}
);
background = {
shapes = (
{
closed = 1;
nodes = (
(247,0,ls),
(465,0,o),
(534,74,o),
(554,260,cs),
(584,552,ls),
(604,736,o),
(551,810,o),
(331,810,cs),
(119,810,l),
(34,0,l)
);
},
{
closed = 1;
nodes = (
(300,675,l),
(320,675,ls),
(390,675,o),
(395,652,o),
(389,594,cs),
(349,219,ls),
(342,160,o),
(334,135,o),
(264,135,cs),
(244,135,l)
);
}
);
};
layerId = "BF03A18F-065F-4249-8E16-486B9CB494A0";
shapes = (
{
closed = 1;
nodes = (
(247,0,ls),
(465,0,o),
(534,74,o),
(554,260,cs),
(584,552,ls),
(604,736,o),
(551,810,o),
(331,810,cs),
(119,810,l),
(34,0,l)
);
},
{
closed = 1;
nodes = (
(300,675,l),
(320,675,ls),
(390,675,o),
(395,652,o),
(389,594,cs),
(349,219,ls),
(342,160,o),
(334,135,o),
(264,135,cs),
(244,135,l)
);
}
);
width = 599;
},
{
anchors = (
{
name = bottom;
pos = (263,0);
},
{
name = center;
pos = (263,405);
},
{
name = top;
pos = (263,810);
}
);
background = {
shapes = (
{
closed = 1;
nodes = (
(225,0,ls),
(394,0,o),
(463,93,o),
(481,263,cs),
(513,563,ls),
(530,726,o),
(480,810,o),
(301,810,cs),
(125,810,l),
(40,0,l)
);
},
{
closed = 1;
nodes = (
(226,729,l),
(291,729,ls),
(408,729,o),
(414,675,o),
(401,551,cs),
(373,284,ls),
(359,154,o),
(349,79,o),
(225,79,cs),
(158,79,l)
);
}
);
};
layerId = "43161617-4660-4075-B14A-1D8E25AEE542";
shapes = (
{
closed = 1;
nodes = (
(225,0,ls),
(394,0,o),
(463,93,o),
(481,263,cs),
(513,563,ls),
(530,726,o),
(480,810,o),
(301,810,cs),
(125,810,l),
(40,0,l)
);
},
{
closed = 1;
nodes = (
(226,729,l),
(291,729,ls),
(408,729,o),
(414,675,o),
(401,551,cs),
(373,284,ls),
(359,154,o),
(349,79,o),
(225,79,cs),
(158,79,l)
);
}
);
width = 526;
}
);
unicode = 68;
userData = {
com.fontlab.hintData = {
hhints = (
{
position = 0;
width = 56;
},
{
position = 1602;
width = 56;
}
);
};
};
},
{
glyphname = DZ;
lastChange = "2023-07-06 13:12:48 +0000";
layers = (
{
background = {
shapes = (
{
closed = 1;
nodes = (
(361,0,l),
(366,43,l),
(70,43,l),
(442,776,l),
(445,810,l),
(122,810,l),
(117,767,l),
(382,767,l),
(15,43,l),
(10,0,l)
);
},
{
closed = 1;
nodes = (
(637,0,ls),
(794,0,o),
(850,102,o),
(865,241,cs),
(900,577,ls),
(914,707,o),
(879,810,o),
(717,810,cs),
(540,810,l),
(455,0,l)
);
},
{
closed = 1;
nodes = (
(590,766,l),
(713,766,ls),
(837,766,o),
(857,691,o),
(845,573,cs),
(811,247,ls),
(799,137,o),
(770,43,o),
(639,43,cs),
(514,43,l)
);
}
);
};
layerId = "6D1B020D-7C4E-4885-9208-B35BA480FE8F";
shapes = (
{
ref = Z;
},
{
pos = (401,0);
ref = D;
}
);
width = 918;
},
{
background = {
shapes = (
{
closed = 1;
nodes = (
(386,0,l),
(399,130,l),
(208,130,l),
(457,697,l),
(468,810,l),
(98,810,l),
(84,679,l),
(265,679,l),
(18,114,l),
(6,0,l)
);
},
{
closed = 1;
nodes = (
(684,0,ls),
(902,0,o),
(971,74,o),
(991,260,cs),
(1021,552,ls),
(1041,736,o),
(988,810,o),
(768,810,cs),
(556,810,l),
(471,0,l)
);
},
{
closed = 1;
nodes = (
(737,675,l),
(757,675,ls),
(827,675,o),
(832,652,o),
(826,594,cs),
(786,219,ls),
(779,160,o),
(771,135,o),
(701,135,cs),
(681,135,l)
);
}
);
};
layerId = "BF03A18F-065F-4249-8E16-486B9CB494A0";
shapes = (
{
ref = Z;
},
{
pos = (437,0);
ref = D;
}
);
width = 1036;
},
{
background = {
shapes = (
{
closed = 1;
nodes = (
(372,0,l),
(380,79,l),
(126,79,l),
(451,762,l),
(457,810,l),
(114,810,l),
(106,731,l),
(332,731,l),
(22,79,l),
(14,0,l)
);
},
{
closed = 1;
nodes = (
(641,0,ls),
(810,0,o),
(879,93,o),
(897,263,cs),
(929,563,ls),
(946,726,o),
(896,810,o),
(717,810,cs),
(541,810,l),
(456,0,l)
);
},
{
closed = 1;
nodes = (
(642,729,l),
(707,729,ls),
(824,729,o),
(830,675,o),
(817,551,cs),
(789,284,ls),
(775,154,o),
(765,79,o),
(641,79,cs),
(574,79,l)
);
}
);
};
layerId = "43161617-4660-4075-B14A-1D8E25AEE542";
shapes = (
{
ref = Z;
},
{
pos = (416,0);
ref = D;
}
);
width = 942;
}
);
unicode = 497;
userData = {
com.fontlab.hintData = {
hhints = (
{
position = 0;
width = 56;
},
{
position = 1602;
width = 56;
}
);
};
};
},
{
glyphname = DZcaron;
lastChange = "2023-07-06 13:12:48 +0000";
layers = (
{
background = {
shapes = (
{
closed = 1;
nodes = (
(236,0,ls),
(393,0,o),
(449,102,o),
(464,241,cs),
(499,577,ls),
(513,707,o),
(478,810,o),
(316,810,cs),
(139,810,l),
(54,0,l)
);
},
{
closed = 1;
nodes = (
(189,766,l),
(312,766,ls),
(436,766,o),
(456,691,o),
(444,573,cs),
(410,247,ls),
(398,137,o),
(369,43,o),
(238,43,cs),
(113,43,l)
);
},
{
closed = 1;
nodes = (
(878,0,l),
(883,43,l),
(587,43,l),
(959,776,l),
(962,810,l),
(639,810,l),
(634,767,l),
(899,767,l),
(532,43,l),
(527,0,l)
);
}
);
};
layerId = "6D1B020D-7C4E-4885-9208-B35BA480FE8F";
shapes = (
{
ref = D;
},
{
pos = (517,0);
ref = Zcaron;
}
);
width = 918;
},
{
background = {
shapes = (
{
closed = 1;
nodes = (
(247,0,ls),
(465,0,o),
(534,74,o),
(554,260,cs),
(584,552,ls),
(604,736,o),
(551,810,o),
(331,810,cs),
(119,810,l),
(34,0,l)
);
},
{
closed = 1;
nodes = (
(300,675,l),
(320,675,ls),
(390,675,o),
(395,652,o),
(389,594,cs),
(349,219,ls),
(342,160,o),
(334,135,o),
(264,135,cs),
(244,135,l)
);
},
{
closed = 1;
nodes = (
(985,0,l),
(998,130,l),
(807,130,l),
(1056,697,l),
(1067,810,l),
(697,810,l),
(683,679,l),
(864,679,l),
(617,114,l),
(605,0,l)
);
}
);
};
layerId = "BF03A18F-065F-4249-8E16-486B9CB494A0";
shapes = (
{
ref = D;
},
{
pos = (599,0);
ref = Zcaron;
}
);
width = 1036;
},
{
background = {
shapes = (
{
closed = 1;
nodes = (
(225,0,ls),
(394,0,o),
(463,93,o),
(481,263,cs),
(513,563,ls),
(530,726,o),
(480,810,o),
(301,810,cs),
(125,810,l),
(40,0,l)
);
},
{
closed = 1;
nodes = (
(226,729,l),
(291,729,ls),
(408,729,o),
(414,675,o),
(401,551,cs),
(373,284,ls),
(359,154,o),
(349,79,o),
(225,79,cs),
(158,79,l)
);
},
{
closed = 1;
nodes = (
(898,0,l),
(906,79,l),
(652,79,l),
(977,762,l),
(983,810,l),
(640,810,l),
(632,731,l),
(858,731,l),
(548,79,l),
(540,0,l)
);
}
);
};
layerId = "43161617-4660-4075-B14A-1D8E25AEE542";
shapes = (
{
ref = D;
},
{
pos = (526,0);
ref = Zcaron;
}
);
width = 942;
}
);
unicode = 452;
userData = {
com.fontlab.hintData = {
hhints = (
{
position = 0;
width = 56;
},
{
position = 1602;
width = 56;
}
);
};
};
},
{
glyphname = Dcaron;
lastChange = "2023-07-06 13:12:48 +0000";
layers = (
{
background = {
shapes = (
{
closed = 1;
nodes = (
(236,0,ls),
(393,0,o),
(449,102,o),
(464,241,cs),
(499,577,ls),
(513,707,o),
(478,810,o),
(316,810,cs),
(139,810,l),
(54,0,l)
);
},
{
closed = 1;
nodes = (
(189,766,l),
(312,766,ls),
(436,766,o),
(456,691,o),
(444,573,cs),
(410,247,ls),
(398,137,o),
(369,43,o),
(238,43,cs),
(113,43,l)
);
}
);
};
layerId = "6D1B020D-7C4E-4885-9208-B35BA480FE8F";
shapes = (
{
ref = D;
}
);
width = 517;
},
{
background = {
shapes = (
{
closed = 1;
nodes = (
(247,0,ls),
(465,0,o),
(534,74,o),
(554,260,cs),
(584,552,ls),
(604,736,o),
(551,810,o),
(331,810,cs),
(119,810,l),
(34,0,l)
);
},
{
closed = 1;
nodes = (
(300,675,l),
(320,675,ls),
(390,675,o),
(395,652,o),
(389,594,cs),
(349,219,ls),
(342,160,o),
(334,135,o),
(264,135,cs),
(244,135,l)
);
}
);
};
layerId = "BF03A18F-065F-4249-8E16-486B9CB494A0";
shapes = (
{
ref = D;
}
);
width = 599;
},
{
background = {
shapes = (
{
closed = 1;
nodes = (
(225,0,ls),
(394,0,o),
(463,93,o),
(481,263,cs),
(513,563,ls),
(530,726,o),
(480,810,o),
(301,810,cs),
(125,810,l),
(40,0,l)
);
},
{
closed = 1;
nodes = (
(226,729,l),
(291,729,ls),
(408,729,o),
(414,675,o),
(401,551,cs),
(373,284,ls),
(359,154,o),
(349,79,o),
(225,79,cs),
(158,79,l)
);
}
);
};
layerId = "43161617-4660-4075-B14A-1D8E25AEE542";
shapes = (
{
ref = D;
}
);
width = 526;
}
);
unicode = 270;
userData = {
com.fontlab.hintData = {
hhints = (
{
position = 0;
width = 56;
},
{
position = 1602;
width = 56;
}
);
};
};
},
{
glyphname = Dcroat;
lastChange = "2023-07-06 13:12:39 +0000";
layers = (
{
background = {
shapes = (
{
closed = 1;
nodes = (
(237,0,ls),
(393,0,o),
(450,102,o),
(465,241,cs),
(500,577,ls),
(513,707,o),
(478,810,o),
(317,810,cs),
(139,810,l),
(101,445,l),
(36,445,l),
(32,408,l),
(98,408,l),
(54,0,l)
);
},
{
closed = 1;
nodes = (
(152,408,l),
(246,408,l),
(250,445,l),
(156,445,l),
(189,766,l),
(312,766,ls),
(437,766,o),
(457,691,o),
(444,573,cs),
(410,247,ls),
(398,137,o),
(370,43,o),
(239,43,cs),
(114,43,l)
);
}
);
};
layerId = "6D1B020D-7C4E-4885-9208-B35BA480FE8F";
shapes = (
{
closed = 1;
nodes = (
(237,0,ls),
(393,0,o),
(450,102,o),
(465,241,cs),
(500,577,ls),
(513,707,o),
(478,810,o),
(317,810,cs),
(139,810,l),
(101,445,l),
(36,445,l),
(32,408,l),
(98,408,l),
(54,0,l)
);
},
{
closed = 1;
nodes = (
(152,408,l),
(246,408,l),
(250,445,l),
(156,445,l),
(189,766,l),
(312,766,ls),
(437,766,o),
(457,691,o),
(444,573,cs),
(410,247,ls),
(398,137,o),
(370,43,o),
(239,43,cs),
(114,43,l)
);
}
);
width = 518;
},
{
background = {
shapes = (
{
closed = 1;
nodes = (
(252,0,ls),
(471,0,o),
(540,74,o),
(559,260,cs),
(589,552,ls),
(609,736,o),
(556,810,o),
(336,810,cs),
(125,810,l),
(87,457,l),
(35,457,l),
(26,371,l),
(78,371,l),
(40,0,l)
);
},
{
closed = 1;
nodes = (
(268,371,l),
(314,371,l),
(323,457,l),
(277,457,l),
(300,675,l),
(330,675,ls),
(399,675,o),
(404,652,o),
(398,594,cs),
(359,219,ls),
(352,160,o),
(344,135,o),
(273,135,cs),
(243,135,l)
);
}
);
};
layerId = "BF03A18F-065F-4249-8E16-486B9CB494A0";
shapes = (
{
closed = 1;
nodes = (
(252,0,ls),
(471,0,o),
(540,74,o),
(559,260,cs),
(589,552,ls),
(609,736,o),
(556,810,o),
(336,810,cs),
(125,810,l),
(87,457,l),
(35,457,l),
(26,371,l),
(78,371,l),
(40,0,l)
);
},
{
closed = 1;
nodes = (
(268,371,l),
(314,371,l),
(323,457,l),
(277,457,l),
(300,675,l),
(330,675,ls),
(399,675,o),
(404,652,o),
(398,594,cs),
(359,219,ls),
(352,160,o),
(344,135,o),
(273,135,cs),
(243,135,l)
);
}
);
width = 604;
},
{
background = {
shapes = (
{
closed = 1;
nodes = (
(227,0,ls),
(396,0,o),
(466,93,o),
(483,263,cs),
(515,563,ls),
(532,726,o),
(482,810,o),
(304,810,cs),
(127,810,l),
(90,452,l),
(40,452,l),
(33,389,l),
(83,389,l),
(42,0,l)
);
},
{
closed = 1;
nodes = (
(193,389,l),
(255,389,l),
(262,452,l),
(199,452,l),
(229,729,l),
(293,729,ls),
(410,729,o),
(416,675,o),
(403,551,cs),
(375,284,ls),
(362,154,o),
(351,79,o),
(227,79,cs),
(160,79,l)
);
}
);
};
layerId = "43161617-4660-4075-B14A-1D8E25AEE542";
shapes = (
{
closed = 1;
nodes = (
(227,0,ls),
(396,0,o),
(466,93,o),
(483,263,cs),
(515,563,ls),
(532,726,o),
(482,810,o),
(304,810,cs),
(127,810,l),
(90,452,l),
(40,452,l),
(33,389,l),
(83,389,l),
(42,0,l)
);
},
{
closed = 1;
nodes = (
(193,389,l),
(255,389,l),
(262,452,l),
(199,452,l),
(229,729,l),
(293,729,ls),
(410,729,o),
(416,675,o),
(403,551,cs),
(375,284,ls),
(362,154,o),
(351,79,o),
(227,79,cs),
(160,79,l)
);
}
);
width = 528;
}
);
unicode = 272;
userData = {
com.fontlab.hintData = {
hhints = (
{
position = 0;
width = 56;
},
{
position = 1602;
width = 56;
}
);
};
};
},
{
glyphname = Ddotaccent;
lastChange = "2023-07-06 13:12:48 +0000";
layers = (
{
background = {
shapes = (
{
closed = 1;
nodes = (
(236,0,ls),
(393,0,o),
(449,102,o),
(464,241,cs),
(499,577,ls),
(513,707,o),
(478,810,o),
(316,810,cs),
(139,810,l),
(54,0,l)
);
},
{
closed = 1;
nodes = (
(189,766,l),
(312,766,ls),
(436,766,o),
(456,691,o),
(444,573,cs),
(410,247,ls),
(398,137,o),
(369,43,o),
(238,43,cs),
(113,43,l)
);
}
);
};
layerId = "6D1B020D-7C4E-4885-9208-B35BA480FE8F";
shapes = (
{
ref = D;
}
);
width = 517;
},
{
background = {
shapes = (
{
closed = 1;
nodes = (
(247,0,ls),
(465,0,o),
(534,74,o),
(554,260,cs),
(584,552,ls),
(604,736,o),
(551,810,o),
(331,810,cs),
(119,810,l),
(34,0,l)
);
},
{
closed = 1;
nodes = (
(300,675,l),
(320,675,ls),
(390,675,o),
(395,652,o),
(389,594,cs),
(349,219,ls),
(342,160,o),
(334,135,o),
(264,135,cs),
(244,135,l)
);
}
);
};
layerId = "BF03A18F-065F-4249-8E16-486B9CB494A0";
shapes = (
{
ref = D;
}
);
width = 599;
},
{
background = {
shapes = (
{
closed = 1;
nodes = (
(225,0,ls),
(394,0,o),
(463,93,o),
(481,263,cs),
(513,563,ls),
(530,726,o),
(480,810,o),
(301,810,cs),
(125,810,l),
(40,0,l)
);
},
{
closed = 1;
nodes = (
(226,729,l),
(291,729,ls),
(408,729,o),
(414,675,o),
(401,551,cs),
(373,284,ls),
(359,154,o),
(349,79,o),
(225,79,cs),
(158,79,l)
);
}
);
};
layerId = "43161617-4660-4075-B14A-1D8E25AEE542";
shapes = (
{
ref = D;
}
);
width = 526;
}
);
unicode = 7690;
userData = {
com.fontlab.hintData = {
hhints = (
{
position = 0;
width = 56;
},
{
position = 1602;
width = 56;
},
{
position = 1800;
width = 161;
}
);
};
};
},
{
glyphname = Dz;
lastChange = "2023-07-06 13:12:48 +0000";
layers = (
{
background = {
shapes = (
{
closed = 1;
nodes = (
(271,0,l),
(275,41,l),
(72,41,l),
(332,543,l),
(335,578,l),
(94,578,l),
(90,537,l),
(277,537,l),
(16,39,l),
(12,0,l)
);
},
{
closed = 1;
nodes = (
(561,0,ls),
(718,0,o),
(774,102,o),
(789,241,cs),
(824,577,ls),
(838,707,o),
(803,810,o),
(641,810,cs),
(464,810,l),
(379,0,l)
);
},
{
closed = 1;
nodes = (
(514,766,l),
(637,766,ls),
(761,766,o),
(781,691,o),
(769,573,cs),
(735,247,ls),
(723,137,o),
(694,43,o),
(563,43,cs),
(438,43,l)
);
}
);
};
layerId = "6D1B020D-7C4E-4885-9208-B35BA480FE8F";
shapes = (
{
ref = z;
},
{
pos = (325,0);
ref = D;
}
);
width = 842;
},
{
background = {
shapes = (
{
closed = 1;
nodes = (
(353,0,l),
(366,129,l),
(207,129,l),
(397,469,l),
(409,578,l),
(83,578,l),
(69,450,l),
(214,450,l),
(23,113,l),
(11,0,l)
);
},
{
closed = 1;
nodes = (
(650,0,ls),
(868,0,o),
(937,74,o),
(957,260,cs),
(987,552,ls),
(1007,736,o),
(954,810,o),
(734,810,cs),
(522,810,l),
(437,0,l)
);
},
{
closed = 1;
nodes = (
(703,675,l),
(723,675,ls),
(793,675,o),
(798,652,o),
(792,594,cs),
(752,219,ls),
(745,160,o),
(737,135,o),
(667,135,cs),
(647,135,l)
);
}
);
};
layerId = "BF03A18F-065F-4249-8E16-486B9CB494A0";
shapes = (
{
ref = z;
},
{
pos = (403,0);
ref = D;
}
);
width = 1002;
},
{
background = {
shapes = (
{
closed = 1;
nodes = (
(294,0,l),
(303,78,l),
(127,78,l),
(353,521,l),
(359,578,l),
(87,578,l),
(79,500,l),
(240,500,l),
(16,70,l),
(8,0,l)
);
},
{
closed = 1;
nodes = (
(570,0,ls),
(739,0,o),
(808,93,o),
(826,263,cs),
(858,563,ls),
(875,726,o),
(825,810,o),
(646,810,cs),
(470,810,l),
(385,0,l)
);
},
{
closed = 1;
nodes = (
(571,729,l),
(636,729,ls),
(753,729,o),
(759,675,o),
(746,551,cs),
(718,284,ls),
(704,154,o),
(694,79,o),
(570,79,cs),
(503,79,l)
);
}
);
};
layerId = "43161617-4660-4075-B14A-1D8E25AEE542";
shapes = (
{
ref = z;
},
{
pos = (345,0);
ref = D;
}
);
width = 871;
}
);
unicode = 498;
userData = {
com.fontlab.hintData = {
hhints = (
{
position = 0;
width = 56;
},
{
position = 1602;
width = 56;
}
);
};
};
},
{
glyphname = Dzcaron;
lastChange = "2023-07-06 13:12:48 +0000";
layers = (
{
background = {
shapes = (
{
closed = 1;
nodes = (
(236,0,ls),
(393,0,o),
(449,102,o),
(464,241,cs),
(499,577,ls),
(513,707,o),
(478,810,o),
(316,810,cs),
(139,810,l),
(54,0,l)
);
},
{
closed = 1;
nodes = (
(189,766,l),
(312,766,ls),
(436,766,o),
(456,691,o),
(444,573,cs),
(410,247,ls),
(398,137,o),
(369,43,o),
(238,43,cs),
(113,43,l)
);
},
{
closed = 1;
nodes = (
(788,0,l),
(792,41,l),
(589,41,l),
(849,543,l),
(852,578,l),
(611,578,l),
(607,537,l),
(794,537,l),
(533,39,l),
(529,0,l)
);
}
);
};
layerId = "6D1B020D-7C4E-4885-9208-B35BA480FE8F";
shapes = (
{
ref = D;
},
{
pos = (517,0);
ref = zcaron;
}
);
width = 842;
},
{
background = {
shapes = (
{
closed = 1;
nodes = (
(247,0,ls),
(465,0,o),
(534,74,o),
(554,260,cs),
(584,552,ls),
(604,736,o),
(551,810,o),
(331,810,cs),
(119,810,l),
(34,0,l)
);
},
{
closed = 1;
nodes = (
(300,675,l),
(320,675,ls),
(390,675,o),
(395,652,o),
(389,594,cs),
(349,219,ls),
(342,160,o),
(334,135,o),
(264,135,cs),
(244,135,l)
);
},
{
closed = 1;
nodes = (
(952,0,l),
(965,129,l),
(806,129,l),
(996,469,l),
(1008,578,l),
(682,578,l),
(668,450,l),
(813,450,l),
(622,113,l),
(610,0,l)
);
}
);
};
layerId = "BF03A18F-065F-4249-8E16-486B9CB494A0";
shapes = (
{
ref = D;
},
{
pos = (599,0);
ref = zcaron;
}
);
width = 1002;
},
{
background = {
shapes = (
{
closed = 1;
nodes = (
(225,0,ls),
(394,0,o),
(463,93,o),
(481,263,cs),
(513,563,ls),
(530,726,o),
(480,810,o),
(301,810,cs),
(125,810,l),
(40,0,l)
);
},
{
closed = 1;
nodes = (
(226,729,l),
(291,729,ls),
(408,729,o),
(414,675,o),
(401,551,cs),
(373,284,ls),
(359,154,o),
(349,79,o),
(225,79,cs),
(158,79,l)
);
},
{
closed = 1;
nodes = (
(820,0,l),
(829,78,l),
(653,78,l),
(879,521,l),
(885,578,l),
(613,578,l),
(605,500,l),
(766,500,l),
(542,70,l),
(534,0,l)
);
}
);
};
layerId = "43161617-4660-4075-B14A-1D8E25AEE542";
shapes = (
{
ref = D;
},
{
pos = (526,0);
ref = zcaron;
}
);
width = 871;
}
);
unicode = 453;
userData = {
com.fontlab.hintData = {
hhints = (
{
position = 0;
width = 56;
},
{
position = 1602;
width = 56;
}
);
};
};
},
{
glyphname = Eth;
lastChange = "2023-07-06 13:12:39 +0000";
layers = (
{
background = {
shapes = (
{
closed = 1;
nodes = (
(236,0,ls),
(393,0,o),
(449,102,o),
(464,241,cs),
(499,577,ls),
(513,707,o),
(478,810,o),
(316,810,cs),
(139,810,l),
(101,445,l),
(35,445,l),
(31,408,l),
(97,408,l),
(54,0,l)
);
},
{
closed = 1;
nodes = (
(152,408,l),
(245,408,l),
(249,445,l),
(155,445,l),
(189,766,l),
(312,766,ls),
(436,766,o),
(456,691,o),
(444,573,cs),
(410,247,ls),
(398,137,o),
(369,43,o),
(238,43,cs),
(113,43,l)
);
}
);
};
layerId = "6D1B020D-7C4E-4885-9208-B35BA480FE8F";
shapes = (
{
closed = 1;
nodes = (
(236,0,ls),
(393,0,o),
(449,102,o),
(464,241,cs),
(499,577,ls),
(513,707,o),
(478,810,o),
(316,810,cs),
(139,810,l),
(101,445,l),
(35,445,l),
(31,408,l),
(97,408,l),
(54,0,l)
);
},
{
closed = 1;
nodes = (
(152,408,l),
(245,408,l),
(249,445,l),
(155,445,l),
(189,766,l),
(312,766,ls),
(436,766,o),
(456,691,o),
(444,573,cs),
(410,247,ls),
(398,137,o),
(369,43,o),
(238,43,cs),
(113,43,l)
);
}
);
width = 561;
},
{
background = {
shapes = (
{
closed = 1;
nodes = (
(237,0,ls),
(456,0,o),
(524,74,o),
(544,260,cs),
(575,552,ls),
(594,736,o),
(541,810,o),
(321,810,cs),
(109,810,l),
(73,461,l),
(30,461,l),
(20,366,l),
(63,366,l),
(24,0,l)
);
},
{
closed = 1;
nodes = (
(258,366,l),
(294,366,l),
(304,461,l),
(268,461,l),
(290,675,l),
(310,675,ls),
(380,675,o),
(385,652,o),
(378,594,cs),
(339,219,ls),
(333,160,o),
(324,135,o),
(253,135,cs),
(233,135,l)
);
}
);
};
layerId = "BF03A18F-065F-4249-8E16-486B9CB494A0";
shapes = (
{
closed = 1;
nodes = (
(237,0,ls),
(456,0,o),
(524,74,o),
(544,260,cs),
(575,552,ls),
(594,736,o),
(541,810,o),
(321,810,cs),
(109,810,l),
(73,461,l),
(30,461,l),
(20,366,l),
(63,366,l),
(24,0,l)
);
},
{
closed = 1;
nodes = (
(258,366,l),
(294,366,l),
(304,461,l),
(268,461,l),
(290,675,l),
(310,675,ls),
(380,675,o),
(385,652,o),
(378,594,cs),
(339,219,ls),
(333,160,o),
(324,135,o),
(253,135,cs),
(233,135,l)
);
}
);
width = 573;
},
{
background = {
shapes = (
{
closed = 1;
nodes = (
(225,0,ls),
(394,0,o),
(463,93,o),
(481,263,cs),
(513,563,ls),
(530,726,o),
(480,810,o),
(301,810,cs),
(125,810,l),
(88,452,l),
(38,452,l),
(31,389,l),
(81,389,l),
(40,0,l)
);
},
{
closed = 1;
nodes = (
(190,389,l),
(253,389,l),
(260,452,l),
(197,452,l),
(226,729,l),
(291,729,ls),
(408,729,o),
(414,675,o),
(401,551,cs),
(373,284,ls),
(359,154,o),
(349,79,o),
(225,79,cs),
(158,79,l)
);
}
);
};
layerId = "43161617-4660-4075-B14A-1D8E25AEE542";
shapes = (
{
closed = 1;
nodes = (
(225,0,ls),
(394,0,o),
(463,93,o),
(481,263,cs),
(513,563,ls),
(530,726,o),
(480,810,o),
(301,810,cs),
(125,810,l),
(88,452,l),
(38,452,l),
(31,389,l),
(81,389,l),
(40,0,l)
);
},
{
closed = 1;
nodes = (
(190,389,l),
(253,389,l),
(260,452,l),
(197,452,l),
(226,729,l),
(291,729,ls),
(408,729,o),
(414,675,o),
(401,551,cs),
(373,284,ls),
(359,154,o),
(349,79,o),
(225,79,cs),
(158,79,l)
);
}
);
width = 521;
}
);
unicode = 208;
userData = {
com.fontlab.hintData = {
hhints = (
{
position = 0;
width = 56;
},
{
position = 1602;
width = 56;
}
);
};
};
},
{
glyphname = E;
lastChange = "2023-07-06 13:19:38 +0000";
layers = (
{
anchors = (
{
name = bottom;
pos = (197,0);
},
{
name = ogonek;
pos = (354,10);
},
{
name = top;
pos = (285,810);
},
{
name = topleft;
pos = (20,810);
}
);
background = {
shapes = (
{
closed = 1;
nodes = (
(336,0,l),
(341,43,l),
(113,43,l),
(150,399,l),
(335,399,l),
(339,441,l),
(154,441,l),
(188,766,l),
(414,766,l),
(418,810,l),
(138,810,l),
(53,0,l)
);
}
);
};
layerId = "6D1B020D-7C4E-4885-9208-B35BA480FE8F";
shapes = (
{
closed = 1;
nodes = (
(336,0,l),
(341,43,l),
(113,43,l),
(150,399,l),
(335,399,l),
(339,441,l),
(154,441,l),
(188,766,l),
(414,766,l),
(418,810,l),
(138,810,l),
(53,0,l)
);
}
);
width = 393;
},
{
anchors = (
{
name = bottom;
pos = (229,0);
},
{
name = ogonek;
pos = (412,10);
},
{
name = top;
pos = (301,810);
},
{
name = topleft;
pos = (20,810);
}
);
background = {
shapes = (
{
closed = 1;
nodes = (
(413,0,l),
(427,130,l),
(243,130,l),
(267,359,l),
(403,359,l),
(417,495,l),
(281,495,l),
(300,678,l),
(482,678,l),
(496,810,l),
(119,810,l),
(34,0,l)
);
}
);
};
layerId = "BF03A18F-065F-4249-8E16-486B9CB494A0";
shapes = (
{
closed = 1;
nodes = (
(413,0,l),
(427,130,l),
(243,130,l),
(267,359,l),
(403,359,l),
(417,495,l),
(281,495,l),
(300,678,l),
(482,678,l),
(496,810,l),
(119,810,l),
(34,0,l)
);
}
);
width = 458;
},
{
anchors = (
{
name = bottom;
pos = (203,0);
},
{
name = ogonek;
pos = (365,10);
},
{
name = top;
pos = (274,810);
},
{
name = topleft;
pos = (20,810);
}
);
background = {
shapes = (
{
closed = 1;
nodes = (
(354,0,l),
(363,79,l),
(158,79,l),
(189,379,l),
(354,379,l),
(362,458,l),
(197,458,l),
(226,729,l),
(428,729,l),
(437,810,l),
(125,810,l),
(40,0,l)
);
}
);
};
layerId = "43161617-4660-4075-B14A-1D8E25AEE542";
shapes = (
{
closed = 1;
nodes = (
(354,0,l),
(363,79,l),
(158,79,l),
(189,379,l),
(354,379,l),
(362,458,l),
(197,458,l),
(226,729,l),
(428,729,l),
(437,810,l),
(125,810,l),
(40,0,l)
);
}
);
width = 406;
}
);
unicode = 69;
},
{
glyphname = Eacute;
lastChange = "2023-07-06 13:19:38 +0000";
layers = (
{
background = {
shapes = (
{
closed = 1;
nodes = (
(241,879,l),
(351,1073,l),
(298,1073,l),
(213,879,l)
);
},
{
closed = 1;
nodes = (
(336,0,l),
(341,43,l),
(113,43,l),
(150,399,l),
(335,399,l),
(339,441,l),
(154,441,l),
(188,766,l),
(414,766,l),
(418,810,l),
(138,810,l),
(53,0,l)
);
}
);
};
layerId = "6D1B020D-7C4E-4885-9208-B35BA480FE8F";
shapes = (
{
ref = E;
},
{
pos = (241,232);
ref = acutecomb;
}
);
width = 393;
},
{
background = {
shapes = (
{
closed = 1;
nodes = (
(308,881,l),
(458,1084,l),
(277,1084,l),
(194,881,l)
);
},
{
closed = 1;
nodes = (
(413,0,l),
(427,130,l),
(243,130,l),
(267,359,l),
(403,359,l),
(417,495,l),
(281,495,l),
(300,678,l),
(482,678,l),
(496,810,l),
(119,810,l),
(34,0,l)
);
}
);
};
layerId = "BF03A18F-065F-4249-8E16-486B9CB494A0";
shapes = (
{
ref = E;
},
{
pos = (196,232);
ref = acutecomb;
}
);
width = 458;
},
{
background = {
shapes = (
{
closed = 1;
nodes = (
(257,877,l),
(388,1075,l),
(284,1075,l),
(204,877,l)
);
},
{
closed = 1;
nodes = (
(354,0,l),
(363,79,l),
(158,79,l),
(189,379,l),
(354,379,l),
(362,458,l),
(197,458,l),
(226,729,l),
(428,729,l),
(437,810,l),
(125,810,l),
(40,0,l)
);
}
);
};
layerId = "43161617-4660-4075-B14A-1D8E25AEE542";
shapes = (
{
ref = E;
},
{
pos = (206,232);
ref = acutecomb;
}
);
width = 406;
}
);
unicode = 201;
userData = {
com.fontlab.hintData = {
hhints = (
{
position = 1800;
width = 394;
}
);
};
};
},
{
glyphname = Ebreve;
lastChange = "2023-07-06 13:12:48 +0000";
layers = (
{
background = {
shapes = (
{
closed = 1;
nodes = (
(336,0,l),
(341,43,l),
(113,43,l),
(150,399,l),
(335,399,l),
(339,441,l),
(154,441,l),
(188,766,l),
(414,766,l),
(418,810,l),
(138,810,l),
(53,0,l)
);
},
{
closed = 1;
nodes = (
(693,699,o),
(741,734,o),
(752,810,c),
(715,810,l),
(706,752,o),
(671,733,o),
(629,733,cs),
(587,733,o),
(557,752,o),
(561,810,c),
(524,810,l),
(519,734,o),
(559,699,o),
(625,699,cs)
);
}
);
};
layerId = "6D1B020D-7C4E-4885-9208-B35BA480FE8F";
shapes = (
{
ref = E;
},
{
pos = (393,0);
ref = breve;
}
);
width = 752;
},
{
background = {
shapes = (
{
closed = 1;
nodes = (
(413,0,l),
(427,130,l),
(243,130,l),
(267,359,l),
(403,359,l),
(417,495,l),
(281,495,l),
(300,678,l),
(482,678,l),
(496,810,l),
(119,810,l),
(34,0,l)
);
},
{
closed = 1;
nodes = (
(732,692,o),
(789,732,o),
(796,810,c),
(724,810,l),
(721,776,o),
(704,759,o),
(664,759,cs),
(624,759,o),
(611,775,o),
(615,810,c),
(542,810,l),
(535,732,o),
(583,692,o),
(657,692,cs)
);
}
);
};
layerId = "BF03A18F-065F-4249-8E16-486B9CB494A0";
shapes = (
{
ref = E;
},
{
pos = (458,0);
ref = breve;
}
);
width = 778;
},
{
background = {
shapes = (
{
closed = 1;
nodes = (
(354,0,l),
(363,79,l),
(158,79,l),
(189,379,l),
(354,379,l),
(362,458,l),
(197,458,l),
(226,729,l),
(428,729,l),
(437,810,l),
(125,810,l),
(40,0,l)
);
},
{
closed = 1;
nodes = (
(731,664,o),
(764,727,o),
(773,810,c),
(711,810,l),
(704,747,o),
(682,722,o),
(633,722,cs),
(583,722,o),
(567,747,o),
(573,810,c),
(511,810,l),
(504,727,o),
(523,664,o),
(627,664,cs)
);
}
);
};
layerId = "43161617-4660-4075-B14A-1D8E25AEE542";
shapes = (
{
ref = E;
},
{
pos = (406,0);
ref = breve;
}
);
width = 755;
}
);
unicode = 276;
userData = {
com.fontlab.hintData = {
hhints = (
{
position = 1800;
width = 48;
}
);
vhints = (
{
position = 311;
width = 54;
},
{
position = 695;
width = 54;
}
);
};
};
},
{
glyphname = Ecaron;
lastChange = "2023-07-06 13:12:48 +0000";
layers = (
{
background = {
shapes = (
{
closed = 1;
nodes = (
(336,0,l),
(341,43,l),
(113,43,l),
(150,399,l),
(335,399,l),
(339,441,l),
(154,441,l),
(188,766,l),
(414,766,l),
(418,810,l),
(138,810,l),
(53,0,l)
);
}
);
};
layerId = "6D1B020D-7C4E-4885-9208-B35BA480FE8F";
shapes = (
{
ref = E;
}
);
width = 393;
},
{
background = {
shapes = (
{
closed = 1;
nodes = (
(413,0,l),
(427,130,l),
(243,130,l),
(267,359,l),
(403,359,l),
(417,495,l),
(281,495,l),
(300,678,l),
(482,678,l),
(496,810,l),
(119,810,l),
(34,0,l)
);
}
);
};
layerId = "BF03A18F-065F-4249-8E16-486B9CB494A0";
shapes = (
{
ref = E;
}
);
width = 458;
},
{
background = {
shapes = (
{
closed = 1;
nodes = (
(354,0,l),
(363,79,l),
(158,79,l),
(189,379,l),
(354,379,l),
(362,458,l),
(197,458,l),
(226,729,l),
(428,729,l),
(437,810,l),
(125,810,l),
(40,0,l)
);
}
);
};
layerId = "43161617-4660-4075-B14A-1D8E25AEE542";
shapes = (
{
ref = E;
}
);
width = 406;
}
);
unicode = 282;
userData = {
com.fontlab.hintData = {
hhints = (
{
position = 1806;
width = 389;
}
);
};
};
},
{
glyphname = Ecircumflex;
lastChange = "2023-07-06 13:12:48 +0000";
layers = (
{
background = {
shapes = (
{
closed = 1;
nodes = (
(336,0,l),
(341,43,l),
(113,43,l),
(150,399,l),
(335,399,l),
(339,441,l),
(154,441,l),
(188,766,l),
(414,766,l),
(418,810,l),
(138,810,l),
(53,0,l)
);
}
);
};
layerId = "6D1B020D-7C4E-4885-9208-B35BA480FE8F";
shapes = (
{
ref = E;
}
);
width = 393;
},
{
background = {
shapes = (
{
closed = 1;
nodes = (
(413,0,l),
(427,130,l),
(243,130,l),
(267,359,l),
(403,359,l),
(417,495,l),
(281,495,l),
(300,678,l),
(482,678,l),
(496,810,l),
(119,810,l),
(34,0,l)
);
}
);
};
layerId = "BF03A18F-065F-4249-8E16-486B9CB494A0";
shapes = (
{
ref = E;
}
);
width = 458;
},
{
background = {
shapes = (
{
closed = 1;
nodes = (
(354,0,l),
(363,79,l),
(158,79,l),
(189,379,l),
(354,379,l),
(362,458,l),
(197,458,l),
(226,729,l),
(428,729,l),
(437,810,l),
(125,810,l),
(40,0,l)
);
}
);
};
layerId = "43161617-4660-4075-B14A-1D8E25AEE542";
shapes = (
{
ref = E;
}
);
width = 406;
}
);
unicode = 202;
userData = {
com.fontlab.hintData = {
hhints = (
{
position = 1806;
width = 405;
}
);
};
};
},
{
glyphname = Edblgrave;
lastChange = "2023-07-06 13:29:48 +0000";
layers = (
{
background = {
shapes = (
{
closed = 1;
nodes = (
(280,878,l),
(240,1025,l),
(181,1025,l),
(253,878,l)
);
},
{
closed = 1;
nodes = (
(377,878,l),
(350,1025,l),
(298,1025,l),
(350,878,l)
);
},
{
closed = 1;
nodes = (
(336,0,l),
(341,43,l),
(113,43,l),
(150,399,l),
(335,399,l),
(339,441,l),
(154,441,l),
(188,766,l),
(414,766,l),
(418,810,l),
(138,810,l),
(53,0,l)
);
}
);
};
layerId = "6D1B020D-7C4E-4885-9208-B35BA480FE8F";
shapes = (
{
ref = E;
},
{
pos = (138,232);
ref = dblgravecomb;
}
);
width = 393;
},
{
background = {
shapes = (
{
closed = 1;
nodes = (
(320,882,l),
(277,1097,l),
(149,1097,l),
(224,882,l)
);
},
{
closed = 1;
nodes = (
(504,882,l),
(462,1097,l),
(337,1097,l),
(409,882,l)
);
},
{
closed = 1;
nodes = (
(413,0,l),
(427,130,l),
(243,130,l),
(267,359,l),
(403,359,l),
(417,495,l),
(281,495,l),
(300,678,l),
(482,678,l),
(496,810,l),
(119,810,l),
(34,0,l)
);
}
);
};
layerId = "BF03A18F-065F-4249-8E16-486B9CB494A0";
shapes = (
{
ref = E;
},
{
pos = (58,232);
ref = dblgravecomb;
}
);
width = 458;
},
{
background = {
shapes = (
{
closed = 1;
nodes = (
(303,877,l),
(264,1046,l),
(159,1046,l),
(252,877,l)
);
},
{
closed = 1;
nodes = (
(430,877,l),
(407,1046,l),
(321,1046,l),
(378,877,l)
);
},
{
closed = 1;
nodes = (
(354,0,l),
(363,79,l),
(158,79,l),
(189,379,l),
(354,379,l),
(362,458,l),
(197,458,l),
(226,729,l),
(428,729,l),
(437,810,l),
(125,810,l),
(40,0,l)
);
}
);
};
layerId = "43161617-4660-4075-B14A-1D8E25AEE542";
shapes = (
{
ref = E;
},
{
pos = (119,232);
ref = dblgravecomb;
}
);
width = 406;
}
);
unicode = 516;
userData = {
com.fontlab.hintData = {
hhints = (
{
position = 1800;
width = 280;
}
);
vhints = (
{
position = 349;
width = 80;
},
{
position = 547;
width = 77;
}
);
};
};
},
{
glyphname = Edieresis;
lastChange = "2023-07-06 13:12:48 +0000";
layers = (
{
background = {
shapes = (
{
closed = 1;
nodes = (
(336,0,l),
(341,43,l),
(113,43,l),
(150,399,l),
(335,399,l),
(339,441,l),
(154,441,l),
(188,766,l),
(414,766,l),
(418,810,l),
(138,810,l),
(53,0,l)
);
}
);
};
layerId = "6D1B020D-7C4E-4885-9208-B35BA480FE8F";
shapes = (
{
ref = E;
}
);
width = 393;
},
{
background = {
shapes = (
{
closed = 1;
nodes = (
(413,0,l),
(427,130,l),
(243,130,l),
(267,359,l),
(403,359,l),
(417,495,l),
(281,495,l),
(300,678,l),
(482,678,l),
(496,810,l),
(119,810,l),
(34,0,l)
);
}
);
};
layerId = "BF03A18F-065F-4249-8E16-486B9CB494A0";
shapes = (
{
ref = E;
}
);
width = 458;
},
{
background = {
shapes = (
{
closed = 1;
nodes = (
(354,0,l),
(363,79,l),
(158,79,l),
(189,379,l),
(354,379,l),
(362,458,l),
(197,458,l),
(226,729,l),
(428,729,l),
(437,810,l),
(125,810,l),
(40,0,l)
);
}
);
};
layerId = "43161617-4660-4075-B14A-1D8E25AEE542";
shapes = (
{
ref = E;
}
);
width = 406;
}
);
unicode = 203;
userData = {
com.fontlab.hintData = {
hhints = (
{
position = 1800;
width = 125;
}
);
};
};
},
{
glyphname = Edotaccent;
lastChange = "2023-07-06 13:12:48 +0000";
layers = (
{
background = {
shapes = (
{
closed = 1;
nodes = (
(336,0,l),
(341,43,l),
(113,43,l),
(150,399,l),
(335,399,l),
(339,441,l),
(154,441,l),
(188,766,l),
(414,766,l),
(418,810,l),
(138,810,l),
(53,0,l)
);
}
);
};
layerId = "6D1B020D-7C4E-4885-9208-B35BA480FE8F";
shapes = (
{
ref = E;
}
);
width = 393;
},
{
background = {
shapes = (
{
closed = 1;
nodes = (
(413,0,l),
(427,130,l),
(243,130,l),
(267,359,l),
(403,359,l),
(417,495,l),
(281,495,l),
(300,678,l),
(482,678,l),
(496,810,l),
(119,810,l),
(34,0,l)
);
}
);
};
layerId = "BF03A18F-065F-4249-8E16-486B9CB494A0";
shapes = (
{
ref = E;
}
);
width = 458;
},
{
background = {
shapes = (
{
closed = 1;
nodes = (
(354,0,l),
(363,79,l),
(158,79,l),
(189,379,l),
(354,379,l),
(362,458,l),
(197,458,l),
(226,729,l),
(428,729,l),
(437,810,l),
(125,810,l),
(40,0,l)
);
}
);
};
layerId = "43161617-4660-4075-B14A-1D8E25AEE542";
shapes = (
{
ref = E;
}
);
width = 406;
}
);
unicode = 278;
userData = {
com.fontlab.hintData = {
hhints = (
{
position = 1800;
width = 161;
}
);
};
};
},
{
glyphname = Egrave;
lastChange = "2023-07-06 13:30:30 +0000";
layers = (
{
background = {
shapes = (
{
closed = 1;
nodes = (
(326,879,l),
(292,1073,l),
(239,1073,l),
(299,879,l)
);
},
{
closed = 1;
nodes = (
(336,0,l),
(341,43,l),
(113,43,l),
(150,399,l),
(335,399,l),
(339,441,l),
(154,441,l),
(188,766,l),
(414,766,l),
(418,810,l),
(138,810,l),
(53,0,l)
);
}
);
};
layerId = "6D1B020D-7C4E-4885-9208-B35BA480FE8F";
shapes = (
{
ref = E;
},
{
pos = (193,232);
ref = gravecomb;
}
);
width = 393;
},
{
background = {
shapes = (
{
closed = 1;
nodes = (
(437,881,l),
(397,1084,l),
(214,1084,l),
(323,881,l)
);
},
{
closed = 1;
nodes = (
(413,0,l),
(427,130,l),
(243,130,l),
(267,359,l),
(403,359,l),
(417,495,l),
(281,495,l),
(300,678,l),
(482,678,l),
(496,810,l),
(119,810,l),
(34,0,l)
);
}
);
};
layerId = "BF03A18F-065F-4249-8E16-486B9CB494A0";
shapes = (
{
ref = E;
},
{
pos = (141,232);
ref = gravecomb;
}
);
width = 458;
},
{
background = {
shapes = (
{
closed = 1;
nodes = (
(366,877,l),
(329,1075,l),
(225,1075,l),
(314,877,l)
);
},
{
closed = 1;
nodes = (
(354,0,l),
(363,79,l),
(158,79,l),
(189,379,l),
(354,379,l),
(362,458,l),
(197,458,l),
(226,729,l),
(428,729,l),
(437,810,l),
(125,810,l),
(40,0,l)
);
}
);
};
layerId = "43161617-4660-4075-B14A-1D8E25AEE542";
shapes = (
{
ref = E;
},
{
pos = (160,232);
ref = gravecomb;
}
);
width = 406;
}
);
unicode = 200;
userData = {
com.fontlab.hintData = {
hhints = (
{
position = 1800;
width = 394;
}
);
};
};
},
{
glyphname = Einvertedbreve;
lastChange = "2023-07-06 13:31:19 +0000";
layers = (
{
background = {
shapes = (
{
closed = 1;
nodes = (
(196,879,l),
(205,936,o),
(240,955,o),
(282,955,cs),
(324,955,o),
(354,936,o),
(350,879,c),
(387,879,l),
(391,954,o),
(352,990,o),
(285,990,cs),
(218,990,o),
(169,954,o),
(159,879,c)
);
},
{
closed = 1;
nodes = (
(336,0,l),
(341,43,l),
(113,43,l),
(150,399,l),
(335,399,l),
(339,441,l),
(154,441,l),
(188,766,l),
(414,766,l),
(418,810,l),
(138,810,l),
(53,0,l)
);
}
);
};
layerId = "6D1B020D-7C4E-4885-9208-B35BA480FE8F";
shapes = (
{
ref = E;
},
{
pos = (113,232);
ref = breveinvertedcomb;
}
);
width = 393;
},
{
background = {
shapes = (
{
closed = 1;
nodes = (
(261,882,l),
(264,916,o),
(281,932,o),
(321,932,cs),
(361,932,o),
(373,916,o),
(370,882,c),
(443,882,l),
(450,960,o),
(402,1000,o),
(327,1000,cs),
(253,1000,o),
(196,959,o),
(188,882,c)
);
},
{
closed = 1;
nodes = (
(413,0,l),
(427,130,l),
(243,130,l),
(267,359,l),
(403,359,l),
(417,495,l),
(281,495,l),
(300,678,l),
(482,678,l),
(496,810,l),
(119,810,l),
(34,0,l)
);
}
);
};
layerId = "BF03A18F-065F-4249-8E16-486B9CB494A0";
shapes = (
{
ref = E;
},
{
pos = (150,232);
ref = breveinvertedcomb;
}
);
width = 458;
},
{
background = {
shapes = (
{
closed = 1;
nodes = (
(216,878,l),
(224,940,o),
(246,965,o),
(295,965,cs),
(344,965,o),
(361,941,o),
(355,878,c),
(416,878,l),
(424,960,o),
(404,1024,o),
(301,1024,cs),
(197,1024,o),
(164,961,o),
(155,878,c)
);
},
{
closed = 1;
nodes = (
(354,0,l),
(363,79,l),
(158,79,l),
(189,379,l),
(354,379,l),
(362,458,l),
(197,458,l),
(226,729,l),
(428,729,l),
(437,810,l),
(125,810,l),
(40,0,l)
);
}
);
};
layerId = "43161617-4660-4075-B14A-1D8E25AEE542";
shapes = (
{
ref = E;
},
{
pos = (106,232);
ref = breveinvertedcomb;
}
);
width = 406;
}
);
unicode = 518;
userData = {
com.fontlab.hintData = {
hhints = (
{
position = 1948;
width = 48;
}
);
vhints = (
{
position = 291;
width = 54;
},
{
position = 675;
width = 54;
}
);
};
};
},
{
glyphname = Emacron;
lastChange = "2023-07-06 13:31:38 +0000";
layers = (
{
background = {
shapes = (
{
closed = 1;
nodes = (
(357,878,l),
(361,915,l),
(190,915,l),
(187,878,l)
);
},
{
closed = 1;
nodes = (
(336,0,l),
(341,43,l),
(113,43,l),
(150,399,l),
(335,399,l),
(339,441,l),
(154,441,l),
(188,766,l),
(414,766,l),
(418,810,l),
(138,810,l),
(53,0,l)
);
}
);
};
layerId = "6D1B020D-7C4E-4885-9208-B35BA480FE8F";
shapes = (
{
ref = E;
},
{
pos = (35,232);
ref = macroncomb;
}
);
width = 393;
},
{
background = {
shapes = (
{
closed = 1;
nodes = (
(463,881,l),
(471,960,l),
(176,960,l),
(167,881,l)
);
},
{
closed = 1;
nodes = (
(413,0,l),
(427,130,l),
(243,130,l),
(267,359,l),
(403,359,l),
(417,495,l),
(281,495,l),
(300,678,l),
(482,678,l),
(496,810,l),
(119,810,l),
(34,0,l)
);
}
);
};
layerId = "BF03A18F-065F-4249-8E16-486B9CB494A0";
shapes = (
{
ref = E;
},
{
pos = (247,232);
ref = macroncomb;
}
);
width = 458;
},
{
background = {
shapes = (
{
closed = 1;
nodes = (
(381,877,l),
(388,940,l),
(196,940,l),
(190,877,l)
);
},
{
closed = 1;
nodes = (
(354,0,l),
(363,79,l),
(158,79,l),
(189,379,l),
(354,379,l),
(362,458,l),
(197,458,l),
(226,729,l),
(428,729,l),
(437,810,l),
(125,810,l),
(40,0,l)
);
}
);
};
layerId = "43161617-4660-4075-B14A-1D8E25AEE542";
shapes = (
{
ref = E;
},
{
pos = (56,232);
ref = macroncomb;
}
);
width = 406;
}
);
unicode = 274;
userData = {
com.fontlab.hintData = {
hhints = (
{
position = 1806;
width = 163;
}
);
vhints = (
{
position = 100;
width = 562;
}
);
};
};
},
{
glyphname = Eogonek;
lastChange = "2023-07-06 13:12:48 +0000";
layers = (
{
background = {
shapes = (
{
closed = 1;
nodes = (
(131,-168,l),
(83,-168,o),
(42,-154,o),
(46,-115,cs),
(50,-80,o),
(84,-37,o),
(127,2,c),
(97,2,l),
(51,-21,o),
(10,-72,o),
(4,-119,cs),
(-1,-171,o),
(38,-199,o),
(119,-199,c)
);
},
{
closed = 1;
nodes = (
(555,0,l),
(560,43,l),
(332,43,l),
(369,399,l),
(554,399,l),
(558,441,l),
(373,441,l),
(407,766,l),
(633,766,l),
(637,810,l),
(357,810,l),
(272,0,l)
);
}
);
};
layerId = "6D1B020D-7C4E-4885-9208-B35BA480FE8F";
shapes = (
{
ref = ogonek;
},
{
pos = (219,0);
ref = E;
}
);
width = 612;
},
{
background = {
shapes = (
{
closed = 1;
nodes = (
(187,-171,l),
(161,-171,o),
(98,-173,o),
(104,-115,cs),
(109,-71,o),
(131,-32,o),
(143,10,c),
(64,10,l),
(18,-31,o),
(-16,-93,o),
(-21,-144,cs),
(-33,-255,o),
(93,-258,o),
(164,-256,c)
);
},
{
closed = 1;
nodes = (
(683,0,l),
(697,130,l),
(513,130,l),
(537,359,l),
(673,359,l),
(687,495,l),
(551,495,l),
(570,678,l),
(752,678,l),
(766,810,l),
(389,810,l),
(304,0,l)
);
}
);
};
layerId = "BF03A18F-065F-4249-8E16-486B9CB494A0";
shapes = (
{
ref = ogonek;
},
{
pos = (270,0);
ref = E;
}
);
width = 728;
},
{
background = {
shapes = (
{
closed = 1;
nodes = (
(138,-173,l),
(97,-173,o),
(25,-183,o),
(30,-138,cs),
(35,-89,o),
(95,-33,o),
(128,3,c),
(76,3,l),
(23,-13,o),
(-42,-76,o),
(-48,-140,cs),
(-56,-218,o),
(12,-226,o),
(114,-226,c)
);
},
{
closed = 1;
nodes = (
(592,0,l),
(601,79,l),
(396,79,l),
(427,379,l),
(592,379,l),
(600,458,l),
(435,458,l),
(464,729,l),
(666,729,l),
(675,810,l),
(363,810,l),
(278,0,l)
);
}
);
};
layerId = "43161617-4660-4075-B14A-1D8E25AEE542";
shapes = (
{
ref = ogonek;
},
{
pos = (238,0);
ref = E;
}
);
width = 644;
}
);
unicode = 280;
userData = {
com.fontlab.hintData = {
hhints = (
{
position = -383;
width = 42;
}
);
};
};
},
{
glyphname = F;
lastChange = "2023-07-06 13:16:51 +0000";
layers = (
{
anchors = (
{
name = bottom;
pos = (192,0);
},
{
name = top;
pos = (192,810);
}
);
background = {
shapes = (
{
closed = 1;
nodes = (
(108,0,l),
(151,399,l),
(344,399,l),
(349,441,l),
(155,441,l),
(189,767,l),
(414,767,l),
(418,810,l),
(139,810,l),
(54,0,l)
);
}
);
};
layerId = "6D1B020D-7C4E-4885-9208-B35BA480FE8F";
shapes = (
{
closed = 1;
nodes = (
(108,0,l),
(151,399,l),
(344,399,l),
(349,441,l),
(155,441,l),
(189,767,l),
(414,767,l),
(418,810,l),
(139,810,l),
(54,0,l)
);
}
);
width = 383;
},
{
anchors = (
{
name = bottom;
pos = (223,0);
},
{
name = top;
pos = (223,810);
}
);
background = {
shapes = (
{
closed = 1;
nodes = (
(229,0,l),
(267,355,l),
(414,355,l),
(428,490,l),
(281,490,l),
(300,679,l),
(466,679,l),
(479,810,l),
(119,810,l),
(34,0,l)
);
}
);
};
layerId = "BF03A18F-065F-4249-8E16-486B9CB494A0";
shapes = (
{
closed = 1;
nodes = (
(229,0,l),
(267,355,l),
(414,355,l),
(428,490,l),
(281,490,l),
(300,679,l),
(466,679,l),
(479,810,l),
(119,810,l),
(34,0,l)
);
}
);
width = 445;
},
{
anchors = (
{
name = bottom;
pos = (195,0);
},
{
name = top;
pos = (195,810);
}
);
background = {
shapes = (
{
closed = 1;
nodes = (
(149,0,l),
(189,380,l),
(347,380,l),
(355,458,l),
(198,458,l),
(227,731,l),
(428,731,l),
(436,810,l),
(125,810,l),
(40,0,l)
);
}
);
};
layerId = "43161617-4660-4075-B14A-1D8E25AEE542";
shapes = (
{
closed = 1;
nodes = (
(149,0,l),
(189,380,l),
(347,380,l),
(355,458,l),
(198,458,l),
(227,731,l),
(428,731,l),
(436,810,l),
(125,810,l),
(40,0,l)
);
}
);
width = 390;
}
);
unicode = 70;
},
{
glyphname = Fdotaccent;
lastChange = "2023-07-06 13:12:48 +0000";
layers = (
{
background = {
shapes = (
{
closed = 1;
nodes = (
(108,0,l),
(151,399,l),
(344,399,l),
(349,441,l),
(155,441,l),
(189,767,l),
(414,767,l),
(418,810,l),
(139,810,l),
(54,0,l)
);
}
);
};
layerId = "6D1B020D-7C4E-4885-9208-B35BA480FE8F";
shapes = (
{
ref = F;
}
);
width = 383;
},
{
background = {
shapes = (
{
closed = 1;
nodes = (
(229,0,l),
(267,355,l),
(414,355,l),
(428,490,l),
(281,490,l),
(300,679,l),
(466,679,l),
(479,810,l),
(119,810,l),
(34,0,l)
);
}
);
};
layerId = "BF03A18F-065F-4249-8E16-486B9CB494A0";
shapes = (
{
ref = F;
}
);
width = 445;
},
{
background = {
shapes = (
{
closed = 1;
nodes = (
(149,0,l),
(189,380,l),
(347,380,l),
(355,458,l),
(198,458,l),
(227,731,l),
(428,731,l),
(436,810,l),
(125,810,l),
(40,0,l)
);
}
);
};
layerId = "43161617-4660-4075-B14A-1D8E25AEE542";
shapes = (
{
ref = F;
}
);
width = 390;
}
);
unicode = 7710;
userData = {
com.fontlab.hintData = {
hhints = (
{
position = 1800;
width = 161;
}
);
};
};
},
{
glyphname = G;
lastChange = "2023-07-06 13:19:27 +0000";
layers = (
{
anchors = (
{
name = bottom;
pos = (255,0);
},
{
name = top;
pos = (310,810);
}
);
background = {
shapes = (
{
closed = 1;
nodes = (
(315,-11,o),
(362,28,o),
(389,91,c),
(387,0,l),
(423,0,l),
(463,386,l),
(283,386,l),
(279,344,l),
(407,344,l),
(395,225,ls),
(382,106,o),
(346,34,o),
(239,34,cs),
(123,34,o),
(103,110,o),
(116,228,cs),
(153,581,ls),
(165,694,o),
(197,774,o),
(316,774,cs),
(421,774,o),
(444,710,o),
(432,591,cs),
(428,560,l),
(479,560,l),
(482,588,ls),
(498,730,o),
(461,819,o),
(320,819,cs),
(165,819,o),
(113,721,o),
(98,579,cs),
(62,235,ls),
(46,92,o),
(76,-11,o),
(230,-11,cs)
);
}
);
};
layerId = "6D1B020D-7C4E-4885-9208-B35BA480FE8F";
shapes = (
{
closed = 1;
nodes = (
(315,-11,o),
(362,28,o),
(389,91,c),
(387,0,l),
(423,0,l),
(463,386,l),
(283,386,l),
(279,344,l),
(407,344,l),
(395,225,ls),
(382,106,o),
(346,34,o),
(239,34,cs),
(123,34,o),
(103,110,o),
(116,228,cs),
(153,581,ls),
(165,694,o),
(197,774,o),
(316,774,cs),
(421,774,o),
(444,710,o),
(432,591,cs),
(428,560,l),
(479,560,l),
(482,588,ls),
(498,730,o),
(461,819,o),
(320,819,cs),
(165,819,o),
(113,721,o),
(98,579,cs),
(62,235,ls),
(46,92,o),
(76,-11,o),
(230,-11,cs)
);
}
);
width = 510;
},
{
anchors = (
{
name = bottom;
pos = (295,0);
},
{
name = top;
pos = (355,810);
}
);
background = {
shapes = (
{
closed = 1;
nodes = (
(317,-13,o),
(358,19,o),
(382,61,c),
(386,0,l),
(516,0,l),
(561,425,l),
(319,425,l),
(307,313,l),
(373,313,l),
(362,210,ls),
(358,170,o),
(340,124,o),
(293,124,cs),
(246,124,o),
(241,170,o),
(245,209,cs),
(286,602,ls),
(290,639,o),
(299,687,o),
(347,687,cs),
(395,687,o),
(391,641,o),
(387,604,cs),
(379,528,l),
(571,528,l),
(577,584,ls),
(591,721,o),
(545,822,o),
(359,822,cs),
(171,822,o),
(98,711,o),
(80,541,cs),
(51,269,ls),
(34,104,o),
(76,-13,o),
(248,-13,cs)
);
}
);
};
layerId = "BF03A18F-065F-4249-8E16-486B9CB494A0";
shapes = (
{
closed = 1;
nodes = (
(317,-13,o),
(358,19,o),
(382,61,c),
(386,0,l),
(516,0,l),
(561,425,l),
(319,425,l),
(307,313,l),
(373,313,l),
(362,210,ls),
(358,170,o),
(340,124,o),
(293,124,cs),
(246,124,o),
(241,170,o),
(245,209,cs),
(286,602,ls),
(290,639,o),
(299,687,o),
(347,687,cs),
(395,687,o),
(391,641,o),
(387,604,cs),
(379,528,l),
(571,528,l),
(577,584,ls),
(591,721,o),
(545,822,o),
(359,822,cs),
(171,822,o),
(98,711,o),
(80,541,cs),
(51,269,ls),
(34,104,o),
(76,-13,o),
(248,-13,cs)
);
}
);
width = 590;
},
{
anchors = (
{
name = bottom;
pos = (267,0);
},
{
name = top;
pos = (327,810);
}
);
background = {
shapes = (
{
closed = 1;
nodes = (
(312,-10,o),
(358,33,o),
(386,93,c),
(387,0,l),
(456,0,l),
(498,400,l),
(295,400,l),
(286,323,l),
(391,323,l),
(384,262,ls),
(372,140,o),
(343,77,o),
(253,77,cs),
(163,77,o),
(148,135,o),
(161,252,cs),
(193,555,ls),
(204,657,o),
(219,732,o),
(319,732,cs),
(412,732,o),
(419,682,o),
(408,577,cs),
(406,551,l),
(508,551,l),
(511,581,ls),
(528,741,o),
(478,818,o),
(327,818,cs),
(156,818,o),
(101,715,o),
(82,539,cs),
(53,264,ls),
(35,91,o),
(79,-10,o),
(231,-10,cs)
);
}
);
};
layerId = "43161617-4660-4075-B14A-1D8E25AEE542";
shapes = (
{
closed = 1;
nodes = (
(312,-10,o),
(358,33,o),
(386,93,c),
(387,0,l),
(456,0,l),
(498,400,l),
(295,400,l),
(286,323,l),
(391,323,l),
(384,262,ls),
(372,140,o),
(343,77,o),
(253,77,cs),
(163,77,o),
(148,135,o),
(161,252,cs),
(193,555,ls),
(204,657,o),
(219,732,o),
(319,732,cs),
(412,732,o),
(419,682,o),
(408,577,cs),
(406,551,l),
(508,551,l),
(511,581,ls),
(528,741,o),
(478,818,o),
(327,818,cs),
(156,818,o),
(101,715,o),
(82,539,cs),
(53,264,ls),
(35,91,o),
(79,-10,o),
(231,-10,cs)
);
}
);
width = 534;
}
);
unicode = 71;
userData = {
com.fontlab.hintData = {
hhints = (
{
position = -24;
width = 56;
},
{
position = 1623;
width = 55;
}
);
vhints = (
{
position = 794;
width = 42;
}
);
};
};
},
{
glyphname = Gacute;
lastChange = "2023-07-06 13:19:27 +0000";
layers = (
{
background = {
shapes = (
{
closed = 1;
nodes = (
(277,879,l),
(387,1073,l),
(334,1073,l),
(249,879,l)
);
},
{
closed = 1;
nodes = (
(315,-11,o),
(362,28,o),
(389,91,c),
(387,0,l),
(423,0,l),
(463,386,l),
(283,386,l),
(279,344,l),
(407,344,l),
(395,225,ls),
(382,106,o),
(346,34,o),
(239,34,cs),
(123,34,o),
(103,110,o),
(116,228,cs),
(153,581,ls),
(165,694,o),
(197,774,o),
(316,774,cs),
(421,774,o),
(444,710,o),
(432,591,cs),
(428,560,l),
(479,560,l),
(482,588,ls),
(498,730,o),
(461,819,o),
(320,819,cs),
(165,819,o),
(113,721,o),
(98,579,cs),
(62,235,ls),
(46,92,o),
(76,-11,o),
(230,-11,cs)
);
}
);
};
layerId = "6D1B020D-7C4E-4885-9208-B35BA480FE8F";
shapes = (
{
ref = G;
},
{
pos = (266,232);
ref = acutecomb;
}
);
width = 510;
},
{
background = {
shapes = (
{
closed = 1;
nodes = (
(356,881,l),
(506,1084,l),
(325,1084,l),
(242,881,l)
);
},
{
closed = 1;
nodes = (
(317,-13,o),
(358,19,o),
(382,61,c),
(386,0,l),
(516,0,l),
(561,425,l),
(319,425,l),
(307,313,l),
(373,313,l),
(362,210,ls),
(358,170,o),
(340,124,o),
(293,124,cs),
(246,124,o),
(241,170,o),
(245,209,cs),
(286,602,ls),
(290,639,o),
(299,687,o),
(347,687,cs),
(395,687,o),
(391,641,o),
(387,604,cs),
(379,528,l),
(571,528,l),
(577,584,ls),
(591,721,o),
(545,822,o),
(359,822,cs),
(171,822,o),
(98,711,o),
(80,541,cs),
(51,269,ls),
(34,104,o),
(76,-13,o),
(248,-13,cs)
);
}
);
};
layerId = "BF03A18F-065F-4249-8E16-486B9CB494A0";
shapes = (
{
ref = G;
},
{
pos = (250,232);
ref = acutecomb;
}
);
width = 590;
},
{
background = {
shapes = (
{
closed = 1;
nodes = (
(301,877,l),
(432,1075,l),
(328,1075,l),
(248,877,l)
);
},
{
closed = 1;
nodes = (
(312,-10,o),
(358,33,o),
(386,93,c),
(387,0,l),
(456,0,l),
(498,400,l),
(295,400,l),
(286,323,l),
(391,323,l),
(384,262,ls),
(372,140,o),
(343,77,o),
(253,77,cs),
(163,77,o),
(148,135,o),
(161,252,cs),
(193,555,ls),
(204,657,o),
(219,732,o),
(319,732,cs),
(412,732,o),
(419,682,o),
(408,577,cs),
(406,551,l),
(508,551,l),
(511,581,ls),
(528,741,o),
(478,818,o),
(327,818,cs),
(156,818,o),
(101,715,o),
(82,539,cs),
(53,264,ls),
(35,91,o),
(79,-10,o),
(231,-10,cs)
);
}
);
};
layerId = "43161617-4660-4075-B14A-1D8E25AEE542";
shapes = (
{
ref = G;
},
{
pos = (259,232);
ref = acutecomb;
}
);
width = 534;
}
);
unicode = 500;
userData = {
com.fontlab.hintData = {
hhints = (
{
position = -24;
width = 56;
},
{
position = 1623;
width = 55;
},
{
position = 1800;
width = 394;
}
);
vhints = (
{
position = 754;
width = 42;
}
);
};
};
},
{
glyphname = Gbreve;
lastChange = "2023-07-06 13:12:48 +0000";
layers = (
{
background = {
shapes = (
{
closed = 1;
nodes = (
(315,-11,o),
(362,28,o),
(389,91,c),
(387,0,l),
(423,0,l),
(463,386,l),
(283,386,l),
(279,344,l),
(407,344,l),
(395,225,ls),
(382,106,o),
(346,34,o),
(239,34,cs),
(123,34,o),
(103,110,o),
(116,228,cs),
(153,581,ls),
(165,694,o),
(197,774,o),
(316,774,cs),
(421,774,o),
(444,710,o),
(432,591,cs),
(428,560,l),
(479,560,l),
(482,588,ls),
(498,730,o),
(461,819,o),
(320,819,cs),
(165,819,o),
(113,721,o),
(98,579,cs),
(62,235,ls),
(46,92,o),
(76,-11,o),
(230,-11,cs)
);
}
);
};
layerId = "6D1B020D-7C4E-4885-9208-B35BA480FE8F";
shapes = (
{
ref = G;
}
);
width = 510;
},
{
background = {
shapes = (
{
closed = 1;
nodes = (
(317,-13,o),
(358,19,o),
(382,61,c),
(386,0,l),
(516,0,l),
(561,425,l),
(319,425,l),
(307,313,l),
(373,313,l),
(362,210,ls),
(358,170,o),
(340,124,o),
(293,124,cs),
(246,124,o),
(241,170,o),
(245,209,cs),
(286,602,ls),
(290,639,o),
(299,687,o),
(347,687,cs),
(395,687,o),
(391,641,o),
(387,604,cs),
(379,528,l),
(571,528,l),
(577,584,ls),
(591,721,o),
(545,822,o),
(359,822,cs),
(171,822,o),
(98,711,o),
(80,541,cs),
(51,269,ls),
(34,104,o),
(76,-13,o),
(248,-13,cs)
);
}
);
};
layerId = "BF03A18F-065F-4249-8E16-486B9CB494A0";
shapes = (
{
ref = G;
}
);
width = 590;
},
{
background = {
shapes = (
{
closed = 1;
nodes = (
(312,-10,o),
(358,33,o),
(386,93,c),
(387,0,l),
(456,0,l),
(498,400,l),
(295,400,l),
(286,323,l),
(391,323,l),
(384,262,ls),
(372,140,o),
(343,77,o),
(253,77,cs),
(163,77,o),
(148,135,o),
(161,252,cs),
(193,555,ls),
(204,657,o),
(219,732,o),
(319,732,cs),
(412,732,o),
(419,682,o),
(408,577,cs),
(406,551,l),
(508,551,l),
(511,581,ls),
(528,741,o),
(478,818,o),
(327,818,cs),
(156,818,o),
(101,715,o),
(82,539,cs),
(53,264,ls),
(35,91,o),
(79,-10,o),
(231,-10,cs)
);
}
);
};
layerId = "43161617-4660-4075-B14A-1D8E25AEE542";
shapes = (
{
ref = G;
}
);
width = 534;
}
);
unicode = 286;
userData = {
com.fontlab.hintData = {
hhints = (
{
position = -24;
width = 56;
},
{
position = 1623;
width = 55;
},
{
position = 1800;
width = 48;
}
);
vhints = (
{
position = 376;
width = 54;
},
{
position = 754;
width = 42;
},
{
position = 760;
width = 54;
}
);
};
};
},
{
glyphname = Gcircumflex;
lastChange = "2023-07-06 13:12:48 +0000";
layers = (
{
background = {
shapes = (
{
closed = 1;
nodes = (
(315,-11,o),
(362,28,o),
(389,91,c),
(387,0,l),
(423,0,l),
(463,386,l),
(283,386,l),
(279,344,l),
(407,344,l),
(395,225,ls),
(382,106,o),
(346,34,o),
(239,34,cs),
(123,34,o),
(103,110,o),
(116,228,cs),
(153,581,ls),
(165,694,o),
(197,774,o),
(316,774,cs),
(421,774,o),
(444,710,o),
(432,591,cs),
(428,560,l),
(479,560,l),
(482,588,ls),
(498,730,o),
(461,819,o),
(320,819,cs),
(165,819,o),
(113,721,o),
(98,579,cs),
(62,235,ls),
(46,92,o),
(76,-11,o),
(230,-11,cs)
);
}
);
};
layerId = "6D1B020D-7C4E-4885-9208-B35BA480FE8F";
shapes = (
{
ref = G;
}
);
width = 510;
},
{
background = {
shapes = (
{
closed = 1;
nodes = (
(317,-13,o),
(358,19,o),
(382,61,c),
(386,0,l),
(516,0,l),
(561,425,l),
(319,425,l),
(307,313,l),
(373,313,l),
(362,210,ls),
(358,170,o),
(340,124,o),
(293,124,cs),
(246,124,o),
(241,170,o),
(245,209,cs),
(286,602,ls),
(290,639,o),
(299,687,o),
(347,687,cs),
(395,687,o),
(391,641,o),
(387,604,cs),
(379,528,l),
(571,528,l),
(577,584,ls),
(591,721,o),
(545,822,o),
(359,822,cs),
(171,822,o),
(98,711,o),
(80,541,cs),
(51,269,ls),
(34,104,o),
(76,-13,o),
(248,-13,cs)
);
}
);
};
layerId = "BF03A18F-065F-4249-8E16-486B9CB494A0";
shapes = (
{
ref = G;
}
);
width = 590;
},
{
background = {
shapes = (
{
closed = 1;
nodes = (
(312,-10,o),
(358,33,o),
(386,93,c),
(387,0,l),
(456,0,l),
(498,400,l),
(295,400,l),
(286,323,l),
(391,323,l),
(384,262,ls),
(372,140,o),
(343,77,o),
(253,77,cs),
(163,77,o),
(148,135,o),
(161,252,cs),
(193,555,ls),
(204,657,o),
(219,732,o),
(319,732,cs),
(412,732,o),
(419,682,o),
(408,577,cs),
(406,551,l),
(508,551,l),
(511,581,ls),
(528,741,o),
(478,818,o),
(327,818,cs),
(156,818,o),
(101,715,o),
(82,539,cs),
(53,264,ls),
(35,91,o),
(79,-10,o),
(231,-10,cs)
);
}
);
};
layerId = "43161617-4660-4075-B14A-1D8E25AEE542";
shapes = (
{
ref = G;
}
);
width = 534;
}
);
unicode = 284;
userData = {
com.fontlab.hintData = {
hhints = (
{
position = -24;
width = 56;
},
{
position = 1623;
width = 55;
}
);
vhints = (
{
position = 754;
width = 42;
}
);
};
};
},
{
glyphname = Gcommaaccent;
lastChange = "2023-07-06 13:29:24 +0000";
layers = (
{
background = {
shapes = (
{
closed = 1;
nodes = (
(211,-229,o),
(228,-195,o),
(234,-133,cs),
(241,-71,l),
(176,-71,l),
(168,-146,l),
(203,-146,l),
(201,-167,o),
(191,-207,o),
(153,-230,c),
(164,-251,l)
);
},
{
closed = 1;
nodes = (
(315,-11,o),
(362,28,o),
(389,91,c),
(387,0,l),
(423,0,l),
(463,386,l),
(283,386,l),
(279,344,l),
(407,344,l),
(395,225,ls),
(382,106,o),
(346,34,o),
(239,34,cs),
(123,34,o),
(103,110,o),
(116,228,cs),
(153,581,ls),
(165,694,o),
(197,774,o),
(316,774,cs),
(421,774,o),
(444,710,o),
(432,591,cs),
(428,560,l),
(479,560,l),
(482,588,ls),
(498,730,o),
(461,819,o),
(320,819,cs),
(165,819,o),
(113,721,o),
(98,579,cs),
(62,235,ls),
(46,92,o),
(76,-11,o),
(230,-11,cs)
);
}
);
};
layerId = "6D1B020D-7C4E-4885-9208-B35BA480FE8F";
shapes = (
{
ref = G;
},
{
pos = (182,0);
ref = commaaccentcomb;
}
);
width = 510;
},
{
background = {
shapes = (
{
closed = 1;
nodes = (
(248,-373,o),
(299,-315,o),
(311,-209,cs),
(325,-72,l),
(161,-72,l),
(144,-234,l),
(235,-234,l),
(229,-296,o),
(188,-312,o),
(152,-320,c),
(156,-374,l)
);
},
{
closed = 1;
nodes = (
(317,-13,o),
(358,19,o),
(382,61,c),
(386,0,l),
(516,0,l),
(561,425,l),
(319,425,l),
(307,313,l),
(373,313,l),
(362,210,ls),
(358,170,o),
(340,124,o),
(293,124,cs),
(246,124,o),
(241,170,o),
(245,209,cs),
(286,602,ls),
(290,639,o),
(299,687,o),
(347,687,cs),
(395,687,o),
(391,641,o),
(387,604,cs),
(379,528,l),
(571,528,l),
(577,584,ls),
(591,721,o),
(545,822,o),
(359,822,cs),
(171,822,o),
(98,711,o),
(80,541,cs),
(51,269,ls),
(34,104,o),
(76,-13,o),
(248,-13,cs)
);
}
);
};
layerId = "BF03A18F-065F-4249-8E16-486B9CB494A0";
shapes = (
{
ref = G;
},
{
pos = (226,0);
ref = commaaccentcomb;
}
);
width = 590;
},
{
background = {
shapes = (
{
closed = 1;
nodes = (
(238,-287,o),
(255,-241,o),
(263,-170,cs),
(274,-70,l),
(168,-70,l),
(157,-178,l),
(210,-178,l),
(207,-215,o),
(190,-236,o),
(149,-241,c),
(170,-292,l)
);
},
{
closed = 1;
nodes = (
(312,-10,o),
(358,33,o),
(386,93,c),
(387,0,l),
(456,0,l),
(498,400,l),
(295,400,l),
(286,323,l),
(391,323,l),
(384,262,ls),
(372,140,o),
(343,77,o),
(253,77,cs),
(163,77,o),
(148,135,o),
(161,252,cs),
(193,555,ls),
(204,657,o),
(219,732,o),
(319,732,cs),
(412,732,o),
(419,682,o),
(408,577,cs),
(406,551,l),
(508,551,l),
(511,581,ls),
(528,741,o),
(478,818,o),
(327,818,cs),
(156,818,o),
(101,715,o),
(82,539,cs),
(53,264,ls),
(35,91,o),
(79,-10,o),
(231,-10,cs)
);
}
);
};
layerId = "43161617-4660-4075-B14A-1D8E25AEE542";
shapes = (
{
ref = G;
},
{
pos = (223,0);
ref = commaaccentcomb;
}
);
width = 534;
}
);
unicode = 290;
userData = {
com.fontlab.hintData = {
hhints = (
{
position = -24;
width = 56;
},
{
position = 1623;
width = 55;
}
);
vhints = (
{
position = 359;
width = 100;
},
{
position = 754;
width = 42;
}
);
};
};
},
{
glyphname = Gdotaccent;
lastChange = "2023-07-06 13:12:48 +0000";
layers = (
{
background = {
shapes = (
{
closed = 1;
nodes = (
(315,-11,o),
(362,28,o),
(389,91,c),
(387,0,l),
(423,0,l),
(463,386,l),
(283,386,l),
(279,344,l),
(407,344,l),
(395,225,ls),
(382,106,o),
(346,34,o),
(239,34,cs),
(123,34,o),
(103,110,o),
(116,228,cs),
(153,581,ls),
(165,694,o),
(197,774,o),
(316,774,cs),
(421,774,o),
(444,710,o),
(432,591,cs),
(428,560,l),
(479,560,l),
(482,588,ls),
(498,730,o),
(461,819,o),
(320,819,cs),
(165,819,o),
(113,721,o),
(98,579,cs),
(62,235,ls),
(46,92,o),
(76,-11,o),
(230,-11,cs)
);
}
);
};
layerId = "6D1B020D-7C4E-4885-9208-B35BA480FE8F";
shapes = (
{
ref = G;
}
);
width = 510;
},
{
background = {
shapes = (
{
closed = 1;
nodes = (
(317,-13,o),
(358,19,o),
(382,61,c),
(386,0,l),
(516,0,l),
(561,425,l),
(319,425,l),
(307,313,l),
(373,313,l),
(362,210,ls),
(358,170,o),
(340,124,o),
(293,124,cs),
(246,124,o),
(241,170,o),
(245,209,cs),
(286,602,ls),
(290,639,o),
(299,687,o),
(347,687,cs),
(395,687,o),
(391,641,o),
(387,604,cs),
(379,528,l),
(571,528,l),
(577,584,ls),
(591,721,o),
(545,822,o),
(359,822,cs),
(171,822,o),
(98,711,o),
(80,541,cs),
(51,269,ls),
(34,104,o),
(76,-13,o),
(248,-13,cs)
);
}
);
};
layerId = "BF03A18F-065F-4249-8E16-486B9CB494A0";
shapes = (
{
ref = G;
}
);
width = 590;
},
{
background = {
shapes = (
{
closed = 1;
nodes = (
(312,-10,o),
(358,33,o),
(386,93,c),
(387,0,l),
(456,0,l),
(498,400,l),
(295,400,l),
(286,323,l),
(391,323,l),
(384,262,ls),
(372,140,o),
(343,77,o),
(253,77,cs),
(163,77,o),
(148,135,o),
(161,252,cs),
(193,555,ls),
(204,657,o),
(219,732,o),
(319,732,cs),
(412,732,o),
(419,682,o),
(408,577,cs),
(406,551,l),
(508,551,l),
(511,581,ls),
(528,741,o),
(478,818,o),
(327,818,cs),
(156,818,o),
(101,715,o),
(82,539,cs),
(53,264,ls),
(35,91,o),
(79,-10,o),
(231,-10,cs)
);
}
);
};
layerId = "43161617-4660-4075-B14A-1D8E25AEE542";
shapes = (
{
ref = G;
}
);
width = 534;
}
);
unicode = 288;
userData = {
com.fontlab.hintData = {
hhints = (
{
position = -24;
width = 56;
},
{
position = 1623;
width = 55;
},
{
position = 1800;
width = 161;
}
);
vhints = (
{
position = 754;
width = 42;
}
);
};
};
},
{
glyphname = H;
lastChange = "2023-07-06 13:16:51 +0000";
layers = (
{
anchors = (
{
name = bottom;
pos = (271,0);
},
{
name = center;
pos = (271,405);
},
{
name = top;
pos = (271,810);
},
{
name = topleft;
pos = (20,810);
}
);
background = {
shapes = (
{
closed = 1;
nodes = (
(108,0,l),
(151,403,l),
(434,403,l),
(392,0,l),
(446,0,l),
(531,810,l),
(477,810,l),
(438,445,l),
(155,445,l),
(193,810,l),
(138,810,l),
(53,0,l)
);
}
);
};
layerId = "6D1B020D-7C4E-4885-9208-B35BA480FE8F";
shapes = (
{
closed = 1;
nodes = (
(108,0,l),
(151,403,l),
(434,403,l),
(392,0,l),
(446,0,l),
(531,810,l),
(477,810,l),
(438,445,l),
(155,445,l),
(193,810,l),
(138,810,l),
(53,0,l)
);
}
);
width = 542;
},
{
associatedMasterId = "6D1B020D-7C4E-4885-9208-B35BA480FE8F";
layerId = "484FBAF3-A96A-426E-95D2-5396C8C22022";
name = b;
width = 534;
},
{
anchors = (
{
name = bottom;
pos = (307,0);
},
{
name = center;
pos = (307,405);
},
{
name = top;
pos = (307,810);
},
{
name = topleft;
pos = (20,810);
}
);
background = {
shapes = (
{
closed = 1;
nodes = (
(229,0,l),
(266,349,l),
(373,349,l),
(336,0,l),
(531,0,l),
(616,810,l),
(421,810,l),
(387,488,l),
(281,488,l),
(314,810,l),
(119,810,l),
(34,0,l)
);
}
);
};
layerId = "BF03A18F-065F-4249-8E16-486B9CB494A0";
shapes = (
{
closed = 1;
nodes = (
(229,0,l),
(266,349,l),
(373,349,l),
(336,0,l),
(531,0,l),
(616,810,l),
(421,810,l),
(387,488,l),
(281,488,l),
(314,810,l),
(119,810,l),
(34,0,l)
);
}
);
width = 614;
},
{
anchors = (
{
name = bottom;
pos = (280,0);
},
{
name = center;
pos = (280,405);
},
{
name = top;
pos = (280,810);
},
{
name = topleft;
pos = (20,810);
}
);
background = {
shapes = (
{
closed = 1;
nodes = (
(149,0,l),
(189,381,l),
(402,381,l),
(362,0,l),
(472,0,l),
(557,810,l),
(447,810,l),
(411,459,l),
(198,459,l),
(234,810,l),
(125,810,l),
(40,0,l)
);
}
);
};
layerId = "43161617-4660-4075-B14A-1D8E25AEE542";
shapes = (
{
closed = 1;
nodes = (
(149,0,l),
(189,381,l),
(402,381,l),
(362,0,l),
(472,0,l),
(557,810,l),
(447,810,l),
(411,459,l),
(198,459,l),
(234,810,l),
(125,810,l),
(40,0,l)
);
}
);
width = 559;
}
);
unicode = 72;
userData = {
com.typemytype.robofont.layerData = {
b = {
anchors = (
);
components = (
);
contours = (
);
lib = {
};
name = H;
unicodes = (
);
width = 1093;
};
};
};
},
{
glyphname = Hbar;
lastChange = "2023-07-06 13:12:39 +0000";
layers = (
{
background = {
shapes = (
{
closed = 1;
nodes = (
(108,0,l),
(151,403,l),
(434,403,l),
(392,0,l),
(446,0,l),
(514,640,l),
(551,640,l),
(555,672,l),
(517,672,l),
(531,810,l),
(477,810,l),
(462,672,l),
(179,672,l),
(193,810,l),
(138,810,l),
(124,672,l),
(87,672,l),
(83,640,l),
(121,640,l),
(53,0,l)
);
},
{
closed = 1;
nodes = (
(176,640,l),
(459,640,l),
(438,445,l),
(155,445,l)
);
}
);
};
layerId = "6D1B020D-7C4E-4885-9208-B35BA480FE8F";
shapes = (
{
closed = 1;
nodes = (
(108,0,l),
(151,403,l),
(434,403,l),
(392,0,l),
(446,0,l),
(514,640,l),
(551,640,l),
(555,672,l),
(517,672,l),
(531,810,l),
(477,810,l),
(462,672,l),
(179,672,l),
(193,810,l),
(138,810,l),
(124,672,l),
(87,672,l),
(83,640,l),
(121,640,l),
(53,0,l)
);
},
{
closed = 1;
nodes = (
(176,640,l),
(459,640,l),
(438,445,l),
(155,445,l)
);
}
);
width = 542;
},
{
background = {
shapes = (
{
closed = 1;
nodes = (
(202,0,l),
(239,349,l),
(335,349,l),
(298,0,l),
(493,0,l),
(558,614,l),
(595,614,l),
(601,669,l),
(563,669,l),
(578,810,l),
(383,810,l),
(369,669,l),
(272,669,l),
(287,810,l),
(92,810,l),
(78,669,l),
(26,669,l),
(21,614,l),
(72,614,l),
(7,0,l)
);
},
{
closed = 1;
nodes = (
(267,614,l),
(363,614,l),
(350,488,l),
(254,488,l)
);
}
);
};
layerId = "BF03A18F-065F-4249-8E16-486B9CB494A0";
shapes = (
{
closed = 1;
nodes = (
(202,0,l),
(239,349,l),
(335,349,l),
(298,0,l),
(493,0,l),
(558,614,l),
(595,614,l),
(601,669,l),
(563,669,l),
(578,810,l),
(383,810,l),
(369,669,l),
(272,669,l),
(287,810,l),
(92,810,l),
(78,669,l),
(26,669,l),
(21,614,l),
(72,614,l),
(7,0,l)
);
},
{
closed = 1;
nodes = (
(267,614,l),
(363,614,l),
(350,488,l),
(254,488,l)
);
}
);
width = 536;
},
{
background = {
shapes = (
{
closed = 1;
nodes = (
(149,0,l),
(189,381,l),
(402,381,l),
(362,0,l),
(472,0,l),
(537,620,l),
(583,620,l),
(589,677,l),
(543,677,l),
(557,810,l),
(447,810,l),
(434,677,l),
(221,677,l),
(234,810,l),
(125,810,l),
(111,677,l),
(65,677,l),
(59,620,l),
(105,620,l),
(40,0,l)
);
},
{
closed = 1;
nodes = (
(214,620,l),
(427,620,l),
(411,459,l),
(198,459,l)
);
}
);
};
layerId = "43161617-4660-4075-B14A-1D8E25AEE542";
shapes = (
{
closed = 1;
nodes = (
(149,0,l),
(189,381,l),
(402,381,l),
(362,0,l),
(472,0,l),
(537,620,l),
(583,620,l),
(589,677,l),
(543,677,l),
(557,810,l),
(447,810,l),
(434,677,l),
(221,677,l),
(234,810,l),
(125,810,l),
(111,677,l),
(65,677,l),
(59,620,l),
(105,620,l),
(40,0,l)
);
},
{
closed = 1;
nodes = (
(214,620,l),
(427,620,l),
(411,459,l),
(198,459,l)
);
}
);
width = 559;
}
);
unicode = 294;
},
{
glyphname = Hcircumflex;
lastChange = "2023-07-06 13:12:48 +0000";
layers = (
{
background = {
shapes = (
{
closed = 1;
nodes = (
(108,0,l),
(151,403,l),
(434,403,l),
(392,0,l),
(446,0,l),
(531,810,l),
(477,810,l),
(438,445,l),
(155,445,l),
(193,810,l),
(138,810,l),
(53,0,l)
);
}
);
};
layerId = "6D1B020D-7C4E-4885-9208-B35BA480FE8F";
shapes = (
{
ref = H;
}
);
width = 542;
},
{
associatedMasterId = "6D1B020D-7C4E-4885-9208-B35BA480FE8F";
layerId = "E49E5752-8510-45CA-954B-6AA9B9618EBA";
name = b;
width = 534;
},
{
background = {
shapes = (
{
closed = 1;
nodes = (
(229,0,l),
(266,349,l),
(373,349,l),
(336,0,l),
(531,0,l),
(616,810,l),
(421,810,l),
(387,488,l),
(281,488,l),
(314,810,l),
(119,810,l),
(34,0,l)
);
}
);
};
layerId = "BF03A18F-065F-4249-8E16-486B9CB494A0";
shapes = (
{
ref = H;
}
);
width = 614;
},
{
background = {
shapes = (
{
closed = 1;
nodes = (
(149,0,l),
(189,381,l),
(402,381,l),
(362,0,l),
(472,0,l),
(557,810,l),
(447,810,l),
(411,459,l),
(198,459,l),
(234,810,l),
(125,810,l),
(40,0,l)
);
}
);
};
layerId = "43161617-4660-4075-B14A-1D8E25AEE542";
shapes = (
{
ref = H;
}
);
width = 559;
}
);
unicode = 292;
userData = {
com.fontlab.hintData = {
hhints = (
{
position = 1806;
width = 405;
}
);
};
com.typemytype.robofont.layerData = {
b = {
anchors = (
);
components = (
);
contours = (
);
lib = {
};
name = Hcircumflex;
unicodes = (
);
width = 1093;
};
};
};
},
{
glyphname = I;
lastChange = "2023-07-06 13:19:58 +0000";
layers = (
{
anchors = (
{
name = bottom;
pos = (103,0);
},
{
name = ogonek;
pos = (185,10);
},
{
name = top;
pos = (167,810);
},
{
name = topleft;
pos = (20,810);
}
);
background = {
shapes = (
{
closed = 1;
nodes = (
(109,0,l),
(194,810,l),
(140,810,l),
(55,0,l)
);
}
);
};
layerId = "6D1B020D-7C4E-4885-9208-B35BA480FE8F";
shapes = (
{
closed = 1;
nodes = (
(109,0,l),
(194,810,l),
(140,810,l),
(55,0,l)
);
}
);
width = 206;
},
{
anchors = (
{
name = bottom;
pos = (157,0);
},
{
name = ogonek;
pos = (282,10);
},
{
name = top;
pos = (208,810);
},
{
name = topleft;
pos = (20,810);
}
);
background = {
shapes = (
{
closed = 1;
nodes = (
(229,0,l),
(314,810,l),
(120,810,l),
(35,0,l)
);
}
);
};
layerId = "BF03A18F-065F-4249-8E16-486B9CB494A0";
shapes = (
{
closed = 1;
nodes = (
(229,0,l),
(314,810,l),
(120,810,l),
(35,0,l)
);
}
);
width = 313;
},
{
anchors = (
{
name = bottom;
pos = (123,0);
},
{
name = ogonek;
pos = (221,10);
},
{
name = top;
pos = (182,810);
},
{
name = topleft;
pos = (20,810);
}
);
background = {
shapes = (
{
closed = 1;
nodes = (
(153,0,l),
(238,810,l),
(131,810,l),
(46,0,l)
);
}
);
};
layerId = "43161617-4660-4075-B14A-1D8E25AEE542";
shapes = (
{
closed = 1;
nodes = (
(153,0,l),
(238,810,l),
(131,810,l),
(46,0,l)
);
}
);
width = 245;
}
);
unicode = 73;
userData = {
com.fontlab.hintData = {
vhints = (
{
position = 48;
width = 412;
}
);
};
};
},
{
glyphname = Iacute;
lastChange = "2023-07-06 13:19:58 +0000";
layers = (
{
background = {
shapes = (
{
closed = 1;
nodes = (
(109,0,l),
(194,810,l),
(140,810,l),
(55,0,l)
);
},
{
closed = 1;
nodes = (
(129,879,l),
(239,1073,l),
(186,1073,l),
(101,879,l)
);
}
);
};
layerId = "6D1B020D-7C4E-4885-9208-B35BA480FE8F";
shapes = (
{
ref = I;
},
{
pos = (123,232);
ref = acutecomb;
}
);
width = 206;
},
{
background = {
shapes = (
{
closed = 1;
nodes = (
(229,0,l),
(314,810,l),
(120,810,l),
(35,0,l)
);
},
{
closed = 1;
nodes = (
(218,881,l),
(368,1084,l),
(187,1084,l),
(104,881,l)
);
}
);
};
layerId = "BF03A18F-065F-4249-8E16-486B9CB494A0";
shapes = (
{
ref = I;
},
{
pos = (103,232);
ref = acutecomb;
}
);
width = 313;
},
{
background = {
shapes = (
{
closed = 1;
nodes = (
(153,0,l),
(238,810,l),
(131,810,l),
(46,0,l)
);
},
{
closed = 1;
nodes = (
(160,877,l),
(291,1075,l),
(187,1075,l),
(107,877,l)
);
}
);
};
layerId = "43161617-4660-4075-B14A-1D8E25AEE542";
shapes = (
{
ref = I;
},
{
pos = (114,232);
ref = acutecomb;
}
);
width = 245;
}
);
unicode = 205;
userData = {
com.fontlab.hintData = {
hhints = (
{
position = 1800;
width = 394;
}
);
};
};
},
{
glyphname = Ibreve;
lastChange = "2023-07-06 13:12:48 +0000";
layers = (
{
background = {
shapes = (
{
closed = 1;
nodes = (
(109,0,l),
(194,810,l),
(140,810,l),
(55,0,l)
);
}
);
};
layerId = "6D1B020D-7C4E-4885-9208-B35BA480FE8F";
shapes = (
{
ref = I;
}
);
width = 206;
},
{
background = {
shapes = (
{
closed = 1;
nodes = (
(229,0,l),
(314,810,l),
(120,810,l),
(35,0,l)
);
}
);
};
layerId = "BF03A18F-065F-4249-8E16-486B9CB494A0";
shapes = (
{
ref = I;
}
);
width = 313;
},
{
background = {
shapes = (
{
closed = 1;
nodes = (
(153,0,l),
(238,810,l),
(131,810,l),
(46,0,l)
);
}
);
};
layerId = "43161617-4660-4075-B14A-1D8E25AEE542";
shapes = (
{
ref = I;
}
);
width = 245;
}
);
unicode = 300;
userData = {
com.fontlab.hintData = {
hhints = (
{
position = 1800;
width = 48;
}
);
vhints = (
{
position = 69;
width = 54;
},
{
position = 453;
width = 54;
}
);
};
};
},
{
glyphname = Icircumflex;
lastChange = "2023-07-06 13:12:48 +0000";
layers = (
{
background = {
shapes = (
{
closed = 1;
nodes = (
(109,0,l),
(194,810,l),
(140,810,l),
(55,0,l)
);
}
);
};
layerId = "6D1B020D-7C4E-4885-9208-B35BA480FE8F";
shapes = (
{
ref = I;
}
);
width = 206;
},
{
background = {
shapes = (
{
closed = 1;
nodes = (
(229,0,l),
(314,810,l),
(120,810,l),
(35,0,l)
);
}
);
};
layerId = "BF03A18F-065F-4249-8E16-486B9CB494A0";
shapes = (
{
ref = I;
}
);
width = 313;
},
{
background = {
shapes = (
{
closed = 1;
nodes = (
(153,0,l),
(238,810,l),
(131,810,l),
(46,0,l)
);
}
);
};
layerId = "43161617-4660-4075-B14A-1D8E25AEE542";
shapes = (
{
ref = I;
}
);
width = 245;
}
);
unicode = 206;
userData = {
com.fontlab.hintData = {
hhints = (
{
position = 1806;
width = 405;
}
);
vhints = (
{
position = -2;
width = 412;
}
);
};
};
},
{
glyphname = Idblgrave;
lastChange = "2023-07-06 13:29:48 +0000";
layers = (
{
background = {
shapes = (
{
closed = 1;
nodes = (
(109,0,l),
(194,810,l),
(140,810,l),
(55,0,l)
);
},
{
closed = 1;
nodes = (
(168,878,l),
(128,1025,l),
(69,1025,l),
(141,878,l)
);
},
{
closed = 1;
nodes = (
(265,878,l),
(238,1025,l),
(186,1025,l),
(238,878,l)
);
}
);
};
layerId = "6D1B020D-7C4E-4885-9208-B35BA480FE8F";
shapes = (
{
ref = I;
},
{
pos = (20,232);
ref = dblgravecomb;
}
);
width = 206;
},
{
background = {
shapes = (
{
closed = 1;
nodes = (
(229,0,l),
(314,810,l),
(120,810,l),
(35,0,l)
);
},
{
closed = 1;
nodes = (
(230,882,l),
(187,1097,l),
(59,1097,l),
(134,882,l)
);
},
{
closed = 1;
nodes = (
(414,882,l),
(372,1097,l),
(247,1097,l),
(319,882,l)
);
}
);
};
layerId = "BF03A18F-065F-4249-8E16-486B9CB494A0";
shapes = (
{
ref = I;
},
{
pos = (-35,232);
ref = dblgravecomb;
}
);
width = 313;
},
{
background = {
shapes = (
{
closed = 1;
nodes = (
(153,0,l),
(238,810,l),
(131,810,l),
(46,0,l)
);
},
{
closed = 1;
nodes = (
(206,877,l),
(167,1046,l),
(62,1046,l),
(155,877,l)
);
},
{
closed = 1;
nodes = (
(333,877,l),
(310,1046,l),
(224,1046,l),
(281,877,l)
);
}
);
};
layerId = "43161617-4660-4075-B14A-1D8E25AEE542";
shapes = (
{
ref = I;
},
{
pos = (27,232);
ref = dblgravecomb;
}
);
width = 245;
}
);
unicode = 520;
userData = {
com.fontlab.hintData = {
hhints = (
{
position = 1800;
width = 280;
}
);
vhints = (
{
position = 107;
width = 80;
},
{
position = 305;
width = 77;
}
);
};
};
},
{
glyphname = Idieresis;
lastChange = "2023-07-06 13:12:48 +0000";
layers = (
{
background = {
shapes = (
{
closed = 1;
nodes = (
(109,0,l),
(194,810,l),
(140,810,l),
(55,0,l)
);
}
);
};
layerId = "6D1B020D-7C4E-4885-9208-B35BA480FE8F";
shapes = (
{
ref = I;
}
);
width = 206;
},
{
background = {
shapes = (
{
closed = 1;
nodes = (
(229,0,l),
(314,810,l),
(120,810,l),
(35,0,l)
);
}
);
};
layerId = "BF03A18F-065F-4249-8E16-486B9CB494A0";
shapes = (
{
ref = I;
}
);
width = 313;
},
{
background = {
shapes = (
{
closed = 1;
nodes = (
(153,0,l),
(238,810,l),
(131,810,l),
(46,0,l)
);
}
);
};
layerId = "43161617-4660-4075-B14A-1D8E25AEE542";
shapes = (
{
ref = I;
}
);
width = 245;
}
);
unicode = 207;
userData = {
com.fontlab.hintData = {
hhints = (
{
position = 1800;
width = 125;
}
);
};
};
},
{
glyphname = Idotaccent;
lastChange = "2023-07-06 13:12:48 +0000";
layers = (
{
background = {
shapes = (
{
closed = 1;
nodes = (
(109,0,l),
(194,810,l),
(140,810,l),
(55,0,l)
);
}
);
};
layerId = "6D1B020D-7C4E-4885-9208-B35BA480FE8F";
shapes = (
{
ref = I;
}
);
width = 206;
},
{
background = {
shapes = (
{
closed = 1;
nodes = (
(229,0,l),
(314,810,l),
(120,810,l),
(35,0,l)
);
}
);
};
layerId = "BF03A18F-065F-4249-8E16-486B9CB494A0";
shapes = (
{
ref = I;
}
);
width = 313;
},
{
background = {
shapes = (
{
closed = 1;
nodes = (
(153,0,l),
(238,810,l),
(131,810,l),
(46,0,l)
);
}
);
};
layerId = "43161617-4660-4075-B14A-1D8E25AEE542";
shapes = (
{
ref = I;
}
);
width = 245;
}
);
unicode = 304;
userData = {
com.fontlab.hintData = {
hhints = (
{
position = 1800;
width = 161;
}
);
};
};
},
{
glyphname = Igrave;
lastChange = "2023-07-06 13:30:30 +0000";
layers = (
{
background = {
shapes = (
{
closed = 1;
nodes = (
(109,0,l),
(194,810,l),
(140,810,l),
(55,0,l)
);
},
{
closed = 1;
nodes = (
(214,879,l),
(180,1073,l),
(127,1073,l),
(187,879,l)
);
}
);
};
layerId = "6D1B020D-7C4E-4885-9208-B35BA480FE8F";
shapes = (
{
ref = I;
},
{
pos = (75,232);
ref = gravecomb;
}
);
width = 206;
},
{
background = {
shapes = (
{
closed = 1;
nodes = (
(229,0,l),
(314,810,l),
(120,810,l),
(35,0,l)
);
},
{
closed = 1;
nodes = (
(347,881,l),
(307,1084,l),
(124,1084,l),
(233,881,l)
);
}
);
};
layerId = "BF03A18F-065F-4249-8E16-486B9CB494A0";
shapes = (
{
ref = I;
},
{
pos = (48,232);
ref = gravecomb;
}
);
width = 313;
},
{
background = {
shapes = (
{
closed = 1;
nodes = (
(153,0,l),
(238,810,l),
(131,810,l),
(46,0,l)
);
},
{
closed = 1;
nodes = (
(270,877,l),
(233,1075,l),
(129,1075,l),
(218,877,l)
);
}
);
};
layerId = "43161617-4660-4075-B14A-1D8E25AEE542";
shapes = (
{
ref = I;
},
{
pos = (68,232);
ref = gravecomb;
}
);
width = 245;
}
);
unicode = 204;
userData = {
com.fontlab.hintData = {
hhints = (
{
position = 1800;
width = 394;
}
);
};
};
},
{
glyphname = Iinvertedbreve;
lastChange = "2023-07-06 13:31:19 +0000";
layers = (
{
background = {
shapes = (
{
closed = 1;
nodes = (
(109,0,l),
(194,810,l),
(140,810,l),
(55,0,l)
);
},
{
closed = 1;
nodes = (
(83,879,l),
(92,936,o),
(127,955,o),
(169,955,cs),
(211,955,o),
(241,936,o),
(237,879,c),
(274,879,l),
(278,954,o),
(239,990,o),
(172,990,cs),
(105,990,o),
(56,954,o),
(46,879,c)
);
}
);
};
layerId = "6D1B020D-7C4E-4885-9208-B35BA480FE8F";
shapes = (
{
ref = I;
},
{
pos = (-5,232);
ref = breveinvertedcomb;
}
);
width = 206;
},
{
background = {
shapes = (
{
closed = 1;
nodes = (
(229,0,l),
(314,810,l),
(120,810,l),
(35,0,l)
);
},
{
closed = 1;
nodes = (
(170,882,l),
(173,916,o),
(190,932,o),
(230,932,cs),
(270,932,o),
(282,916,o),
(279,882,c),
(352,882,l),
(359,960,o),
(311,1000,o),
(236,1000,cs),
(162,1000,o),
(105,959,o),
(97,882,c)
);
}
);
};
layerId = "BF03A18F-065F-4249-8E16-486B9CB494A0";
shapes = (
{
ref = I;
},
{
pos = (57,232);
ref = breveinvertedcomb;
}
);
width = 313;
},
{
background = {
shapes = (
{
closed = 1;
nodes = (
(153,0,l),
(238,810,l),
(131,810,l),
(46,0,l)
);
},
{
closed = 1;
nodes = (
(119,878,l),
(127,940,o),
(149,965,o),
(198,965,cs),
(247,965,o),
(264,941,o),
(258,878,c),
(319,878,l),
(327,960,o),
(307,1024,o),
(204,1024,cs),
(100,1024,o),
(67,961,o),
(58,878,c)
);
}
);
};
layerId = "43161617-4660-4075-B14A-1D8E25AEE542";
shapes = (
{
ref = I;
},
{
pos = (14,232);
ref = breveinvertedcomb;
}
);
width = 245;
}
);
unicode = 522;
userData = {
com.fontlab.hintData = {
hhints = (
{
position = 1948;
width = 48;
}
);
vhints = (
{
position = 49;
width = 54;
},
{
position = 433;
width = 54;
}
);
};
};
},
{
glyphname = Imacron;
lastChange = "2023-07-06 13:31:38 +0000";
layers = (
{
background = {
shapes = (
{
closed = 1;
nodes = (
(109,0,l),
(194,810,l),
(140,810,l),
(55,0,l)
);
},
{
closed = 1;
nodes = (
(245,878,l),
(249,915,l),
(78,915,l),
(75,878,l)
);
}
);
};
layerId = "6D1B020D-7C4E-4885-9208-B35BA480FE8F";
shapes = (
{
ref = I;
},
{
pos = (-83,232);
ref = macroncomb;
}
);
width = 206;
},
{
background = {
shapes = (
{
closed = 1;
nodes = (
(229,0,l),
(314,810,l),
(120,810,l),
(35,0,l)
);
},
{
closed = 1;
nodes = (
(373,881,l),
(381,960,l),
(86,960,l),
(77,881,l)
);
}
);
};
layerId = "BF03A18F-065F-4249-8E16-486B9CB494A0";
shapes = (
{
ref = I;
},
{
pos = (154,232);
ref = macroncomb;
}
);
width = 313;
},
{
background = {
shapes = (
{
closed = 1;
nodes = (
(153,0,l),
(238,810,l),
(131,810,l),
(46,0,l)
);
},
{
closed = 1;
nodes = (
(284,877,l),
(291,940,l),
(99,940,l),
(93,877,l)
);
}
);
};
layerId = "43161617-4660-4075-B14A-1D8E25AEE542";
shapes = (
{
ref = I;
},
{
pos = (-36,232);
ref = macroncomb;
}
);
width = 245;
}
);
unicode = 298;
userData = {
com.fontlab.hintData = {
hhints = (
{
position = 1806;
width = 163;
}
);
vhints = (
{
position = -77;
width = 562;
},
{
position = -2;
width = 412;
}
);
};
};
},
{
glyphname = Iogonek;
lastChange = "2023-07-06 13:33:10 +0000";
layers = (
{
background = {
shapes = (
{
closed = 1;
nodes = (
(109,0,l),
(194,810,l),
(140,810,l),
(55,0,l)
);
},
{
closed = 1;
nodes = (
(337,-168,l),
(289,-168,o),
(248,-154,o),
(252,-115,cs),
(256,-80,o),
(290,-37,o),
(333,2,c),
(303,2,l),
(257,-21,o),
(216,-72,o),
(210,-119,cs),
(205,-171,o),
(244,-199,o),
(325,-199,c)
);
}
);
};
layerId = "6D1B020D-7C4E-4885-9208-B35BA480FE8F";
shapes = (
{
ref = I;
},
{
pos = (51,-2);
ref = ogonek;
}
);
width = 206;
},
{
background = {
shapes = (
{
closed = 1;
nodes = (
(229,0,l),
(314,810,l),
(120,810,l),
(35,0,l)
);
},
{
closed = 1;
nodes = (
(500,-171,l),
(474,-171,o),
(411,-173,o),
(417,-115,cs),
(422,-71,o),
(444,-32,o),
(456,10,c),
(377,10,l),
(331,-31,o),
(297,-93,o),
(292,-144,cs),
(280,-255,o),
(406,-258,o),
(477,-256,c)
);
}
);
};
layerId = "BF03A18F-065F-4249-8E16-486B9CB494A0";
shapes = (
{
ref = I;
},
{
pos = (149,0);
ref = ogonek;
}
);
width = 313;
},
{
background = {
shapes = (
{
closed = 1;
nodes = (
(153,0,l),
(238,810,l),
(131,810,l),
(46,0,l)
);
},
{
closed = 1;
nodes = (
(383,-173,l),
(342,-173,o),
(270,-183,o),
(275,-138,cs),
(280,-89,o),
(340,-33,o),
(373,3,c),
(321,3,l),
(268,-13,o),
(203,-76,o),
(197,-140,cs),
(189,-218,o),
(257,-226,o),
(359,-226,c)
);
}
);
};
layerId = "43161617-4660-4075-B14A-1D8E25AEE542";
shapes = (
{
ref = I;
},
{
pos = (99,-3);
ref = ogonek;
}
);
width = 245;
}
);
unicode = 302;
userData = {
com.fontlab.hintData = {
hhints = (
{
position = -372;
width = 42;
}
);
};
};
},
{
glyphname = Itilde;
lastChange = "2023-07-06 13:12:48 +0000";
layers = (
{
background = {
shapes = (
{
closed = 1;
nodes = (
(109,0,l),
(194,810,l),
(140,810,l),
(55,0,l)
);
}
);
};
layerId = "6D1B020D-7C4E-4885-9208-B35BA480FE8F";
shapes = (
{
ref = I;
}
);
width = 206;
},
{
background = {
shapes = (
{
closed = 1;
nodes = (
(229,0,l),
(314,810,l),
(120,810,l),
(35,0,l)
);
}
);
};
layerId = "BF03A18F-065F-4249-8E16-486B9CB494A0";
shapes = (
{
ref = I;
}
);
width = 313;
},
{
background = {
shapes = (
{
closed = 1;
nodes = (
(153,0,l),
(238,810,l),
(131,810,l),
(46,0,l)
);
}
);
};
layerId = "43161617-4660-4075-B14A-1D8E25AEE542";
shapes = (
{
ref = I;
}
);
width = 245;
}
);
unicode = 296;
userData = {
com.fontlab.hintData = {
vhints = (
{
position = 58;
width = 55;
},
{
position = 456;
width = 49;
}
);
};
};
},
{
glyphname = J;
lastChange = "2023-07-06 13:16:51 +0000";
layers = (
{
anchors = (
{
name = bottom;
pos = (133,0);
},
{
name = top;
pos = (133,810);
}
);
background = {
shapes = (
{
closed = 1;
nodes = (
(11,-45,ls),
(147,-45,o),
(171,14,o),
(185,144,c),
(254,810,l),
(200,810,l),
(130,150,ls),
(117,21,o),
(106,-2,o),
(-13,-2,c),
(-18,-45,l)
);
}
);
};
layerId = "6D1B020D-7C4E-4885-9208-B35BA480FE8F";
shapes = (
{
closed = 1;
nodes = (
(11,-45,ls),
(147,-45,o),
(171,14,o),
(185,144,c),
(254,810,l),
(200,810,l),
(130,150,ls),
(117,21,o),
(106,-2,o),
(-13,-2,c),
(-18,-45,l)
);
}
);
width = 265;
},
{
anchors = (
{
name = bottom;
pos = (180,0);
},
{
name = top;
pos = (180,810);
}
);
background = {
shapes = (
{
closed = 1;
nodes = (
(82,-21,ls),
(231,-21,o),
(278,46,o),
(295,178,c),
(362,810,l),
(167,810,l),
(102,187,ls),
(95,125,o),
(68,113,o),
(1,114,c),
(-13,-21,l)
);
}
);
};
layerId = "BF03A18F-065F-4249-8E16-486B9CB494A0";
shapes = (
{
closed = 1;
nodes = (
(82,-21,ls),
(231,-21,o),
(278,46,o),
(295,178,c),
(362,810,l),
(167,810,l),
(102,187,ls),
(95,125,o),
(68,113,o),
(1,114,c),
(-13,-21,l)
);
}
);
width = 360;
},
{
anchors = (
{
name = bottom;
pos = (150,0);
},
{
name = top;
pos = (150,810);
}
);
background = {
shapes = (
{
closed = 1;
nodes = (
(33,-21,ls),
(173,-21,o),
(215,42,o),
(230,180,c),
(295,810,l),
(186,810,l),
(121,183,ls),
(110,79,o),
(88,58,o),
(-11,58,c),
(-19,-21,l)
);
}
);
};
layerId = "43161617-4660-4075-B14A-1D8E25AEE542";
shapes = (
{
closed = 1;
nodes = (
(33,-21,ls),
(173,-21,o),
(215,42,o),
(230,180,c),
(295,810,l),
(186,810,l),
(121,183,ls),
(110,79,o),
(88,58,o),
(-11,58,c),
(-19,-21,l)
);
}
);
width = 299;
}
);
unicode = 74;
userData = {
com.fontlab.hintData = {
hhints = (
{
position = -114;
width = 56;
}
);
};
};
},
{
glyphname = Jcircumflex;
lastChange = "2023-07-06 13:12:48 +0000";
layers = (
{
background = {
shapes = (
{
closed = 1;
nodes = (
(11,-45,ls),
(147,-45,o),
(171,14,o),
(185,144,c),
(254,810,l),
(200,810,l),
(130,150,ls),
(117,21,o),
(106,-2,o),
(-13,-2,c),
(-18,-45,l)
);
}
);
};
layerId = "6D1B020D-7C4E-4885-9208-B35BA480FE8F";
shapes = (
{
ref = J;
}
);
width = 265;
},
{
background = {
shapes = (
{
closed = 1;
nodes = (
(82,-21,ls),
(231,-21,o),
(278,46,o),
(295,178,c),
(362,810,l),
(167,810,l),
(102,187,ls),
(95,125,o),
(68,113,o),
(1,114,c),
(-13,-21,l)
);
}
);
};
layerId = "BF03A18F-065F-4249-8E16-486B9CB494A0";
shapes = (
{
ref = J;
}
);
width = 360;
},
{
background = {
shapes = (
{
closed = 1;
nodes = (
(33,-21,ls),
(173,-21,o),
(215,42,o),
(230,180,c),
(295,810,l),
(186,810,l),
(121,183,ls),
(110,79,o),
(88,58,o),
(-11,58,c),
(-19,-21,l)
);
}
);
};
layerId = "43161617-4660-4075-B14A-1D8E25AEE542";
shapes = (
{
ref = J;
}
);
width = 299;
}
);
unicode = 308;
userData = {
com.fontlab.hintData = {
hhints = (
{
position = -114;
width = 56;
}
);
};
};
},
{
glyphname = K;
lastChange = "2023-07-06 13:16:51 +0000";
layers = (
{
anchors = (
{
name = bottom;
pos = (230,0);
},
{
name = top;
pos = (230,810);
}
);
background = {
shapes = (
{
closed = 1;
nodes = (
(108,0,l),
(139,290,l),
(232,434,l),
(384,0,l),
(438,0,l),
(275,467,l),
(482,810,l),
(428,810,l),
(146,355,l),
(193,810,l),
(138,810,l),
(53,0,l)
);
}
);
};
layerId = "6D1B020D-7C4E-4885-9208-B35BA480FE8F";
shapes = (
{
closed = 1;
nodes = (
(108,0,l),
(139,290,l),
(232,434,l),
(384,0,l),
(438,0,l),
(275,467,l),
(482,810,l),
(428,810,l),
(146,355,l),
(193,810,l),
(138,810,l),
(53,0,l)
);
}
);
width = 460;
},
{
anchors = (
{
name = bottom;
pos = (292,0);
},
{
name = top;
pos = (292,810);
}
);
background = {
shapes = (
{
closed = 1;
nodes = (
(229,0,l),
(265,337,l),
(278,353,l),
(348,0,l),
(549,0,l),
(445,442,l),
(631,810,l),
(439,810,l),
(281,492,l),
(314,810,l),
(119,810,l),
(34,0,l)
);
}
);
};
layerId = "BF03A18F-065F-4249-8E16-486B9CB494A0";
shapes = (
{
closed = 1;
nodes = (
(229,0,l),
(265,337,l),
(278,353,l),
(348,0,l),
(549,0,l),
(445,442,l),
(631,810,l),
(439,810,l),
(281,492,l),
(314,810,l),
(119,810,l),
(34,0,l)
);
}
);
width = 583;
},
{
anchors = (
{
name = bottom;
pos = (247,0);
},
{
name = top;
pos = (247,810);
}
);
background = {
shapes = (
{
closed = 1;
nodes = (
(149,0,l),
(183,317,l),
(238,403,l),
(360,0,l),
(467,0,l),
(327,454,l),
(525,810,l),
(423,810,l),
(194,424,l),
(234,810,l),
(125,810,l),
(40,0,l)
);
}
);
};
layerId = "43161617-4660-4075-B14A-1D8E25AEE542";
shapes = (
{
closed = 1;
nodes = (
(149,0,l),
(183,317,l),
(238,403,l),
(360,0,l),
(467,0,l),
(327,454,l),
(525,810,l),
(423,810,l),
(194,424,l),
(234,810,l),
(125,810,l),
(40,0,l)
);
}
);
width = 493;
}
);
unicode = 75;
},
{
glyphname = Kcommaaccent;
lastChange = "2023-07-06 13:29:38 +0000";
layers = (
{
background = {
shapes = (
{
closed = 1;
nodes = (
(108,0,l),
(139,290,l),
(232,434,l),
(384,0,l),
(438,0,l),
(275,467,l),
(482,810,l),
(428,810,l),
(146,355,l),
(193,810,l),
(138,810,l),
(53,0,l)
);
},
{
closed = 1;
nodes = (
(231,-218,o),
(248,-184,o),
(254,-122,cs),
(261,-60,l),
(196,-60,l),
(188,-135,l),
(223,-135,l),
(221,-156,o),
(211,-196,o),
(173,-219,c),
(184,-240,l)
);
}
);
};
layerId = "6D1B020D-7C4E-4885-9208-B35BA480FE8F";
shapes = (
{
ref = K;
},
{
pos = (157,0);
ref = commaaccentcomb;
}
);
width = 460;
},
{
background = {
shapes = (
{
closed = 1;
nodes = (
(229,0,l),
(265,337,l),
(278,353,l),
(348,0,l),
(549,0,l),
(445,442,l),
(631,810,l),
(439,810,l),
(281,492,l),
(314,810,l),
(119,810,l),
(34,0,l)
);
},
{
closed = 1;
nodes = (
(290,-361,o),
(341,-303,o),
(353,-197,cs),
(367,-60,l),
(203,-60,l),
(186,-222,l),
(277,-222,l),
(271,-284,o),
(230,-300,o),
(194,-308,c),
(198,-362,l)
);
}
);
};
layerId = "BF03A18F-065F-4249-8E16-486B9CB494A0";
shapes = (
{
ref = K;
},
{
pos = (223,0);
ref = commaaccentcomb;
}
);
width = 583;
},
{
background = {
shapes = (
{
closed = 1;
nodes = (
(149,0,l),
(183,317,l),
(238,403,l),
(360,0,l),
(467,0,l),
(327,454,l),
(525,810,l),
(423,810,l),
(194,424,l),
(234,810,l),
(125,810,l),
(40,0,l)
);
},
{
closed = 1;
nodes = (
(262,-277,o),
(279,-231,o),
(287,-160,cs),
(298,-60,l),
(192,-60,l),
(181,-168,l),
(234,-168,l),
(231,-205,o),
(214,-226,o),
(173,-231,c),
(194,-282,l)
);
}
);
};
layerId = "43161617-4660-4075-B14A-1D8E25AEE542";
shapes = (
{
ref = K;
},
{
pos = (203,0);
ref = commaaccentcomb;
}
);
width = 493;
}
);
unicode = 310;
userData = {
com.fontlab.hintData = {
vhints = (
{
position = 395;
width = 100;
}
);
};
};
},
{
glyphname = L;
lastChange = "2023-07-06 13:20:11 +0000";
layers = (
{
anchors = (
{
name = bottom;
pos = (187,0);
},
{
name = center;
pos = (187,405);
},
{
name = top;
pos = (169,810);
},
{
name = topright;
pos = (353,810);
}
);
background = {
shapes = (
{
closed = 1;
nodes = (
(353,0,l),
(357,43,l),
(113,43,l),
(193,810,l),
(139,810,l),
(54,0,l)
);
}
);
};
layerId = "6D1B020D-7C4E-4885-9208-B35BA480FE8F";
shapes = (
{
closed = 1;
nodes = (
(353,0,l),
(357,43,l),
(113,43,l),
(193,810,l),
(139,810,l),
(54,0,l)
);
}
);
width = 373;
},
{
anchors = (
{
name = bottom;
pos = (225,0);
},
{
name = center;
pos = (225,405);
},
{
name = top;
pos = (214,810);
},
{
name = topright;
pos = (429,810);
}
);
background = {
shapes = (
{
closed = 1;
nodes = (
(410,0,l),
(424,130,l),
(243,130,l),
(314,810,l),
(119,810,l),
(34,0,l)
);
}
);
};
layerId = "BF03A18F-065F-4249-8E16-486B9CB494A0";
shapes = (
{
closed = 1;
nodes = (
(410,0,l),
(424,130,l),
(243,130,l),
(314,810,l),
(119,810,l),
(34,0,l)
);
}
);
width = 449;
},
{
anchors = (
{
name = bottom;
pos = (198,0);
},
{
name = center;
pos = (198,405);
},
{
name = top;
pos = (177,810);
},
{
name = topright;
pos = (376,810);
}
);
background = {
shapes = (
{
closed = 1;
nodes = (
(358,0,l),
(367,79,l),
(158,79,l),
(234,810,l),
(125,810,l),
(40,0,l)
);
}
);
};
layerId = "43161617-4660-4075-B14A-1D8E25AEE542";
shapes = (
{
closed = 1;
nodes = (
(358,0,l),
(367,79,l),
(158,79,l),
(234,810,l),
(125,810,l),
(40,0,l)
);
}
);
width = 396;
}
);
unicode = 76;
},
{
glyphname = LJ;
lastChange = "2023-07-06 13:12:48 +0000";
layers = (
{
background = {
shapes = (
{
closed = 1;
nodes = (
(11,-45,ls),
(147,-45,o),
(171,14,o),
(185,144,c),
(254,810,l),
(200,810,l),
(130,150,ls),
(117,21,o),
(106,-2,o),
(-13,-2,c),
(-18,-45,l)
);
},
{
closed = 1;
nodes = (
(618,0,l),
(622,43,l),
(378,43,l),
(458,810,l),
(404,810,l),
(319,0,l)
);
}
);
};
layerId = "6D1B020D-7C4E-4885-9208-B35BA480FE8F";
shapes = (
{
ref = J;
},
{
pos = (265,0);
ref = L;
}
);
width = 638;
},
{
background = {
shapes = (
{
closed = 1;
nodes = (
(82,-21,ls),
(231,-21,o),
(278,46,o),
(295,178,c),
(362,810,l),
(167,810,l),
(102,187,ls),
(95,125,o),
(68,113,o),
(1,114,c),
(-13,-21,l)
);
},
{
closed = 1;
nodes = (
(770,0,l),
(784,130,l),
(603,130,l),
(674,810,l),
(479,810,l),
(394,0,l)
);
}
);
};
layerId = "BF03A18F-065F-4249-8E16-486B9CB494A0";
shapes = (
{
ref = J;
},
{
pos = (360,0);
ref = L;
}
);
width = 809;
},
{
background = {
shapes = (
{
closed = 1;
nodes = (
(33,-21,ls),
(173,-21,o),
(215,42,o),
(230,180,c),
(295,810,l),
(186,810,l),
(121,183,ls),
(110,79,o),
(88,58,o),
(-11,58,c),
(-19,-21,l)
);
},
{
closed = 1;
nodes = (
(657,0,l),
(666,79,l),
(457,79,l),
(533,810,l),
(424,810,l),
(339,0,l)
);
}
);
};
layerId = "43161617-4660-4075-B14A-1D8E25AEE542";
shapes = (
{
ref = J;
},
{
pos = (299,0);
ref = L;
}
);
width = 695;
}
);
unicode = 455;
userData = {
com.fontlab.hintData = {
hhints = (
{
position = -114;
width = 56;
}
);
};
};
},
{
glyphname = Lacute;
lastChange = "2023-07-06 13:20:11 +0000";
layers = (
{
background = {
shapes = (
{
closed = 1;
nodes = (
(251,879,l),
(361,1073,l),
(308,1073,l),
(223,879,l)
);
},
{
closed = 1;
nodes = (
(353,0,l),
(357,43,l),
(113,43,l),
(193,810,l),
(139,810,l),
(54,0,l)
);
}
);
};
layerId = "6D1B020D-7C4E-4885-9208-B35BA480FE8F";
shapes = (
{
ref = L;
},
{
pos = (125,232);
ref = acutecomb;
}
);
width = 373;
},
{
background = {
shapes = (
{
closed = 1;
nodes = (
(307,881,l),
(457,1084,l),
(276,1084,l),
(193,881,l)
);
},
{
closed = 1;
nodes = (
(410,0,l),
(424,130,l),
(243,130,l),
(314,810,l),
(119,810,l),
(34,0,l)
);
}
);
};
layerId = "BF03A18F-065F-4249-8E16-486B9CB494A0";
shapes = (
{
ref = L;
},
{
pos = (109,232);
ref = acutecomb;
}
);
width = 449;
},
{
background = {
shapes = (
{
closed = 1;
nodes = (
(264,877,l),
(395,1075,l),
(291,1075,l),
(211,877,l)
);
},
{
closed = 1;
nodes = (
(358,0,l),
(367,79,l),
(158,79,l),
(234,810,l),
(125,810,l),
(40,0,l)
);
}
);
};
layerId = "43161617-4660-4075-B14A-1D8E25AEE542";
shapes = (
{
ref = L;
},
{
pos = (109,232);
ref = acutecomb;
}
);
width = 396;
}
);
unicode = 313;
userData = {
com.fontlab.hintData = {
hhints = (
{
position = 1800;
width = 394;
}
);
};
};
},
{
glyphname = Lcaron;
lastChange = "2023-07-06 13:29:24 +0000";
layers = (
{
background = {
shapes = (
{
closed = 1;
nodes = (
(518,589,l),
(568,819,l),
(514,819,l),
(490,589,l)
);
},
{
closed = 1;
nodes = (
(353,0,l),
(357,43,l),
(113,43,l),
(193,810,l),
(139,810,l),
(54,0,l)
);
}
);
};
layerId = "6D1B020D-7C4E-4885-9208-B35BA480FE8F";
shapes = (
{
ref = L;
},
{
pos = (94,232);
ref = caroncomb;
}
);
width = 373;
},
{
background = {
shapes = (
{
closed = 1;
nodes = (
(614,508,l),
(704,822,l),
(562,822,l),
(530,508,l)
);
},
{
closed = 1;
nodes = (
(410,0,l),
(424,130,l),
(243,130,l),
(314,810,l),
(119,810,l),
(34,0,l)
);
}
);
};
layerId = "BF03A18F-065F-4249-8E16-486B9CB494A0";
shapes = (
{
ref = L;
},
{
pos = (-45,232);
ref = caroncomb;
}
);
width = 449;
},
{
background = {
shapes = (
{
closed = 1;
nodes = (
(560,571,l),
(624,818,l),
(530,818,l),
(505,571,l)
);
},
{
closed = 1;
nodes = (
(358,0,l),
(367,79,l),
(158,79,l),
(234,810,l),
(125,810,l),
(40,0,l)
);
}
);
};
layerId = "43161617-4660-4075-B14A-1D8E25AEE542";
shapes = (
{
ref = L;
},
{
pos = (77,232);
ref = caroncomb;
}
);
width = 396;
}
);
unicode = 317;
userData = {
com.fontlab.hintData = {
hhints = (
{
position = 1031;
width = 653;
}
);
vhints = (
{
position = 960;
width = 176;
}
);
};
};
},
{
glyphname = Lcommaaccent;
lastChange = "2023-07-06 13:29:24 +0000";
layers = (
{
background = {
shapes = (
{
closed = 1;
nodes = (
(188,-218,o),
(205,-184,o),
(211,-122,cs),
(218,-60,l),
(153,-60,l),
(145,-135,l),
(180,-135,l),
(178,-156,o),
(168,-196,o),
(130,-219,c),
(141,-240,l)
);
},
{
closed = 1;
nodes = (
(353,0,l),
(357,43,l),
(113,43,l),
(193,810,l),
(139,810,l),
(54,0,l)
);
}
);
};
layerId = "6D1B020D-7C4E-4885-9208-B35BA480FE8F";
shapes = (
{
ref = L;
},
{
pos = (114,0);
ref = commaaccentcomb;
}
);
width = 373;
},
{
background = {
shapes = (
{
closed = 1;
nodes = (
(222,-361,o),
(273,-303,o),
(285,-197,cs),
(299,-60,l),
(135,-60,l),
(118,-222,l),
(209,-222,l),
(203,-284,o),
(162,-300,o),
(126,-308,c),
(130,-362,l)
);
},
{
closed = 1;
nodes = (
(410,0,l),
(424,130,l),
(243,130,l),
(314,810,l),
(119,810,l),
(34,0,l)
);
}
);
};
layerId = "BF03A18F-065F-4249-8E16-486B9CB494A0";
shapes = (
{
ref = L;
},
{
pos = (156,0);
ref = commaaccentcomb;
}
);
width = 449;
},
{
background = {
shapes = (
{
closed = 1;
nodes = (
(208,-277,o),
(225,-231,o),
(233,-160,cs),
(244,-60,l),
(138,-60,l),
(127,-168,l),
(180,-168,l),
(177,-205,o),
(160,-226,o),
(119,-231,c),
(140,-282,l)
);
},
{
closed = 1;
nodes = (
(358,0,l),
(367,79,l),
(158,79,l),
(234,810,l),
(125,810,l),
(40,0,l)
);
}
);
};
layerId = "43161617-4660-4075-B14A-1D8E25AEE542";
shapes = (
{
ref = L;
},
{
pos = (154,0);
ref = commaaccentcomb;
}
);
width = 396;
}
);
unicode = 315;
userData = {
com.fontlab.hintData = {
vhints = (
{
position = 317;
width = 100;
}
);
};
};
},
{
glyphname = Ldot;
lastChange = "2023-07-06 13:16:27 +0000";
layers = (
{
background = {
shapes = (
{
closed = 1;
nodes = (
(353,0,l),
(357,43,l),
(113,43,l),
(193,810,l),
(139,810,l),
(54,0,l)
);
},
{
closed = 1;
nodes = (
(254,372,l),
(262,447,l),
(208,447,l),
(200,372,l)
);
}
);
};
layerId = "6D1B020D-7C4E-4885-9208-B35BA480FE8F";
shapes = (
{
ref = L;
},
{
ref = periodcentered;
}
);
width = 373;
},
{
background = {
shapes = (
{
closed = 1;
nodes = (
(410,0,l),
(424,130,l),
(243,130,l),
(314,810,l),
(119,810,l),
(34,0,l)
);
},
{
closed = 1;
nodes = (
(339,330,l),
(356,492,l),
(191,492,l),
(174,330,l)
);
}
);
};
layerId = "BF03A18F-065F-4249-8E16-486B9CB494A0";
shapes = (
{
ref = L;
},
{
ref = periodcentered;
}
);
width = 449;
},
{
background = {
shapes = (
{
closed = 1;
nodes = (
(358,0,l),
(367,79,l),
(158,79,l),
(234,810,l),
(125,810,l),
(40,0,l)
);
},
{
closed = 1;
nodes = (
(285,355,l),
(296,463,l),
(193,463,l),
(181,355,l)
);
}
);
};
layerId = "43161617-4660-4075-B14A-1D8E25AEE542";
shapes = (
{
ref = L;
},
{
ref = periodcentered;
}
);
width = 396;
}
);
unicode = 319;
userData = {
com.fontlab.hintData = {
hhints = (
{
position = 777;
width = 123;
}
);
};
};
},
{
glyphname = Lj;
lastChange = "2023-07-06 13:12:48 +0000";
layers = (
{
background = {
shapes = (
{
closed = 1;
nodes = (
(52,-155,o),
(101,-121,o),
(110,-28,cs),
(174,578,l),
(121,578,l),
(57,-25,ls),
(53,-67,o),
(45,-111,o),
(-25,-111,cs),
(-27,-111,o),
(-46,-111,o),
(-48,-110,c),
(-52,-153,l),
(-48,-154,o),
(-28,-155,o),
(-23,-155,cs)
);
},
{
closed = 1;
nodes = (
(182,654,l),
(192,746,l),
(138,746,l),
(129,654,l)
);
},
{
closed = 1;
nodes = (
(555,0,l),
(559,43,l),
(315,43,l),
(395,810,l),
(341,810,l),
(256,0,l)
);
}
);
};
layerId = "6D1B020D-7C4E-4885-9208-B35BA480FE8F";
shapes = (
{
ref = j;
},
{
pos = (202,0);
ref = L;
}
);
width = 575;
},
{
background = {
shapes = (
{
closed = 1;
nodes = (
(145,-188,o),
(202,-121,o),
(211,-29,cs),
(275,578,l),
(99,578,l),
(38,-8,ls),
(34,-41,o),
(15,-51,o),
(-7,-51,cs),
(-17,-51,o),
(-26,-49,o),
(-36,-47,c),
(-49,-174,l),
(-21,-182,o),
(10,-188,o),
(44,-188,cs)
);
},
{
closed = 1;
nodes = (
(286,678,l),
(298,793,l),
(121,793,l),
(109,678,l)
);
},
{
closed = 1;
nodes = (
(698,0,l),
(712,130,l),
(531,130,l),
(602,810,l),
(407,810,l),
(322,0,l)
);
}
);
};
layerId = "BF03A18F-065F-4249-8E16-486B9CB494A0";
shapes = (
{
ref = j;
},
{
pos = (288,0);
ref = L;
}
);
width = 737;
},
{
background = {
shapes = (
{
closed = 1;
nodes = (
(82,-146,o),
(139,-98,o),
(149,-8,cs),
(210,578,l),
(107,578,l),
(46,3,ls),
(42,-38,o),
(26,-68,o),
(-21,-68,cs),
(-28,-68,o),
(-43,-66,o),
(-49,-65,c),
(-57,-140,l),
(-44,-145,o),
(-21,-146,o),
(-5,-146,cs)
);
},
{
closed = 1;
nodes = (
(220,663,l),
(232,774,l),
(127,774,l),
(116,663,l)
);
},
{
closed = 1;
nodes = (
(587,0,l),
(596,79,l),
(387,79,l),
(463,810,l),
(354,810,l),
(269,0,l)
);
}
);
};
layerId = "43161617-4660-4075-B14A-1D8E25AEE542";
shapes = (
{
ref = j;
},
{
pos = (229,0);
ref = L;
}
);
width = 625;
}
);
unicode = 456;
userData = {
com.fontlab.hintData = {
hhints = (
{
position = -324;
width = 58;
}
);
};
};
},
{
glyphname = Lslash;
lastChange = "2023-07-06 13:12:39 +0000";
layers = (
{
background = {
shapes = (
{
closed = 1;
nodes = (
(353,0,l),
(357,43,l),
(113,43,l),
(155,437,l),
(283,500,l),
(288,544,l),
(159,481,l),
(193,810,l),
(139,810,l),
(101,452,l),
(26,415,l),
(21,371,l),
(96,408,l),
(54,0,l)
);
}
);
};
layerId = "6D1B020D-7C4E-4885-9208-B35BA480FE8F";
shapes = (
{
closed = 1;
nodes = (
(353,0,l),
(357,43,l),
(113,43,l),
(155,437,l),
(283,500,l),
(288,544,l),
(159,481,l),
(193,810,l),
(139,810,l),
(101,452,l),
(26,415,l),
(21,371,l),
(96,408,l),
(54,0,l)
);
}
);
width = 373;
},
{
background = {
shapes = (
{
closed = 1;
nodes = (
(420,0,l),
(434,130,l),
(253,130,l),
(286,443,l),
(388,488,l),
(398,588,l),
(296,543,l),
(324,810,l),
(129,810,l),
(92,455,l),
(32,428,l),
(21,327,l),
(82,354,l),
(44,0,l)
);
}
);
};
layerId = "BF03A18F-065F-4249-8E16-486B9CB494A0";
shapes = (
{
closed = 1;
nodes = (
(420,0,l),
(434,130,l),
(253,130,l),
(286,443,l),
(388,488,l),
(398,588,l),
(296,543,l),
(324,810,l),
(129,810,l),
(92,455,l),
(32,428,l),
(21,327,l),
(82,354,l),
(44,0,l)
);
}
);
width = 463;
},
{
background = {
shapes = (
{
closed = 1;
nodes = (
(358,0,l),
(367,79,l),
(158,79,l),
(196,440,l),
(308,498,l),
(317,582,l),
(205,524,l),
(234,810,l),
(125,810,l),
(89,463,l),
(16,425,l),
(7,341,l),
(80,379,l),
(40,0,l)
);
}
);
};
layerId = "43161617-4660-4075-B14A-1D8E25AEE542";
shapes = (
{
closed = 1;
nodes = (
(358,0,l),
(367,79,l),
(158,79,l),
(196,440,l),
(308,498,l),
(317,582,l),
(205,524,l),
(234,810,l),
(125,810,l),
(89,463,l),
(16,425,l),
(7,341,l),
(80,379,l),
(40,0,l)
);
}
);
width = 396;
}
);
unicode = 321;
},
{
glyphname = M;
lastChange = "2023-07-06 13:16:51 +0000";
layers = (
{
anchors = (
{
name = bottom;
pos = (316,0);
},
{
name = top;
pos = (316,810);
}
);
background = {
shapes = (
{
closed = 1;
nodes = (
(91,0,l),
(183,678,l),
(274,0,l),
(314,0,l),
(551,679,l),
(499,0,l),
(546,0,l),
(608,810,l),
(552,810,l),
(302,79,l),
(207,810,l),
(153,810,l),
(44,0,l)
);
}
);
};
layerId = "6D1B020D-7C4E-4885-9208-B35BA480FE8F";
shapes = (
{
closed = 1;
nodes = (
(91,0,l),
(183,678,l),
(274,0,l),
(314,0,l),
(551,679,l),
(499,0,l),
(546,0,l),
(608,810,l),
(552,810,l),
(302,79,l),
(207,810,l),
(153,810,l),
(44,0,l)
);
}
);
width = 632;
},
{
anchors = (
{
name = bottom;
pos = (356,0);
},
{
name = top;
pos = (356,810);
}
);
background = {
shapes = (
{
closed = 1;
nodes = (
(168,0,l),
(238,532,l),
(272,0,l),
(396,0,l),
(537,527,l),
(496,0,l),
(633,0,l),
(704,810,l),
(501,810,l),
(372,383,l),
(340,810,l),
(128,810,l),
(30,0,l)
);
}
);
};
layerId = "BF03A18F-065F-4249-8E16-486B9CB494A0";
shapes = (
{
closed = 1;
nodes = (
(168,0,l),
(238,532,l),
(272,0,l),
(396,0,l),
(537,527,l),
(496,0,l),
(633,0,l),
(704,810,l),
(501,810,l),
(372,383,l),
(340,810,l),
(128,810,l),
(30,0,l)
);
}
);
width = 711;
},
{
anchors = (
{
name = bottom;
pos = (329,0);
},
{
name = top;
pos = (329,810);
}
);
background = {
shapes = (
{
closed = 1;
nodes = (
(127,0,l),
(199,594,l),
(274,0,l),
(336,0,l),
(538,594,l),
(485,0,l),
(573,0,l),
(643,810,l),
(536,810,l),
(320,148,l),
(245,810,l),
(138,810,l),
(38,0,l)
);
}
);
};
layerId = "43161617-4660-4075-B14A-1D8E25AEE542";
shapes = (
{
closed = 1;
nodes = (
(127,0,l),
(199,594,l),
(274,0,l),
(336,0,l),
(538,594,l),
(485,0,l),
(573,0,l),
(643,810,l),
(536,810,l),
(320,148,l),
(245,810,l),
(138,810,l),
(38,0,l)
);
}
);
width = 658;
}
);
unicode = 77;
userData = {
com.fontlab.hintData = {
vhints = (
{
position = 36;
width = 290;
},
{
position = 63;
width = 291;
},
{
position = 962;
width = 291;
},
{
position = 994;
width = 286;
}
);
};
};
},
{
glyphname = Mdotaccent;
lastChange = "2023-07-06 13:12:48 +0000";
layers = (
{
background = {
shapes = (
{
closed = 1;
nodes = (
(91,0,l),
(183,678,l),
(274,0,l),
(314,0,l),
(551,679,l),
(499,0,l),
(546,0,l),
(608,810,l),
(552,810,l),
(302,79,l),
(207,810,l),
(153,810,l),
(44,0,l)
);
}
);
};
layerId = "6D1B020D-7C4E-4885-9208-B35BA480FE8F";
shapes = (
{
ref = M;
}
);
width = 632;
},
{
background = {
shapes = (
{
closed = 1;
nodes = (
(168,0,l),
(238,532,l),
(272,0,l),
(396,0,l),
(537,527,l),
(496,0,l),
(633,0,l),
(704,810,l),
(501,810,l),
(372,383,l),
(340,810,l),
(128,810,l),
(30,0,l)
);
}
);
};
layerId = "BF03A18F-065F-4249-8E16-486B9CB494A0";
shapes = (
{
ref = M;
}
);
width = 711;
},
{
background = {
shapes = (
{
closed = 1;
nodes = (
(127,0,l),
(199,594,l),
(274,0,l),
(336,0,l),
(538,594,l),
(485,0,l),
(573,0,l),
(643,810,l),
(536,810,l),
(320,148,l),
(245,810,l),
(138,810,l),
(38,0,l)
);
}
);
};
layerId = "43161617-4660-4075-B14A-1D8E25AEE542";
shapes = (
{
ref = M;
}
);
width = 658;
}
);
unicode = 7744;
userData = {
com.fontlab.hintData = {
hhints = (
{
position = 1800;
width = 161;
}
);
};
};
},
{
glyphname = N;
lastChange = "2023-07-06 13:20:36 +0000";
layers = (
{
anchors = (
{
name = bottom;
pos = (258,0);
},
{
name = top;
pos = (315,810);
}
);
background = {
shapes = (
{
closed = 1;
nodes = (
(102,0,l),
(174,685,l),
(377,0,l),
(420,0,l),
(505,810,l),
(457,810,l),
(385,126,l),
(183,810,l),
(139,810,l),
(54,0,l)
);
}
);
};
layerId = "6D1B020D-7C4E-4885-9208-B35BA480FE8F";
shapes = (
{
closed = 1;
nodes = (
(102,0,l),
(174,685,l),
(377,0,l),
(420,0,l),
(505,810,l),
(457,810,l),
(385,126,l),
(183,810,l),
(139,810,l),
(54,0,l)
);
}
);
width = 515;
},
{
anchors = (
{
name = bottom;
pos = (284,0);
},
{
name = top;
pos = (344,810);
}
);
background = {
shapes = (
{
closed = 1;
nodes = (
(202,0,l),
(243,387,l),
(352,0,l),
(485,0,l),
(570,810,l),
(408,810,l),
(371,456,l),
(257,810,l),
(119,810,l),
(34,0,l)
);
}
);
};
layerId = "BF03A18F-065F-4249-8E16-486B9CB494A0";
shapes = (
{
closed = 1;
nodes = (
(202,0,l),
(243,387,l),
(352,0,l),
(485,0,l),
(570,810,l),
(408,810,l),
(371,456,l),
(257,810,l),
(119,810,l),
(34,0,l)
);
}
);
width = 568;
},
{
anchors = (
{
name = bottom;
pos = (264,0);
},
{
name = top;
pos = (320,810);
}
);
background = {
shapes = (
{
closed = 1;
nodes = (
(132,0,l),
(192,562,l),
(369,0,l),
(439,0,l),
(524,810,l),
(433,810,l),
(375,263,l),
(200,810,l),
(125,810,l),
(40,0,l)
);
}
);
};
layerId = "43161617-4660-4075-B14A-1D8E25AEE542";
shapes = (
{
closed = 1;
nodes = (
(132,0,l),
(192,562,l),
(369,0,l),
(439,0,l),
(524,810,l),
(433,810,l),
(375,263,l),
(200,810,l),
(125,810,l),
(40,0,l)
);
}
);
width = 527;
}
);
unicode = 78;
},
{
glyphname = NJ;
lastChange = "2023-07-06 13:12:48 +0000";
layers = (
{
background = {
shapes = (
{
closed = 1;
nodes = (
(11,-45,ls),
(147,-45,o),
(171,14,o),
(185,144,c),
(254,810,l),
(200,810,l),
(130,150,ls),
(117,21,o),
(106,-2,o),
(-13,-2,c),
(-18,-45,l)
);
},
{
closed = 1;
nodes = (
(367,0,l),
(439,685,l),
(642,0,l),
(685,0,l),
(770,810,l),
(722,810,l),
(650,126,l),
(448,810,l),
(404,810,l),
(319,0,l)
);
}
);
};
layerId = "6D1B020D-7C4E-4885-9208-B35BA480FE8F";
shapes = (
{
ref = J;
},
{
pos = (265,0);
ref = N;
}
);
width = 780;
},
{
background = {
shapes = (
{
closed = 1;
nodes = (
(82,-21,ls),
(231,-21,o),
(278,46,o),
(295,178,c),
(362,810,l),
(167,810,l),
(102,187,ls),
(95,125,o),
(68,113,o),
(1,114,c),
(-13,-21,l)
);
},
{
closed = 1;
nodes = (
(562,0,l),
(603,387,l),
(712,0,l),
(845,0,l),
(930,810,l),
(768,810,l),
(731,456,l),
(617,810,l),
(479,810,l),
(394,0,l)
);
}
);
};
layerId = "BF03A18F-065F-4249-8E16-486B9CB494A0";
shapes = (
{
ref = J;
},
{
pos = (360,0);
ref = N;
}
);
width = 928;
},
{
background = {
shapes = (
{
closed = 1;
nodes = (
(33,-21,ls),
(173,-21,o),
(215,42,o),
(230,180,c),
(295,810,l),
(186,810,l),
(121,183,ls),
(110,79,o),
(88,58,o),
(-11,58,c),
(-19,-21,l)
);
},
{
closed = 1;
nodes = (
(431,0,l),
(491,562,l),
(668,0,l),
(738,0,l),
(823,810,l),
(732,810,l),
(674,263,l),
(499,810,l),
(424,810,l),
(339,0,l)
);
}
);
};
layerId = "43161617-4660-4075-B14A-1D8E25AEE542";
shapes = (
{
ref = J;
},
{
pos = (299,0);
ref = N;
}
);
width = 826;
}
);
unicode = 458;
userData = {
com.fontlab.hintData = {
hhints = (
{
position = -114;
width = 56;
}
);
};
};
},
{
glyphname = Nacute;
lastChange = "2023-07-06 13:20:36 +0000";
layers = (
{
background = {
shapes = (
{
closed = 1;
nodes = (
(283,879,l),
(393,1073,l),
(340,1073,l),
(255,879,l)
);
},
{
closed = 1;
nodes = (
(102,0,l),
(174,685,l),
(377,0,l),
(420,0,l),
(505,810,l),
(457,810,l),
(385,126,l),
(183,810,l),
(139,810,l),
(54,0,l)
);
}
);
};
layerId = "6D1B020D-7C4E-4885-9208-B35BA480FE8F";
shapes = (
{
ref = N;
},
{
pos = (271,232);
ref = acutecomb;
}
);
width = 515;
},
{
background = {
shapes = (
{
closed = 1;
nodes = (
(345,881,l),
(495,1084,l),
(314,1084,l),
(231,881,l)
);
},
{
closed = 1;
nodes = (
(202,0,l),
(243,387,l),
(352,0,l),
(485,0,l),
(570,810,l),
(408,810,l),
(371,456,l),
(257,810,l),
(119,810,l),
(34,0,l)
);
}
);
};
layerId = "BF03A18F-065F-4249-8E16-486B9CB494A0";
shapes = (
{
ref = N;
},
{
pos = (239,232);
ref = acutecomb;
}
);
width = 568;
},
{
background = {
shapes = (
{
closed = 1;
nodes = (
(301,877,l),
(432,1075,l),
(328,1075,l),
(248,877,l)
);
},
{
closed = 1;
nodes = (
(132,0,l),
(192,562,l),
(369,0,l),
(439,0,l),
(524,810,l),
(433,810,l),
(375,263,l),
(200,810,l),
(125,810,l),
(40,0,l)
);
}
);
};
layerId = "43161617-4660-4075-B14A-1D8E25AEE542";
shapes = (
{
ref = N;
},
{
pos = (252,232);
ref = acutecomb;
}
);
width = 527;
}
);
unicode = 323;
userData = {
com.fontlab.hintData = {
hhints = (
{
position = 1800;
width = 394;
}
);
};
};
},
{
glyphname = Ncaron;
lastChange = "2023-07-06 13:12:48 +0000";
layers = (
{
background = {
shapes = (
{
closed = 1;
nodes = (
(102,0,l),
(174,685,l),
(377,0,l),
(420,0,l),
(505,810,l),
(457,810,l),
(385,126,l),
(183,810,l),
(139,810,l),
(54,0,l)
);
}
);
};
layerId = "6D1B020D-7C4E-4885-9208-B35BA480FE8F";
shapes = (
{
ref = N;
}
);
width = 515;
},
{
background = {
shapes = (
{
closed = 1;
nodes = (
(202,0,l),
(243,387,l),
(352,0,l),
(485,0,l),
(570,810,l),
(408,810,l),
(371,456,l),
(257,810,l),
(119,810,l),
(34,0,l)
);
}
);
};
layerId = "BF03A18F-065F-4249-8E16-486B9CB494A0";
shapes = (
{
ref = N;
}
);
width = 568;
},
{
background = {
shapes = (
{
closed = 1;
nodes = (
(132,0,l),
(192,562,l),
(369,0,l),
(439,0,l),
(524,810,l),
(433,810,l),
(375,263,l),
(200,810,l),
(125,810,l),
(40,0,l)
);
}
);
};
layerId = "43161617-4660-4075-B14A-1D8E25AEE542";
shapes = (
{
ref = N;
}
);
width = 527;
}
);
unicode = 327;
userData = {
com.fontlab.hintData = {
hhints = (
{
position = 1806;
width = 389;
}
);
};
};
},
{
glyphname = Ncommaaccent;
lastChange = "2023-07-06 13:29:24 +0000";
layers = (
{
background = {
shapes = (
{
closed = 1;
nodes = (
(222,-218,o),
(239,-184,o),
(245,-122,cs),
(252,-60,l),
(187,-60,l),
(179,-135,l),
(214,-135,l),
(212,-156,o),
(202,-196,o),
(164,-219,c),
(175,-240,l)
);
},
{
closed = 1;
nodes = (
(102,0,l),
(174,685,l),
(377,0,l),
(420,0,l),
(505,810,l),
(457,810,l),
(385,126,l),
(183,810,l),
(139,810,l),
(54,0,l)
);
}
);
};
layerId = "6D1B020D-7C4E-4885-9208-B35BA480FE8F";
shapes = (
{
ref = N;
},
{
pos = (185,0);
ref = commaaccentcomb;
}
);
width = 515;
},
{
background = {
shapes = (
{
closed = 1;
nodes = (
(259,-361,o),
(310,-303,o),
(322,-197,cs),
(336,-60,l),
(172,-60,l),
(155,-222,l),
(246,-222,l),
(240,-284,o),
(199,-300,o),
(163,-308,c),
(167,-362,l)
);
},
{
closed = 1;
nodes = (
(202,0,l),
(243,387,l),
(352,0,l),
(485,0,l),
(570,810,l),
(408,810,l),
(371,456,l),
(257,810,l),
(119,810,l),
(34,0,l)
);
}
);
};
layerId = "BF03A18F-065F-4249-8E16-486B9CB494A0";
shapes = (
{
ref = N;
},
{
pos = (215,0);
ref = commaaccentcomb;
}
);
width = 568;
},
{
background = {
shapes = (
{
closed = 1;
nodes = (
(248,-277,o),
(265,-231,o),
(273,-160,cs),
(284,-60,l),
(178,-60,l),
(167,-168,l),
(220,-168,l),
(217,-205,o),
(200,-226,o),
(159,-231,c),
(180,-282,l)
);
},
{
closed = 1;
nodes = (
(132,0,l),
(192,562,l),
(369,0,l),
(439,0,l),
(524,810,l),
(433,810,l),
(375,263,l),
(200,810,l),
(125,810,l),
(40,0,l)
);
}
);
};
layerId = "43161617-4660-4075-B14A-1D8E25AEE542";
shapes = (
{
ref = N;
},
{
pos = (220,0);
ref = commaaccentcomb;
}
);
width = 527;
}
);
unicode = 325;
userData = {
com.fontlab.hintData = {
vhints = (
{
position = 380;
width = 100;
}
);
};
};
},
{
glyphname = Nj;
lastChange = "2023-07-06 13:12:48 +0000";
layers = (
{
background = {
shapes = (
{
closed = 1;
nodes = (
(52,-155,o),
(101,-121,o),
(110,-28,cs),
(174,578,l),
(121,578,l),
(57,-25,ls),
(53,-67,o),
(45,-111,o),
(-25,-111,cs),
(-27,-111,o),
(-46,-111,o),
(-48,-110,c),
(-52,-153,l),
(-48,-154,o),
(-28,-155,o),
(-23,-155,cs)
);
},
{
closed = 1;
nodes = (
(182,654,l),
(192,746,l),
(138,746,l),
(129,654,l)
);
},
{
closed = 1;
nodes = (
(304,0,l),
(376,685,l),
(579,0,l),
(622,0,l),
(707,810,l),
(659,810,l),
(587,126,l),
(385,810,l),
(341,810,l),
(256,0,l)
);
}
);
};
layerId = "6D1B020D-7C4E-4885-9208-B35BA480FE8F";
shapes = (
{
ref = j;
},
{
pos = (202,0);
ref = N;
}
);
width = 717;
},
{
background = {
shapes = (
{
closed = 1;
nodes = (
(145,-188,o),
(202,-121,o),
(211,-29,cs),
(275,578,l),
(99,578,l),
(38,-8,ls),
(34,-41,o),
(15,-51,o),
(-7,-51,cs),
(-17,-51,o),
(-26,-49,o),
(-36,-47,c),
(-49,-174,l),
(-21,-182,o),
(10,-188,o),
(44,-188,cs)
);
},
{
closed = 1;
nodes = (
(286,678,l),
(298,793,l),
(121,793,l),
(109,678,l)
);
},
{
closed = 1;
nodes = (
(490,0,l),
(531,387,l),
(640,0,l),
(773,0,l),
(858,810,l),
(696,810,l),
(659,456,l),
(545,810,l),
(407,810,l),
(322,0,l)
);
}
);
};
layerId = "BF03A18F-065F-4249-8E16-486B9CB494A0";
shapes = (
{
ref = j;
},
{
pos = (288,0);
ref = N;
}
);
width = 856;
},
{
background = {
shapes = (
{
closed = 1;
nodes = (
(82,-146,o),
(139,-98,o),
(149,-8,cs),
(210,578,l),
(107,578,l),
(46,3,ls),
(42,-38,o),
(26,-68,o),
(-21,-68,cs),
(-28,-68,o),
(-43,-66,o),
(-49,-65,c),
(-57,-140,l),
(-44,-145,o),
(-21,-146,o),
(-5,-146,cs)
);
},
{
closed = 1;
nodes = (
(220,663,l),
(232,774,l),
(127,774,l),
(116,663,l)
);
},
{
closed = 1;
nodes = (
(361,0,l),
(421,562,l),
(598,0,l),
(668,0,l),
(753,810,l),
(662,810,l),
(604,263,l),
(429,810,l),
(354,810,l),
(269,0,l)
);
}
);
};
layerId = "43161617-4660-4075-B14A-1D8E25AEE542";
shapes = (
{
ref = j;
},
{
pos = (229,0);
ref = N;
}
);
width = 756;
}
);
unicode = 459;
userData = {
com.fontlab.hintData = {
hhints = (
{
position = -324;
width = 58;
}
);
};
};
},
{
glyphname = Ntilde;
lastChange = "2023-07-06 13:12:48 +0000";
layers = (
{
background = {
shapes = (
{
closed = 1;
nodes = (
(102,0,l),
(174,685,l),
(377,0,l),
(420,0,l),
(505,810,l),
(457,810,l),
(385,126,l),
(183,810,l),
(139,810,l),
(54,0,l)
);
}
);
};
layerId = "6D1B020D-7C4E-4885-9208-B35BA480FE8F";
shapes = (
{
ref = N;
}
);
width = 515;
},
{
background = {
shapes = (
{
closed = 1;
nodes = (
(202,0,l),
(243,387,l),
(352,0,l),
(485,0,l),
(570,810,l),
(408,810,l),
(371,456,l),
(257,810,l),
(119,810,l),
(34,0,l)
);
}
);
};
layerId = "BF03A18F-065F-4249-8E16-486B9CB494A0";
shapes = (
{
ref = N;
}
);
width = 568;
},
{
background = {
shapes = (
{
closed = 1;
nodes = (
(132,0,l),
(192,562,l),
(369,0,l),
(439,0,l),
(524,810,l),
(433,810,l),
(375,263,l),
(200,810,l),
(125,810,l),
(40,0,l)
);
}
);
};
layerId = "43161617-4660-4075-B14A-1D8E25AEE542";
shapes = (
{
ref = N;
}
);
width = 527;
}
);
unicode = 209;
userData = {
com.fontlab.hintData = {
vhints = (
{
position = 386;
width = 55;
},
{
position = 784;
width = 49;
}
);
};
};
},
{
glyphname = Eng;
lastChange = "2023-07-06 13:16:51 +0000";
layers = (
{
anchors = (
{
name = bottom;
pos = (269,0);
},
{
name = top;
pos = (269,810);
}
);
background = {
shapes = (
{
closed = 1;
nodes = (
(281,-141,ls),
(381,-141,o),
(411,-92,o),
(420,0,cs),
(505,810,l),
(458,810,l),
(387,126,l),
(183,810,l),
(139,810,l),
(54,0,l),
(101,0,l),
(172,685,l),
(374,12,l),
(371,-14,ls),
(364,-81,o),
(343,-104,o),
(254,-103,c),
(250,-141,l)
);
}
);
};
layerId = "6D1B020D-7C4E-4885-9208-B35BA480FE8F";
shapes = (
{
closed = 1;
nodes = (
(281,-141,ls),
(381,-141,o),
(411,-92,o),
(420,0,cs),
(505,810,l),
(458,810,l),
(387,126,l),
(183,810,l),
(139,810,l),
(54,0,l),
(101,0,l),
(172,685,l),
(374,12,l),
(371,-14,ls),
(364,-81,o),
(343,-104,o),
(254,-103,c),
(250,-141,l)
);
}
);
width = 538;
},
{
anchors = (
{
name = bottom;
pos = (289,0);
},
{
name = top;
pos = (289,810);
}
);
background = {
shapes = (
{
closed = 1;
nodes = (
(275,-215,ls),
(430,-215,o),
(474,-141,o),
(489,0,cs),
(574,810,l),
(414,810,l),
(376,456,l),
(262,810,l),
(124,810,l),
(39,0,l),
(206,0,l),
(247,387,l),
(347,84,l),
(335,-21,ls),
(329,-81,o),
(292,-103,o),
(205,-102,c),
(193,-215,l)
);
}
);
};
layerId = "BF03A18F-065F-4249-8E16-486B9CB494A0";
shapes = (
{
closed = 1;
nodes = (
(275,-215,ls),
(430,-215,o),
(474,-141,o),
(489,0,cs),
(574,810,l),
(414,810,l),
(376,456,l),
(262,810,l),
(124,810,l),
(39,0,l),
(206,0,l),
(247,387,l),
(347,84,l),
(335,-21,ls),
(329,-81,o),
(292,-103,o),
(205,-102,c),
(193,-215,l)
);
}
);
width = 577;
},
{
anchors = (
{
name = bottom;
pos = (266,0);
},
{
name = top;
pos = (266,810);
}
);
background = {
shapes = (
{
closed = 1;
nodes = (
(263,-181,ls),
(390,-181,o),
(427,-118,o),
(439,0,cs),
(524,810,l),
(438,810,l),
(381,263,l),
(200,810,l),
(125,810,l),
(40,0,l),
(127,0,l),
(186,562,l),
(356,41,l),
(353,8,ls),
(344,-78,o),
(333,-106,o),
(233,-106,c),
(225,-181,l)
);
}
);
};
layerId = "43161617-4660-4075-B14A-1D8E25AEE542";
shapes = (
{
closed = 1;
nodes = (
(263,-181,ls),
(390,-181,o),
(427,-118,o),
(439,0,cs),
(524,810,l),
(438,810,l),
(381,263,l),
(200,810,l),
(125,810,l),
(40,0,l),
(127,0,l),
(186,562,l),
(356,41,l),
(353,8,ls),
(344,-78,o),
(333,-106,o),
(233,-106,c),
(225,-181,l)
);
}
);
width = 531;
}
);
unicode = 330;
userData = {
com.fontlab.hintData = {
hhints = (
{
position = -252;
width = 45;
}
);
};
};
},
{
glyphname = O;
lastChange = "2023-07-06 13:22:22 +0000";
layers = (
{
anchors = (
{
name = bottom;
pos = (258,0);
},
{
name = center;
pos = (258,405);
},
{
name = ogonek;
pos = (464,10);
},
{
name = top;
pos = (328,810);
},
{
name = topleft;
pos = (20,810);
},
{
name = topright;
pos = (496,810);
}
);
background = {
shapes = (
{
closed = 1;
nodes = (
(393,-11,o),
(446,91,o),
(461,229,cs),
(499,584,ls),
(513,721,o),
(476,819,o),
(323,819,cs),
(169,819,o),
(113,722,o),
(99,584,cs),
(61,230,ls),
(47,92,o),
(77,-11,o),
(236,-11,cs)
);
},
{
closed = 1;
nodes = (
(124,34,o),
(104,108,o),
(115,218,cs),
(154,592,ls),
(166,702,o),
(202,774,o),
(318,774,cs),
(435,774,o),
(456,702,o),
(444,592,cs),
(405,218,ls),
(394,108,o),
(356,34,o),
(240,34,cs)
);
}
);
};
layerId = "6D1B020D-7C4E-4885-9208-B35BA480FE8F";
shapes = (
{
closed = 1;
nodes = (
(393,-11,o),
(446,91,o),
(461,229,cs),
(499,584,ls),
(513,721,o),
(476,819,o),
(323,819,cs),
(169,819,o),
(113,722,o),
(99,584,cs),
(61,230,ls),
(47,92,o),
(77,-11,o),
(236,-11,cs)
);
},
{
closed = 1;
nodes = (
(124,34,o),
(104,108,o),
(115,218,cs),
(154,592,ls),
(166,702,o),
(202,774,o),
(318,774,cs),
(435,774,o),
(456,702,o),
(444,592,cs),
(405,218,ls),
(394,108,o),
(356,34,o),
(240,34,cs)
);
}
);
width = 516;
},
{
anchors = (
{
name = bottom;
pos = (299,0);
},
{
name = center;
pos = (299,405);
},
{
name = ogonek;
pos = (537,10);
},
{
name = top;
pos = (359,810);
},
{
name = topleft;
pos = (20,810);
},
{
name = topright;
pos = (577,810);
}
);
background = {
shapes = (
{
closed = 1;
nodes = (
(458,-12,o),
(533,86,o),
(551,255,cs),
(582,554,ls),
(600,723,o),
(546,822,o),
(359,822,cs),
(172,822,o),
(101,724,o),
(83,554,cs),
(51,255,ls),
(33,86,o),
(84,-12,o),
(271,-12,cs)
);
},
{
closed = 1;
nodes = (
(239,123,o),
(242,169,o),
(246,206,cs),
(288,604,ls),
(292,641,o),
(298,687,o),
(345,687,cs),
(393,687,o),
(391,641,o),
(387,604,cs),
(345,206,ls),
(341,169,o),
(333,123,o),
(286,123,cs)
);
}
);
};
layerId = "BF03A18F-065F-4249-8E16-486B9CB494A0";
shapes = (
{
closed = 1;
nodes = (
(458,-12,o),
(533,86,o),
(551,255,cs),
(582,554,ls),
(600,723,o),
(546,822,o),
(359,822,cs),
(172,822,o),
(101,724,o),
(83,554,cs),
(51,255,ls),
(33,86,o),
(84,-12,o),
(271,-12,cs)
);
},
{
closed = 1;
nodes = (
(239,123,o),
(242,169,o),
(246,206,cs),
(288,604,ls),
(292,641,o),
(298,687,o),
(345,687,cs),
(393,687,o),
(391,641,o),
(387,604,cs),
(345,206,ls),
(341,169,o),
(333,123,o),
(286,123,cs)
);
}
);
width = 597;
},
{
anchors = (
{
name = bottom;
pos = (269,0);
},
{
name = center;
pos = (269,405);
},
{
name = ogonek;
pos = (484,10);
},
{
name = top;
pos = (329,810);
},
{
name = topleft;
pos = (20,810);
},
{
name = topright;
pos = (518,810);
}
);
background = {
shapes = (
{
closed = 1;
nodes = (
(407,-9,o),
(475,94,o),
(491,252,cs),
(524,562,ls),
(541,720,o),
(494,818,o),
(331,818,cs),
(168,818,o),
(101,721,o),
(84,562,cs),
(52,252,ls),
(35,93,o),
(80,-9,o),
(244,-9,cs)
);
},
{
closed = 1;
nodes = (
(161,77,o),
(150,137,o),
(160,229,cs),
(197,584,ls),
(207,676,o),
(230,732,o),
(322,732,cs),
(415,732,o),
(426,675,o),
(416,584,cs),
(379,229,ls),
(369,137,o),
(346,77,o),
(253,77,cs)
);
}
);
};
layerId = "43161617-4660-4075-B14A-1D8E25AEE542";
shapes = (
{
closed = 1;
nodes = (
(407,-9,o),
(475,94,o),
(491,252,cs),
(524,562,ls),
(541,720,o),
(494,818,o),
(331,818,cs),
(168,818,o),
(101,721,o),
(84,562,cs),
(52,252,ls),
(35,93,o),
(80,-9,o),
(244,-9,cs)
);
},
{
closed = 1;
nodes = (
(161,77,o),
(150,137,o),
(160,229,cs),
(197,584,ls),
(207,676,o),
(230,732,o),
(322,732,cs),
(415,732,o),
(426,675,o),
(416,584,cs),
(379,229,ls),
(369,137,o),
(346,77,o),
(253,77,cs)
);
}
);
width = 538;
}
);
unicode = 79;
userData = {
com.fontlab.hintData = {
hhints = (
{
position = -24;
width = 56;
},
{
position = 1623;
width = 55;
}
);
};
};
},
{
glyphname = Oacute;
lastChange = "2023-07-06 13:22:22 +0000";
layers = (
{
background = {
shapes = (
{
closed = 1;
nodes = (
(284,879,l),
(394,1073,l),
(341,1073,l),
(256,879,l)
);
},
{
closed = 1;
nodes = (
(393,-11,o),
(446,91,o),
(461,229,cs),
(499,584,ls),
(513,721,o),
(476,819,o),
(323,819,cs),
(169,819,o),
(113,722,o),
(99,584,cs),
(61,230,ls),
(47,92,o),
(77,-11,o),
(236,-11,cs)
);
},
{
closed = 1;
nodes = (
(124,34,o),
(104,108,o),
(115,218,cs),
(154,592,ls),
(166,702,o),
(202,774,o),
(318,774,cs),
(435,774,o),
(456,702,o),
(444,592,cs),
(405,218,ls),
(394,108,o),
(356,34,o),
(240,34,cs)
);
}
);
};
layerId = "6D1B020D-7C4E-4885-9208-B35BA480FE8F";
shapes = (
{
ref = O;
},
{
pos = (284,232);
ref = acutecomb;
}
);
width = 516;
},
{
background = {
shapes = (
{
closed = 1;
nodes = (
(358,881,l),
(508,1084,l),
(327,1084,l),
(244,881,l)
);
},
{
closed = 1;
nodes = (
(458,-12,o),
(533,86,o),
(551,255,cs),
(582,554,ls),
(600,723,o),
(546,822,o),
(359,822,cs),
(172,822,o),
(101,724,o),
(83,554,cs),
(51,255,ls),
(33,86,o),
(84,-12,o),
(271,-12,cs)
);
},
{
closed = 1;
nodes = (
(239,123,o),
(242,169,o),
(246,206,cs),
(288,604,ls),
(292,641,o),
(298,687,o),
(345,687,cs),
(393,687,o),
(391,641,o),
(387,604,cs),
(345,206,ls),
(341,169,o),
(333,123,o),
(286,123,cs)
);
}
);
};
layerId = "BF03A18F-065F-4249-8E16-486B9CB494A0";
shapes = (
{
ref = O;
},
{
pos = (254,232);
ref = acutecomb;
}
);
width = 597;
},
{
background = {
shapes = (
{
closed = 1;
nodes = (
(306,877,l),
(437,1075,l),
(333,1075,l),
(253,877,l)
);
},
{
closed = 1;
nodes = (
(407,-9,o),
(475,94,o),
(491,252,cs),
(524,562,ls),
(541,720,o),
(494,818,o),
(331,818,cs),
(168,818,o),
(101,721,o),
(84,562,cs),
(52,252,ls),
(35,93,o),
(80,-9,o),
(244,-9,cs)
);
},
{
closed = 1;
nodes = (
(161,77,o),
(150,137,o),
(160,229,cs),
(197,584,ls),
(207,676,o),
(230,732,o),
(322,732,cs),
(415,732,o),
(426,675,o),
(416,584,cs),
(379,229,ls),
(369,137,o),
(346,77,o),
(253,77,cs)
);
}
);
};
layerId = "43161617-4660-4075-B14A-1D8E25AEE542";
shapes = (
{
ref = O;
},
{
pos = (261,232);
ref = acutecomb;
}
);
width = 538;
}
);
unicode = 211;
userData = {
com.fontlab.hintData = {
hhints = (
{
position = -24;
width = 56;
},
{
position = 1623;
width = 55;
},
{
position = 1800;
width = 394;
}
);
};
};
},
{
glyphname = Obreve;
lastChange = "2023-07-06 13:12:48 +0000";
layers = (
{
background = {
shapes = (
{
closed = 1;
nodes = (
(393,-11,o),
(446,91,o),
(461,229,cs),
(499,584,ls),
(513,721,o),
(476,819,o),
(323,819,cs),
(169,819,o),
(113,722,o),
(99,584,cs),
(61,230,ls),
(47,92,o),
(77,-11,o),
(236,-11,cs)
);
},
{
closed = 1;
nodes = (
(124,34,o),
(104,108,o),
(115,218,cs),
(154,592,ls),
(166,702,o),
(202,774,o),
(318,774,cs),
(435,774,o),
(456,702,o),
(444,592,cs),
(405,218,ls),
(394,108,o),
(356,34,o),
(240,34,cs)
);
}
);
};
layerId = "6D1B020D-7C4E-4885-9208-B35BA480FE8F";
shapes = (
{
ref = O;
}
);
width = 516;
},
{
background = {
shapes = (
{
closed = 1;
nodes = (
(458,-12,o),
(533,86,o),
(551,255,cs),
(582,554,ls),
(600,723,o),
(546,822,o),
(359,822,cs),
(172,822,o),
(101,724,o),
(83,554,cs),
(51,255,ls),
(33,86,o),
(84,-12,o),
(271,-12,cs)
);
},
{
closed = 1;
nodes = (
(239,123,o),
(242,169,o),
(246,206,cs),
(288,604,ls),
(292,641,o),
(298,687,o),
(345,687,cs),
(393,687,o),
(391,641,o),
(387,604,cs),
(345,206,ls),
(341,169,o),
(333,123,o),
(286,123,cs)
);
}
);
};
layerId = "BF03A18F-065F-4249-8E16-486B9CB494A0";
shapes = (
{
ref = O;
}
);
width = 597;
},
{
background = {
shapes = (
{
closed = 1;
nodes = (
(407,-9,o),
(475,94,o),
(491,252,cs),
(524,562,ls),
(541,720,o),
(494,818,o),
(331,818,cs),
(168,818,o),
(101,721,o),
(84,562,cs),
(52,252,ls),
(35,93,o),
(80,-9,o),
(244,-9,cs)
);
},
{
closed = 1;
nodes = (
(161,77,o),
(150,137,o),
(160,229,cs),
(197,584,ls),
(207,676,o),
(230,732,o),
(322,732,cs),
(415,732,o),
(426,675,o),
(416,584,cs),
(379,229,ls),
(369,137,o),
(346,77,o),
(253,77,cs)
);
}
);
};
layerId = "43161617-4660-4075-B14A-1D8E25AEE542";
shapes = (
{
ref = O;
}
);
width = 538;
}
);
unicode = 334;
userData = {
com.fontlab.hintData = {
hhints = (
{
position = -24;
width = 56;
},
{
position = 1623;
width = 55;
},
{
position = 1800;
width = 48;
}
);
vhints = (
{
position = 403;
width = 54;
},
{
position = 787;
width = 54;
}
);
};
};
},
{
glyphname = Ocircumflex;
lastChange = "2023-07-06 13:12:48 +0000";
layers = (
{
background = {
shapes = (
{
closed = 1;
nodes = (
(393,-11,o),
(446,91,o),
(461,229,cs),
(499,584,ls),
(513,721,o),
(476,819,o),
(323,819,cs),
(169,819,o),
(113,722,o),
(99,584,cs),
(61,230,ls),
(47,92,o),
(77,-11,o),
(236,-11,cs)
);
},
{
closed = 1;
nodes = (
(124,34,o),
(104,108,o),
(115,218,cs),
(154,592,ls),
(166,702,o),
(202,774,o),
(318,774,cs),
(435,774,o),
(456,702,o),
(444,592,cs),
(405,218,ls),
(394,108,o),
(356,34,o),
(240,34,cs)
);
}
);
};
layerId = "6D1B020D-7C4E-4885-9208-B35BA480FE8F";
shapes = (
{
ref = O;
}
);
width = 516;
},
{
background = {
shapes = (
{
closed = 1;
nodes = (
(458,-12,o),
(533,86,o),
(551,255,cs),
(582,554,ls),
(600,723,o),
(546,822,o),
(359,822,cs),
(172,822,o),
(101,724,o),
(83,554,cs),
(51,255,ls),
(33,86,o),
(84,-12,o),
(271,-12,cs)
);
},
{
closed = 1;
nodes = (
(239,123,o),
(242,169,o),
(246,206,cs),
(288,604,ls),
(292,641,o),
(298,687,o),
(345,687,cs),
(393,687,o),
(391,641,o),
(387,604,cs),
(345,206,ls),
(341,169,o),
(333,123,o),
(286,123,cs)
);
}
);
};
layerId = "BF03A18F-065F-4249-8E16-486B9CB494A0";
shapes = (
{
ref = O;
}
);
width = 597;
},
{
background = {
shapes = (
{
closed = 1;
nodes = (
(407,-9,o),
(475,94,o),
(491,252,cs),
(524,562,ls),
(541,720,o),
(494,818,o),
(331,818,cs),
(168,818,o),
(101,721,o),
(84,562,cs),
(52,252,ls),
(35,93,o),
(80,-9,o),
(244,-9,cs)
);
},
{
closed = 1;
nodes = (
(161,77,o),
(150,137,o),
(160,229,cs),
(197,584,ls),
(207,676,o),
(230,732,o),
(322,732,cs),
(415,732,o),
(426,675,o),
(416,584,cs),
(379,229,ls),
(369,137,o),
(346,77,o),
(253,77,cs)
);
}
);
};
layerId = "43161617-4660-4075-B14A-1D8E25AEE542";
shapes = (
{
ref = O;
}
);
width = 538;
}
);
unicode = 212;
userData = {
com.fontlab.hintData = {
hhints = (
{
position = -24;
width = 56;
},
{
position = 1623;
width = 55;
}
);
};
};
},
{
glyphname = Odblgrave;
lastChange = "2023-07-06 13:29:48 +0000";
layers = (
{
background = {
shapes = (
{
closed = 1;
nodes = (
(323,878,l),
(283,1025,l),
(224,1025,l),
(296,878,l)
);
},
{
closed = 1;
nodes = (
(420,878,l),
(393,1025,l),
(341,1025,l),
(393,878,l)
);
},
{
closed = 1;
nodes = (
(393,-11,o),
(446,91,o),
(461,229,cs),
(499,584,ls),
(513,721,o),
(476,819,o),
(323,819,cs),
(169,819,o),
(113,722,o),
(99,584,cs),
(61,230,ls),
(47,92,o),
(77,-11,o),
(236,-11,cs)
);
},
{
closed = 1;
nodes = (
(124,34,o),
(104,108,o),
(115,218,cs),
(154,592,ls),
(166,702,o),
(202,774,o),
(318,774,cs),
(435,774,o),
(456,702,o),
(444,592,cs),
(405,218,ls),
(394,108,o),
(356,34,o),
(240,34,cs)
);
}
);
};
layerId = "6D1B020D-7C4E-4885-9208-B35BA480FE8F";
shapes = (
{
ref = O;
},
{
pos = (181,232);
ref = dblgravecomb;
}
);
width = 516;
},
{
background = {
shapes = (
{
closed = 1;
nodes = (
(371,882,l),
(328,1097,l),
(200,1097,l),
(275,882,l)
);
},
{
closed = 1;
nodes = (
(555,882,l),
(513,1097,l),
(388,1097,l),
(460,882,l)
);
},
{
closed = 1;
nodes = (
(458,-12,o),
(533,86,o),
(551,255,cs),
(582,554,ls),
(600,723,o),
(546,822,o),
(359,822,cs),
(172,822,o),
(101,724,o),
(83,554,cs),
(51,255,ls),
(33,86,o),
(84,-12,o),
(271,-12,cs)
);
},
{
closed = 1;
nodes = (
(239,123,o),
(242,169,o),
(246,206,cs),
(288,604,ls),
(292,641,o),
(298,687,o),
(345,687,cs),
(393,687,o),
(391,641,o),
(387,604,cs),
(345,206,ls),
(341,169,o),
(333,123,o),
(286,123,cs)
);
}
);
};
layerId = "BF03A18F-065F-4249-8E16-486B9CB494A0";
shapes = (
{
ref = O;
},
{
pos = (116,232);
ref = dblgravecomb;
}
);
width = 597;
},
{
background = {
shapes = (
{
closed = 1;
nodes = (
(352,877,l),
(313,1046,l),
(208,1046,l),
(301,877,l)
);
},
{
closed = 1;
nodes = (
(479,877,l),
(456,1046,l),
(370,1046,l),
(427,877,l)
);
},
{
closed = 1;
nodes = (
(407,-9,o),
(475,94,o),
(491,252,cs),
(524,562,ls),
(541,720,o),
(494,818,o),
(331,818,cs),
(168,818,o),
(101,721,o),
(84,562,cs),
(52,252,ls),
(35,93,o),
(80,-9,o),
(244,-9,cs)
);
},
{
closed = 1;
nodes = (
(161,77,o),
(150,137,o),
(160,229,cs),
(197,584,ls),
(207,676,o),
(230,732,o),
(322,732,cs),
(415,732,o),
(426,675,o),
(416,584,cs),
(379,229,ls),
(369,137,o),
(346,77,o),
(253,77,cs)
);
}
);
};
layerId = "43161617-4660-4075-B14A-1D8E25AEE542";
shapes = (
{
ref = O;
},
{
pos = (174,232);
ref = dblgravecomb;
}
);
width = 538;
}
);
unicode = 524;
userData = {
com.fontlab.hintData = {
hhints = (
{
position = -24;
width = 56;
},
{
position = 1623;
width = 55;
},
{
position = 1800;
width = 280;
}
);
vhints = (
{
position = 441;
width = 80;
},
{
position = 639;
width = 77;
}
);
};
};
},
{
glyphname = Odieresis;
lastChange = "2023-07-06 13:12:48 +0000";
layers = (
{
background = {
shapes = (
{
closed = 1;
nodes = (
(393,-11,o),
(446,91,o),
(461,229,cs),
(499,584,ls),
(513,721,o),
(476,819,o),
(323,819,cs),
(169,819,o),
(113,722,o),
(99,584,cs),
(61,230,ls),
(47,92,o),
(77,-11,o),
(236,-11,cs)
);
},
{
closed = 1;
nodes = (
(124,34,o),
(104,108,o),
(115,218,cs),
(154,592,ls),
(166,702,o),
(202,774,o),
(318,774,cs),
(435,774,o),
(456,702,o),
(444,592,cs),
(405,218,ls),
(394,108,o),
(356,34,o),
(240,34,cs)
);
}
);
};
layerId = "6D1B020D-7C4E-4885-9208-B35BA480FE8F";
shapes = (
{
ref = O;
}
);
width = 516;
},
{
background = {
shapes = (
{
closed = 1;
nodes = (
(458,-12,o),
(533,86,o),
(551,255,cs),
(582,554,ls),
(600,723,o),
(546,822,o),
(359,822,cs),
(172,822,o),
(101,724,o),
(83,554,cs),
(51,255,ls),
(33,86,o),
(84,-12,o),
(271,-12,cs)
);
},
{
closed = 1;
nodes = (
(239,123,o),
(242,169,o),
(246,206,cs),
(288,604,ls),
(292,641,o),
(298,687,o),
(345,687,cs),
(393,687,o),
(391,641,o),
(387,604,cs),
(345,206,ls),
(341,169,o),
(333,123,o),
(286,123,cs)
);
}
);
};
layerId = "BF03A18F-065F-4249-8E16-486B9CB494A0";
shapes = (
{
ref = O;
}
);
width = 597;
},
{
background = {
shapes = (
{
closed = 1;
nodes = (
(407,-9,o),
(475,94,o),
(491,252,cs),
(524,562,ls),
(541,720,o),
(494,818,o),
(331,818,cs),
(168,818,o),
(101,721,o),
(84,562,cs),
(52,252,ls),
(35,93,o),
(80,-9,o),
(244,-9,cs)
);
},
{
closed = 1;
nodes = (
(161,77,o),
(150,137,o),
(160,229,cs),
(197,584,ls),
(207,676,o),
(230,732,o),
(322,732,cs),
(415,732,o),
(426,675,o),
(416,584,cs),
(379,229,ls),
(369,137,o),
(346,77,o),
(253,77,cs)
);
}
);
};
layerId = "43161617-4660-4075-B14A-1D8E25AEE542";
shapes = (
{
ref = O;
}
);
width = 538;
}
);
unicode = 214;
userData = {
com.fontlab.hintData = {
hhints = (
{
position = -24;
width = 56;
},
{
position = 1623;
width = 55;
},
{
position = 1800;
width = 125;
}
);
};
};
},
{
glyphname = Ograve;
lastChange = "2023-07-06 13:30:30 +0000";
layers = (
{
background = {
shapes = (
{
closed = 1;
nodes = (
(369,879,l),
(335,1073,l),
(282,1073,l),
(342,879,l)
);
},
{
closed = 1;
nodes = (
(393,-11,o),
(446,91,o),
(461,229,cs),
(499,584,ls),
(513,721,o),
(476,819,o),
(323,819,cs),
(169,819,o),
(113,722,o),
(99,584,cs),
(61,230,ls),
(47,92,o),
(77,-11,o),
(236,-11,cs)
);
},
{
closed = 1;
nodes = (
(124,34,o),
(104,108,o),
(115,218,cs),
(154,592,ls),
(166,702,o),
(202,774,o),
(318,774,cs),
(435,774,o),
(456,702,o),
(444,592,cs),
(405,218,ls),
(394,108,o),
(356,34,o),
(240,34,cs)
);
}
);
};
layerId = "6D1B020D-7C4E-4885-9208-B35BA480FE8F";
shapes = (
{
ref = O;
},
{
pos = (236,232);
ref = gravecomb;
}
);
width = 516;
},
{
background = {
shapes = (
{
closed = 1;
nodes = (
(488,881,l),
(448,1084,l),
(265,1084,l),
(374,881,l)
);
},
{
closed = 1;
nodes = (
(458,-12,o),
(533,86,o),
(551,255,cs),
(582,554,ls),
(600,723,o),
(546,822,o),
(359,822,cs),
(172,822,o),
(101,724,o),
(83,554,cs),
(51,255,ls),
(33,86,o),
(84,-12,o),
(271,-12,cs)
);
},
{
closed = 1;
nodes = (
(239,123,o),
(242,169,o),
(246,206,cs),
(288,604,ls),
(292,641,o),
(298,687,o),
(345,687,cs),
(393,687,o),
(391,641,o),
(387,604,cs),
(345,206,ls),
(341,169,o),
(333,123,o),
(286,123,cs)
);
}
);
};
layerId = "BF03A18F-065F-4249-8E16-486B9CB494A0";
shapes = (
{
ref = O;
},
{
pos = (199,232);
ref = gravecomb;
}
);
width = 597;
},
{
background = {
shapes = (
{
closed = 1;
nodes = (
(416,877,l),
(379,1075,l),
(275,1075,l),
(364,877,l)
);
},
{
closed = 1;
nodes = (
(407,-9,o),
(475,94,o),
(491,252,cs),
(524,562,ls),
(541,720,o),
(494,818,o),
(331,818,cs),
(168,818,o),
(101,721,o),
(84,562,cs),
(52,252,ls),
(35,93,o),
(80,-9,o),
(244,-9,cs)
);
},
{
closed = 1;
nodes = (
(161,77,o),
(150,137,o),
(160,229,cs),
(197,584,ls),
(207,676,o),
(230,732,o),
(322,732,cs),
(415,732,o),
(426,675,o),
(416,584,cs),
(379,229,ls),
(369,137,o),
(346,77,o),
(253,77,cs)
);
}
);
};
layerId = "43161617-4660-4075-B14A-1D8E25AEE542";
shapes = (
{
ref = O;
},
{
pos = (215,232);
ref = gravecomb;
}
);
width = 538;
}
);
unicode = 210;
userData = {
com.fontlab.hintData = {
hhints = (
{
position = -24;
width = 56;
},
{
position = 1623;
width = 55;
},
{
position = 1800;
width = 394;
}
);
};
};
},
{
glyphname = Ohungarumlaut;
lastChange = "2023-07-06 13:12:48 +0000";
layers = (
{
background = {
shapes = (
{
closed = 1;
nodes = (
(239,667,l),
(341,820,l),
(279,820,l),
(208,667,l)
);
},
{
closed = 1;
nodes = (
(149,667,l),
(228,820,l),
(174,820,l),
(120,667,l)
);
},
{
closed = 1;
nodes = (
(655,-11,o),
(708,91,o),
(723,229,cs),
(761,584,ls),
(775,721,o),
(738,819,o),
(585,819,cs),
(431,819,o),
(375,722,o),
(361,584,cs),
(323,230,ls),
(309,92,o),
(339,-11,o),
(498,-11,cs)
);
},
{
closed = 1;
nodes = (
(386,34,o),
(366,108,o),
(377,218,cs),
(416,592,ls),
(428,702,o),
(464,774,o),
(580,774,cs),
(697,774,o),
(718,702,o),
(706,592,cs),
(667,218,ls),
(656,108,o),
(618,34,o),
(502,34,cs)
);
}
);
};
layerId = "6D1B020D-7C4E-4885-9208-B35BA480FE8F";
shapes = (
{
ref = hungarumlaut;
},
{
pos = (262,0);
ref = O;
}
);
width = 778;
},
{
background = {
shapes = (
{
closed = 1;
nodes = (
(352,583,l),
(499,810,l),
(349,810,l),
(259,583,l)
);
},
{
closed = 1;
nodes = (
(161,583,l),
(301,810,l),
(158,810,l),
(70,583,l)
);
},
{
closed = 1;
nodes = (
(937,-12,o),
(1012,86,o),
(1030,255,cs),
(1061,554,ls),
(1079,723,o),
(1025,822,o),
(838,822,cs),
(651,822,o),
(580,724,o),
(562,554,cs),
(530,255,ls),
(512,86,o),
(563,-12,o),
(750,-12,cs)
);
},
{
closed = 1;
nodes = (
(718,123,o),
(721,169,o),
(725,206,cs),
(767,604,ls),
(771,641,o),
(777,687,o),
(824,687,cs),
(872,687,o),
(870,641,o),
(866,604,cs),
(824,206,ls),
(820,169,o),
(812,123,o),
(765,123,cs)
);
}
);
};
layerId = "BF03A18F-065F-4249-8E16-486B9CB494A0";
shapes = (
{
ref = hungarumlaut;
},
{
pos = (479,0);
ref = O;
}
);
width = 1076;
},
{
background = {
shapes = (
{
closed = 1;
nodes = (
(314,642,l),
(442,812,l),
(336,812,l),
(261,642,l)
);
},
{
closed = 1;
nodes = (
(189,642,l),
(279,812,l),
(194,812,l),
(137,642,l)
);
},
{
closed = 1;
nodes = (
(691,-9,o),
(759,94,o),
(775,252,cs),
(808,562,ls),
(825,720,o),
(778,818,o),
(615,818,cs),
(452,818,o),
(385,721,o),
(368,562,cs),
(336,252,ls),
(319,93,o),
(364,-9,o),
(528,-9,cs)
);
},
{
closed = 1;
nodes = (
(445,77,o),
(434,137,o),
(444,229,cs),
(481,584,ls),
(491,676,o),
(514,732,o),
(606,732,cs),
(699,732,o),
(710,675,o),
(700,584,cs),
(663,229,ls),
(653,137,o),
(630,77,o),
(537,77,cs)
);
}
);
};
layerId = "43161617-4660-4075-B14A-1D8E25AEE542";
shapes = (
{
ref = hungarumlaut;
},
{
pos = (284,0);
ref = O;
}
);
width = 822;
}
);
unicode = 336;
userData = {
com.fontlab.hintData = {
hhints = (
{
position = -24;
width = 56;
},
{
position = 1623;
width = 55;
},
{
position = 1800;
width = 300;
}
);
};
};
},
{
glyphname = Oinvertedbreve;
lastChange = "2023-07-06 13:31:19 +0000";
layers = (
{
background = {
shapes = (
{
closed = 1;
nodes = (
(238,879,l),
(247,936,o),
(282,955,o),
(324,955,cs),
(366,955,o),
(396,936,o),
(392,879,c),
(429,879,l),
(433,954,o),
(394,990,o),
(327,990,cs),
(260,990,o),
(211,954,o),
(201,879,c)
);
},
{
closed = 1;
nodes = (
(393,-11,o),
(446,91,o),
(461,229,cs),
(499,584,ls),
(513,721,o),
(476,819,o),
(323,819,cs),
(169,819,o),
(113,722,o),
(99,584,cs),
(61,230,ls),
(47,92,o),
(77,-11,o),
(236,-11,cs)
);
},
{
closed = 1;
nodes = (
(124,34,o),
(104,108,o),
(115,218,cs),
(154,592,ls),
(166,702,o),
(202,774,o),
(318,774,cs),
(435,774,o),
(456,702,o),
(444,592,cs),
(405,218,ls),
(394,108,o),
(356,34,o),
(240,34,cs)
);
}
);
};
layerId = "6D1B020D-7C4E-4885-9208-B35BA480FE8F";
shapes = (
{
ref = O;
},
{
pos = (156,232);
ref = breveinvertedcomb;
}
);
width = 516;
},
{
background = {
shapes = (
{
closed = 1;
nodes = (
(312,882,l),
(315,916,o),
(332,932,o),
(372,932,cs),
(412,932,o),
(424,916,o),
(421,882,c),
(494,882,l),
(501,960,o),
(453,1000,o),
(378,1000,cs),
(304,1000,o),
(247,959,o),
(239,882,c)
);
},
{
closed = 1;
nodes = (
(458,-12,o),
(533,86,o),
(551,255,cs),
(582,554,ls),
(600,723,o),
(546,822,o),
(359,822,cs),
(172,822,o),
(101,724,o),
(83,554,cs),
(51,255,ls),
(33,86,o),
(84,-12,o),
(271,-12,cs)
);
},
{
closed = 1;
nodes = (
(239,123,o),
(242,169,o),
(246,206,cs),
(288,604,ls),
(292,641,o),
(298,687,o),
(345,687,cs),
(393,687,o),
(391,641,o),
(387,604,cs),
(345,206,ls),
(341,169,o),
(333,123,o),
(286,123,cs)
);
}
);
};
layerId = "BF03A18F-065F-4249-8E16-486B9CB494A0";
shapes = (
{
ref = O;
},
{
pos = (208,232);
ref = breveinvertedcomb;
}
);
width = 597;
},
{
background = {
shapes = (
{
closed = 1;
nodes = (
(265,878,l),
(273,940,o),
(295,965,o),
(344,965,cs),
(393,965,o),
(410,941,o),
(404,878,c),
(465,878,l),
(473,960,o),
(453,1024,o),
(350,1024,cs),
(246,1024,o),
(213,961,o),
(204,878,c)
);
},
{
closed = 1;
nodes = (
(407,-9,o),
(475,94,o),
(491,252,cs),
(524,562,ls),
(541,720,o),
(494,818,o),
(331,818,cs),
(168,818,o),
(101,721,o),
(84,562,cs),
(52,252,ls),
(35,93,o),
(80,-9,o),
(244,-9,cs)
);
},
{
closed = 1;
nodes = (
(161,77,o),
(150,137,o),
(160,229,cs),
(197,584,ls),
(207,676,o),
(230,732,o),
(322,732,cs),
(415,732,o),
(426,675,o),
(416,584,cs),
(379,229,ls),
(369,137,o),
(346,77,o),
(253,77,cs)
);
}
);
};
layerId = "43161617-4660-4075-B14A-1D8E25AEE542";
shapes = (
{
ref = O;
},
{
pos = (161,232);
ref = breveinvertedcomb;
}
);
width = 538;
}
);
unicode = 526;
userData = {
com.fontlab.hintData = {
hhints = (
{
position = -24;
width = 56;
},
{
position = 1623;
width = 55;
},
{
position = 1948;
width = 48;
}
);
vhints = (
{
position = 383;
width = 54;
},
{
position = 767;
width = 54;
}
);
};
};
},
{
glyphname = Omacron;
lastChange = "2023-07-06 13:31:38 +0000";
layers = (
{
background = {
shapes = (
{
closed = 1;
nodes = (
(400,878,l),
(404,915,l),
(233,915,l),
(230,878,l)
);
},
{
closed = 1;
nodes = (
(393,-11,o),
(446,91,o),
(461,229,cs),
(499,584,ls),
(513,721,o),
(476,819,o),
(323,819,cs),
(169,819,o),
(113,722,o),
(99,584,cs),
(61,230,ls),
(47,92,o),
(77,-11,o),
(236,-11,cs)
);
},
{
closed = 1;
nodes = (
(124,34,o),
(104,108,o),
(115,218,cs),
(154,592,ls),
(166,702,o),
(202,774,o),
(318,774,cs),
(435,774,o),
(456,702,o),
(444,592,cs),
(405,218,ls),
(394,108,o),
(356,34,o),
(240,34,cs)
);
}
);
};
layerId = "6D1B020D-7C4E-4885-9208-B35BA480FE8F";
shapes = (
{
ref = O;
},
{
pos = (78,232);
ref = macroncomb;
}
);
width = 516;
},
{
background = {
shapes = (
{
closed = 1;
nodes = (
(514,881,l),
(522,960,l),
(227,960,l),
(218,881,l)
);
},
{
closed = 1;
nodes = (
(458,-12,o),
(533,86,o),
(551,255,cs),
(582,554,ls),
(600,723,o),
(546,822,o),
(359,822,cs),
(172,822,o),
(101,724,o),
(83,554,cs),
(51,255,ls),
(33,86,o),
(84,-12,o),
(271,-12,cs)
);
},
{
closed = 1;
nodes = (
(239,123,o),
(242,169,o),
(246,206,cs),
(288,604,ls),
(292,641,o),
(298,687,o),
(345,687,cs),
(393,687,o),
(391,641,o),
(387,604,cs),
(345,206,ls),
(341,169,o),
(333,123,o),
(286,123,cs)
);
}
);
};
layerId = "BF03A18F-065F-4249-8E16-486B9CB494A0";
shapes = (
{
ref = O;
},
{
pos = (305,232);
ref = macroncomb;
}
);
width = 597;
},
{
background = {
shapes = (
{
closed = 1;
nodes = (
(430,877,l),
(437,940,l),
(245,940,l),
(239,877,l)
);
},
{
closed = 1;
nodes = (
(407,-9,o),
(475,94,o),
(491,252,cs),
(524,562,ls),
(541,720,o),
(494,818,o),
(331,818,cs),
(168,818,o),
(101,721,o),
(84,562,cs),
(52,252,ls),
(35,93,o),
(80,-9,o),
(244,-9,cs)
);
},
{
closed = 1;
nodes = (
(161,77,o),
(150,137,o),
(160,229,cs),
(197,584,ls),
(207,676,o),
(230,732,o),
(322,732,cs),
(415,732,o),
(426,675,o),
(416,584,cs),
(379,229,ls),
(369,137,o),
(346,77,o),
(253,77,cs)
);
}
);
};
layerId = "43161617-4660-4075-B14A-1D8E25AEE542";
shapes = (
{
ref = O;
},
{
pos = (111,232);
ref = macroncomb;
}
);
width = 538;
}
);
unicode = 332;
userData = {
com.fontlab.hintData = {
hhints = (
{
position = -24;
width = 56;
},
{
position = 1623;
width = 55;
}
);
};
};
},
{
glyphname = Oslash;
lastChange = "2023-07-06 13:12:48 +0000";
layers = (
{
background = {
shapes = (
{
closed = 1;
nodes = (
(479,889,l),
(455,896,l),
(68,-87,l),
(92,-95,l)
);
},
{
closed = 1;
nodes = (
(393,-11,o),
(446,91,o),
(461,229,cs),
(499,584,ls),
(513,721,o),
(476,819,o),
(323,819,cs),
(169,819,o),
(113,722,o),
(99,584,cs),
(61,230,ls),
(47,92,o),
(77,-11,o),
(236,-11,cs)
);
},
{
closed = 1;
nodes = (
(124,34,o),
(104,108,o),
(115,218,cs),
(154,592,ls),
(166,702,o),
(202,774,o),
(318,774,cs),
(435,774,o),
(456,702,o),
(444,592,cs),
(405,218,ls),
(394,108,o),
(356,34,o),
(240,34,cs)
);
}
);
};
layerId = "6D1B020D-7C4E-4885-9208-B35BA480FE8F";
shapes = (
{
closed = 1;
nodes = (
(479,889,l),
(455,896,l),
(68,-87,l),
(92,-95,l)
);
},
{
ref = O;
}
);
width = 523;
},
{
background = {
shapes = (
{
closed = 1;
nodes = (
(560,869,l),
(523,885,l),
(37,-77,l),
(74,-94,l)
);
},
{
closed = 1;
nodes = (
(528,-12,o),
(603,86,o),
(621,255,cs),
(652,554,ls),
(670,723,o),
(616,822,o),
(429,822,cs),
(242,822,o),
(171,724,o),
(153,554,cs),
(121,255,ls),
(103,86,o),
(154,-12,o),
(341,-12,cs)
);
},
{
closed = 1;
nodes = (
(309,123,o),
(312,169,o),
(316,206,cs),
(358,604,ls),
(362,641,o),
(368,687,o),
(415,687,cs),
(463,687,o),
(461,641,o),
(457,604,cs),
(415,206,ls),
(411,169,o),
(403,123,o),
(356,123,cs)
);
}
);
};
layerId = "BF03A18F-065F-4249-8E16-486B9CB494A0";
shapes = (
{
closed = 1;
nodes = (
(560,869,l),
(523,885,l),
(37,-77,l),
(74,-94,l)
);
},
{
pos = (70,0);
ref = O;
}
);
width = 579;
},
{
background = {
shapes = (
{
closed = 1;
nodes = (
(459,872,l),
(422,881,l),
(69,-63,l),
(105,-75,l)
);
},
{
closed = 1;
nodes = (
(407,-9,o),
(475,94,o),
(491,252,cs),
(524,562,ls),
(541,720,o),
(494,818,o),
(331,818,cs),
(168,818,o),
(101,721,o),
(84,562,cs),
(52,252,ls),
(35,93,o),
(80,-9,o),
(244,-9,cs)
);
},
{
closed = 1;
nodes = (
(161,77,o),
(150,137,o),
(160,229,cs),
(197,584,ls),
(207,676,o),
(230,732,o),
(322,732,cs),
(415,732,o),
(426,675,o),
(416,584,cs),
(379,229,ls),
(369,137,o),
(346,77,o),
(253,77,cs)
);
}
);
};
layerId = "43161617-4660-4075-B14A-1D8E25AEE542";
shapes = (
{
closed = 1;
nodes = (
(459,872,l),
(422,881,l),
(69,-63,l),
(105,-75,l)
);
},
{
ref = O;
}
);
width = 539;
}
);
unicode = 216;
userData = {
com.fontlab.hintData = {
hhints = (
{
position = -24;
width = 56;
},
{
position = 1623;
width = 55;
}
);
};
};
},
{
glyphname = Otilde;
lastChange = "2023-07-06 13:12:48 +0000";
layers = (
{
background = {
shapes = (
{
closed = 1;
nodes = (
(393,-11,o),
(446,91,o),
(461,229,cs),
(499,584,ls),
(513,721,o),
(476,819,o),
(323,819,cs),
(169,819,o),
(113,722,o),
(99,584,cs),
(61,230,ls),
(47,92,o),
(77,-11,o),
(236,-11,cs)
);
},
{
closed = 1;
nodes = (
(124,34,o),
(104,108,o),
(115,218,cs),
(154,592,ls),
(166,702,o),
(202,774,o),
(318,774,cs),
(435,774,o),
(456,702,o),
(444,592,cs),
(405,218,ls),
(394,108,o),
(356,34,o),
(240,34,cs)
);
}
);
};
layerId = "6D1B020D-7C4E-4885-9208-B35BA480FE8F";
shapes = (
{
ref = O;
}
);
width = 516;
},
{
background = {
shapes = (
{
closed = 1;
nodes = (
(458,-12,o),
(533,86,o),
(551,255,cs),
(582,554,ls),
(600,723,o),
(546,822,o),
(359,822,cs),
(172,822,o),
(101,724,o),
(83,554,cs),
(51,255,ls),
(33,86,o),
(84,-12,o),
(271,-12,cs)
);
},
{
closed = 1;
nodes = (
(239,123,o),
(242,169,o),
(246,206,cs),
(288,604,ls),
(292,641,o),
(298,687,o),
(345,687,cs),
(393,687,o),
(391,641,o),
(387,604,cs),
(345,206,ls),
(341,169,o),
(333,123,o),
(286,123,cs)
);
}
);
};
layerId = "BF03A18F-065F-4249-8E16-486B9CB494A0";
shapes = (
{
ref = O;
}
);
width = 597;
},
{
background = {
shapes = (
{
closed = 1;
nodes = (
(407,-9,o),
(475,94,o),
(491,252,cs),
(524,562,ls),
(541,720,o),
(494,818,o),
(331,818,cs),
(168,818,o),
(101,721,o),
(84,562,cs),
(52,252,ls),
(35,93,o),
(80,-9,o),
(244,-9,cs)
);
},
{
closed = 1;
nodes = (
(161,77,o),
(150,137,o),
(160,229,cs),
(197,584,ls),
(207,676,o),
(230,732,o),
(322,732,cs),
(415,732,o),
(426,675,o),
(416,584,cs),
(379,229,ls),
(369,137,o),
(346,77,o),
(253,77,cs)
);
}
);
};
layerId = "43161617-4660-4075-B14A-1D8E25AEE542";
shapes = (
{
ref = O;
}
);
width = 538;
}
);
unicode = 213;
userData = {
com.fontlab.hintData = {
hhints = (
{
position = -24;
width = 56;
},
{
position = 1623;
width = 55;
}
);
vhints = (
{
position = 392;
width = 55;
},
{
position = 790;
width = 49;
}
);
};
};
},
{
glyphname = OE;
lastChange = "2023-07-06 13:16:51 +0000";
layers = (
{
anchors = (
{
name = bottom;
pos = (310,0);
},
{
name = top;
pos = (310,810);
}
);
background = {
shapes = (
{
closed = 1;
nodes = (
(569,0,l),
(574,45,l),
(376,45,l),
(414,402,l),
(579,402,l),
(583,445,l),
(418,445,l),
(452,765,l),
(649,765,l),
(654,810,l),
(328,810,l),
(173,810,o),
(112,714,o),
(98,577,cs),
(61,229,ls),
(47,98,o),
(83,0,o),
(246,0,cs)
);
},
{
closed = 1;
nodes = (
(128,46,o),
(104,117,o),
(116,229,cs),
(152,574,ls),
(165,690,o),
(201,765,o),
(326,765,cs),
(398,765,l),
(322,46,l),
(251,46,l)
);
}
);
};
layerId = "6D1B020D-7C4E-4885-9208-B35BA480FE8F";
shapes = (
{
closed = 1;
nodes = (
(569,0,l),
(574,45,l),
(376,45,l),
(414,402,l),
(579,402,l),
(583,445,l),
(418,445,l),
(452,765,l),
(649,765,l),
(654,810,l),
(328,810,l),
(173,810,o),
(112,714,o),
(98,577,cs),
(61,229,ls),
(47,98,o),
(83,0,o),
(246,0,cs)
);
},
{
closed = 1;
nodes = (
(128,46,o),
(104,117,o),
(116,229,cs),
(152,574,ls),
(165,690,o),
(201,765,o),
(326,765,cs),
(398,765,l),
(322,46,l),
(251,46,l)
);
}
);
width = 620;
},
{
anchors = (
{
name = bottom;
pos = (363,0);
},
{
name = top;
pos = (363,810);
}
);
background = {
shapes = (
{
closed = 1;
nodes = (
(676,0,l),
(690,130,l),
(528,130,l),
(552,350,l),
(667,350,l),
(681,486,l),
(566,486,l),
(586,675,l),
(747,675,l),
(761,806,l),
(356,806,l),
(168,806,o),
(95,676,o),
(78,513,cs),
(54,286,ls),
(36,115,o),
(87,0,o),
(272,0,cs)
);
},
{
closed = 1;
nodes = (
(236,132,o),
(240,197,o),
(244,240,cs),
(278,558,ls),
(282,601,o),
(292,668,o),
(343,668,cs),
(391,668,l),
(334,133,l),
(287,133,l)
);
}
);
};
layerId = "BF03A18F-065F-4249-8E16-486B9CB494A0";
shapes = (
{
closed = 1;
nodes = (
(676,0,l),
(690,130,l),
(528,130,l),
(552,350,l),
(667,350,l),
(681,486,l),
(566,486,l),
(586,675,l),
(747,675,l),
(761,806,l),
(356,806,l),
(168,806,o),
(95,676,o),
(78,513,cs),
(54,286,ls),
(36,115,o),
(87,0,o),
(272,0,cs)
);
},
{
closed = 1;
nodes = (
(236,132,o),
(240,197,o),
(244,240,cs),
(278,558,ls),
(282,601,o),
(292,668,o),
(343,668,cs),
(391,668,l),
(334,133,l),
(287,133,l)
);
}
);
width = 726;
},
{
anchors = (
{
name = bottom;
pos = (340,0);
},
{
name = top;
pos = (340,810);
}
);
background = {
shapes = (
{
closed = 1;
nodes = (
(628,0,l),
(636,79,l),
(438,79,l),
(469,380,l),
(630,380,l),
(638,458,l),
(477,458,l),
(505,728,l),
(703,728,l),
(711,810,l),
(340,810,l),
(171,810,o),
(101,717,o),
(83,548,cs),
(51,246,ls),
(34,83,o),
(83,0,o),
(263,0,cs)
);
},
{
closed = 1;
nodes = (
(157,82,o),
(149,135,o),
(163,257,cs),
(191,528,ls),
(205,659,o),
(217,731,o),
(340,731,cs),
(397,731,l),
(328,82,l),
(273,82,l)
);
}
);
};
layerId = "43161617-4660-4075-B14A-1D8E25AEE542";
shapes = (
{
closed = 1;
nodes = (
(628,0,l),
(636,79,l),
(438,79,l),
(469,380,l),
(630,380,l),
(638,458,l),
(477,458,l),
(505,728,l),
(703,728,l),
(711,810,l),
(340,810,l),
(171,810,o),
(101,717,o),
(83,548,cs),
(51,246,ls),
(34,83,o),
(83,0,o),
(263,0,cs)
);
},
{
closed = 1;
nodes = (
(157,82,o),
(149,135,o),
(163,257,cs),
(191,528,ls),
(205,659,o),
(217,731,o),
(340,731,cs),
(397,731,l),
(328,82,l),
(273,82,l)
);
}
);
width = 679;
}
);
unicode = 338;
userData = {
com.fontlab.hintData = {
hhints = (
{
position = 0;
width = 62;
},
{
position = 1598;
width = 60;
}
);
};
};
},
{
glyphname = P;
lastChange = "2023-07-06 13:16:51 +0000";
layers = (
{
anchors = (
{
name = bottom;
pos = (243,0);
},
{
name = top;
pos = (243,810);
}
);
background = {
shapes = (
{
closed = 1;
nodes = (
(108,0,l),
(149,387,l),
(286,387,ls),
(430,387,o),
(484,493,o),
(496,601,cs),
(508,721,o),
(475,810,o),
(329,810,cs),
(139,810,l),
(54,0,l)
);
},
{
closed = 1;
nodes = (
(189,768,l),
(315,768,ls),
(419,768,o),
(454,731,o),
(440,601,cs),
(427,475,o),
(376,429,o),
(278,429,cs),
(154,429,l)
);
}
);
};
layerId = "6D1B020D-7C4E-4885-9208-B35BA480FE8F";
shapes = (
{
closed = 1;
nodes = (
(108,0,l),
(149,387,l),
(286,387,ls),
(430,387,o),
(484,493,o),
(496,601,cs),
(508,721,o),
(475,810,o),
(329,810,cs),
(139,810,l),
(54,0,l)
);
},
{
closed = 1;
nodes = (
(189,768,l),
(315,768,ls),
(419,768,o),
(454,731,o),
(440,601,cs),
(427,475,o),
(376,429,o),
(278,429,cs),
(154,429,l)
);
}
);
width = 485;
},
{
anchors = (
{
name = bottom;
pos = (294,0);
},
{
name = top;
pos = (294,810);
}
);
background = {
shapes = (
{
closed = 1;
nodes = (
(229,0,l),
(265,336,l),
(333,336,ls),
(463,336,o),
(579,371,o),
(601,572,cs),
(617,725,o),
(554,810,o),
(408,810,cs),
(119,810,l),
(34,0,l)
);
},
{
closed = 1;
nodes = (
(300,673,l),
(360,673,ls),
(423,673,o),
(423,625,o),
(418,576,cs),
(411,509,o),
(400,471,o),
(341,471,cs),
(279,471,l)
);
}
);
};
layerId = "BF03A18F-065F-4249-8E16-486B9CB494A0";
shapes = (
{
closed = 1;
nodes = (
(229,0,l),
(265,336,l),
(333,336,ls),
(463,336,o),
(579,371,o),
(601,572,cs),
(617,725,o),
(554,810,o),
(408,810,cs),
(119,810,l),
(34,0,l)
);
},
{
closed = 1;
nodes = (
(300,673,l),
(360,673,ls),
(423,673,o),
(423,625,o),
(418,576,cs),
(411,509,o),
(400,471,o),
(341,471,cs),
(279,471,l)
);
}
);
width = 588;
},
{
anchors = (
{
name = bottom;
pos = (240,0);
},
{
name = top;
pos = (240,810);
}
);
background = {
shapes = (
{
closed = 1;
nodes = (
(149,0,l),
(189,377,l),
(281,377,ls),
(414,377,o),
(488,459,o),
(502,587,cs),
(517,727,o),
(470,810,o),
(326,810,cs),
(125,810,l),
(40,0,l)
);
},
{
closed = 1;
nodes = (
(227,731,l),
(284,731,ls),
(397,731,o),
(410,702,o),
(397,586,cs),
(387,484,o),
(351,456,o),
(253,456,cs),
(198,456,l)
);
}
);
};
layerId = "43161617-4660-4075-B14A-1D8E25AEE542";
shapes = (
{
closed = 1;
nodes = (
(149,0,l),
(189,377,l),
(281,377,ls),
(414,377,o),
(488,459,o),
(502,587,cs),
(517,727,o),
(470,810,o),
(326,810,cs),
(125,810,l),
(40,0,l)
);
},
{
closed = 1;
nodes = (
(227,731,l),
(284,731,ls),
(397,731,o),
(410,702,o),
(397,586,cs),
(387,484,o),
(351,456,o),
(253,456,cs),
(198,456,l)
);
}
);
width = 480;
}
);
unicode = 80;
userData = {
com.fontlab.hintData = {
hhints = (
{
position = 800;
width = 55;
},
{
position = 1604;
width = 54;
}
);
};
};
},
{
glyphname = Pdotaccent;
lastChange = "2023-07-06 13:12:48 +0000";
layers = (
{
background = {
shapes = (
{
closed = 1;
nodes = (
(108,0,l),
(149,387,l),
(286,387,ls),
(430,387,o),
(484,493,o),
(496,601,cs),
(508,721,o),
(475,810,o),
(329,810,cs),
(139,810,l),
(54,0,l)
);
},
{
closed = 1;
nodes = (
(189,768,l),
(315,768,ls),
(419,768,o),
(454,731,o),
(440,601,cs),
(427,475,o),
(376,429,o),
(278,429,cs),
(154,429,l)
);
}
);
};
layerId = "6D1B020D-7C4E-4885-9208-B35BA480FE8F";
shapes = (
{
ref = P;
}
);
width = 485;
},
{
background = {
shapes = (
{
closed = 1;
nodes = (
(229,0,l),
(265,336,l),
(333,336,ls),
(463,336,o),
(579,371,o),
(601,572,cs),
(617,725,o),
(554,810,o),
(408,810,cs),
(119,810,l),
(34,0,l)
);
},
{
closed = 1;
nodes = (
(300,673,l),
(360,673,ls),
(423,673,o),
(423,625,o),
(418,576,cs),
(411,509,o),
(400,471,o),
(341,471,cs),
(279,471,l)
);
}
);
};
layerId = "BF03A18F-065F-4249-8E16-486B9CB494A0";
shapes = (
{
ref = P;
}
);
width = 588;
},
{
background = {
shapes = (
{
closed = 1;
nodes = (
(149,0,l),
(189,377,l),
(281,377,ls),
(414,377,o),
(488,459,o),
(502,587,cs),
(517,727,o),
(470,810,o),
(326,810,cs),
(125,810,l),
(40,0,l)
);
},
{
closed = 1;
nodes = (
(227,731,l),
(284,731,ls),
(397,731,o),
(410,702,o),
(397,586,cs),
(387,484,o),
(351,456,o),
(253,456,cs),
(198,456,l)
);
}
);
};
layerId = "43161617-4660-4075-B14A-1D8E25AEE542";
shapes = (
{
ref = P;
}
);
width = 480;
}
);
unicode = 7766;
userData = {
com.fontlab.hintData = {
hhints = (
{
position = 800;
width = 55;
},
{
position = 1604;
width = 54;
},
{
position = 1800;
width = 161;
}
);
};
};
},
{
glyphname = Thorn;
lastChange = "2023-07-06 13:16:51 +0000";
layers = (
{
anchors = (
{
name = bottom;
pos = (253,0);
},
{
name = top;
pos = (253,810);
}
);
background = {
shapes = (
{
closed = 1;
nodes = (
(108,0,l),
(135,250,l),
(281,250,ls),
(441,250,o),
(491,379,o),
(502,485,cs),
(515,602,o),
(478,706,o),
(334,706,cs),
(183,706,l),
(193,810,l),
(139,810,l),
(54,0,l)
);
},
{
closed = 1;
nodes = (
(178,659,l),
(321,659,ls),
(408,659,o),
(459,610,o),
(445,483,cs),
(432,353,o),
(378,298,o),
(278,298,cs),
(140,298,l)
);
}
);
};
layerId = "6D1B020D-7C4E-4885-9208-B35BA480FE8F";
shapes = (
{
closed = 1;
nodes = (
(108,0,l),
(135,250,l),
(281,250,ls),
(441,250,o),
(491,379,o),
(502,485,cs),
(515,602,o),
(478,706,o),
(334,706,cs),
(183,706,l),
(193,810,l),
(139,810,l),
(54,0,l)
);
},
{
closed = 1;
nodes = (
(178,659,l),
(321,659,ls),
(408,659,o),
(459,610,o),
(445,483,cs),
(432,353,o),
(378,298,o),
(278,298,cs),
(140,298,l)
);
}
);
width = 505;
},
{
anchors = (
{
name = bottom;
pos = (288,0);
},
{
name = top;
pos = (288,810);
}
);
background = {
shapes = (
{
closed = 1;
nodes = (
(219,0,l),
(244,233,l),
(305,234,ls),
(480,235,o),
(566,277,o),
(588,479,cs),
(605,645,o),
(528,701,o),
(361,701,cs),
(293,701,l),
(304,810,l),
(109,810,l),
(24,0,l)
);
},
{
closed = 1;
nodes = (
(279,564,l),
(335,564,ls),
(398,564,o),
(417,532,o),
(410,468,cs),
(403,398,o),
(377,370,o),
(312,370,cs),
(258,370,l)
);
}
);
};
layerId = "BF03A18F-065F-4249-8E16-486B9CB494A0";
shapes = (
{
closed = 1;
nodes = (
(219,0,l),
(244,233,l),
(305,234,ls),
(480,235,o),
(566,277,o),
(588,479,cs),
(605,645,o),
(528,701,o),
(361,701,cs),
(293,701,l),
(304,810,l),
(109,810,l),
(24,0,l)
);
},
{
closed = 1;
nodes = (
(279,564,l),
(335,564,ls),
(398,564,o),
(417,532,o),
(410,468,cs),
(403,398,o),
(377,370,o),
(312,370,cs),
(258,370,l)
);
}
);
width = 576;
},
{
anchors = (
{
name = bottom;
pos = (252,0);
},
{
name = top;
pos = (252,810);
}
);
background = {
shapes = (
{
closed = 1;
nodes = (
(149,0,l),
(174,234,l),
(275,234,ls),
(421,234,o),
(495,321,o),
(510,470,cs),
(525,611,o),
(478,704,o),
(342,704,cs),
(224,704,l),
(234,810,l),
(125,810,l),
(40,0,l)
);
},
{
closed = 1;
nodes = (
(214,613,l),
(301,613,ls),
(385,613,o),
(415,576,o),
(404,470,cs),
(392,356,o),
(348,322,o),
(258,322,cs),
(184,322,l)
);
}
);
};
layerId = "43161617-4660-4075-B14A-1D8E25AEE542";
shapes = (
{
closed = 1;
nodes = (
(149,0,l),
(174,234,l),
(275,234,ls),
(421,234,o),
(495,321,o),
(510,470,cs),
(525,611,o),
(478,704,o),
(342,704,cs),
(224,704,l),
(234,810,l),
(125,810,l),
(40,0,l)
);
},
{
closed = 1;
nodes = (
(214,613,l),
(301,613,ls),
(385,613,o),
(415,576,o),
(404,470,cs),
(392,356,o),
(348,322,o),
(258,322,cs),
(184,322,l)
);
}
);
width = 503;
}
);
unicode = 222;
userData = {
com.fontlab.hintData = {
hhints = (
{
position = 528;
width = 60;
},
{
position = 1389;
width = 59;
}
);
};
};
},
{
glyphname = Q;
lastChange = "2023-07-06 13:16:51 +0000";
layers = (
{
anchors = (
{
name = bottom;
pos = (262,0);
},
{
name = top;
pos = (262,810);
}
);
background = {
shapes = (
{
closed = 1;
nodes = (
(421,-126,l),
(396,-104,o),
(334,-36,o),
(312,-1,c),
(416,25,o),
(456,115,o),
(468,229,cs),
(506,584,ls),
(520,721,o),
(480,819,o),
(327,819,cs),
(173,819,o),
(113,722,o),
(99,584,cs),
(61,230,ls),
(47,92,o),
(81,-11,o),
(239,-11,cs),
(250,-11,o),
(259,-10,o),
(269,-10,c),
(303,-65,o),
(357,-128,o),
(390,-155,c)
);
},
{
closed = 1;
nodes = (
(127,34,o),
(104,108,o),
(115,218,cs),
(154,592,ls),
(166,702,o),
(206,774,o),
(322,774,cs),
(438,774,o),
(463,702,o),
(451,592,cs),
(412,218,ls),
(400,108,o),
(360,34,o),
(244,34,cs)
);
}
);
};
layerId = "6D1B020D-7C4E-4885-9208-B35BA480FE8F";
shapes = (
{
closed = 1;
nodes = (
(421,-126,l),
(396,-104,o),
(334,-36,o),
(312,-1,c),
(416,25,o),
(456,115,o),
(468,229,cs),
(506,584,ls),
(520,721,o),
(480,819,o),
(327,819,cs),
(173,819,o),
(113,722,o),
(99,584,cs),
(61,230,ls),
(47,92,o),
(81,-11,o),
(239,-11,cs),
(250,-11,o),
(259,-10,o),
(269,-10,c),
(303,-65,o),
(357,-128,o),
(390,-155,c)
);
},
{
closed = 1;
nodes = (
(127,34,o),
(104,108,o),
(115,218,cs),
(154,592,ls),
(166,702,o),
(206,774,o),
(322,774,cs),
(438,774,o),
(463,702,o),
(451,592,cs),
(412,218,ls),
(400,108,o),
(360,34,o),
(244,34,cs)
);
}
);
width = 523;
},
{
associatedMasterId = "6D1B020D-7C4E-4885-9208-B35BA480FE8F";
layerId = "DEB91395-C8F1-45AF-93FF-A048D9D4D129";
name = b;
width = 517;
},
{
anchors = (
{
name = bottom;
pos = (299,0);
},
{
name = top;
pos = (299,810);
}
);
background = {
shapes = (
{
closed = 1;
nodes = (
(514,-74,l),
(488,-55,o),
(445,-14,o),
(422,19,c),
(501,61,o),
(539,143,o),
(551,255,cs),
(582,554,ls),
(600,723,o),
(546,822,o),
(359,822,cs),
(172,822,o),
(101,724,o),
(83,554,cs),
(51,255,ls),
(33,86,o),
(84,-12,o),
(271,-12,cs),
(277,-12,o),
(283,-12,o),
(288,-12,c),
(325,-79,o),
(399,-150,o),
(439,-167,c)
);
},
{
closed = 1;
nodes = (
(239,123,o),
(242,169,o),
(246,206,cs),
(288,604,ls),
(292,641,o),
(298,687,o),
(345,687,cs),
(393,687,o),
(391,641,o),
(387,604,cs),
(345,206,ls),
(341,169,o),
(333,123,o),
(286,123,cs)
);
}
);
};
layerId = "BF03A18F-065F-4249-8E16-486B9CB494A0";
shapes = (
{
closed = 1;
nodes = (
(514,-74,l),
(488,-55,o),
(445,-14,o),
(422,19,c),
(501,61,o),
(539,143,o),
(551,255,cs),
(582,554,ls),
(600,723,o),
(546,822,o),
(359,822,cs),
(172,822,o),
(101,724,o),
(83,554,cs),
(51,255,ls),
(33,86,o),
(84,-12,o),
(271,-12,cs),
(277,-12,o),
(283,-12,o),
(288,-12,c),
(325,-79,o),
(399,-150,o),
(439,-167,c)
);
},
{
closed = 1;
nodes = (
(239,123,o),
(242,169,o),
(246,206,cs),
(288,604,ls),
(292,641,o),
(298,687,o),
(345,687,cs),
(393,687,o),
(391,641,o),
(387,604,cs),
(345,206,ls),
(341,169,o),
(333,123,o),
(286,123,cs)
);
}
);
width = 597;
},
{
anchors = (
{
name = bottom;
pos = (270,0);
},
{
name = top;
pos = (270,810);
}
);
background = {
shapes = (
{
closed = 1;
nodes = (
(454,-118,l),
(430,-99,o),
(373,-36,o),
(348,9,c),
(438,45,o),
(480,133,o),
(493,252,cs),
(525,562,ls),
(542,720,o),
(494,818,o),
(332,818,cs),
(168,818,o),
(101,721,o),
(84,562,cs),
(52,252,ls),
(35,93,o),
(81,-9,o),
(245,-9,cs),
(251,-9,o),
(258,-9,o),
(265,-8,c),
(295,-63,o),
(352,-134,o),
(394,-165,c)
);
},
{
closed = 1;
nodes = (
(162,77,o),
(150,137,o),
(160,229,cs),
(197,584,ls),
(207,676,o),
(230,732,o),
(323,732,cs),
(416,732,o),
(427,675,o),
(417,584,cs),
(380,229,ls),
(371,137,o),
(347,77,o),
(254,77,cs)
);
}
);
};
layerId = "43161617-4660-4075-B14A-1D8E25AEE542";
shapes = (
{
closed = 1;
nodes = (
(454,-118,l),
(430,-99,o),
(373,-36,o),
(348,9,c),
(438,45,o),
(480,133,o),
(493,252,cs),
(525,562,ls),
(542,720,o),
(494,818,o),
(332,818,cs),
(168,818,o),
(101,721,o),
(84,562,cs),
(52,252,ls),
(35,93,o),
(81,-9,o),
(245,-9,cs),
(251,-9,o),
(258,-9,o),
(265,-8,c),
(295,-63,o),
(352,-134,o),
(394,-165,c)
);
},
{
closed = 1;
nodes = (
(162,77,o),
(150,137,o),
(160,229,cs),
(197,584,ls),
(207,676,o),
(230,732,o),
(323,732,cs),
(416,732,o),
(427,675,o),
(417,584,cs),
(380,229,ls),
(371,137,o),
(347,77,o),
(254,77,cs)
);
}
);
width = 539;
}
);
unicode = 81;
userData = {
com.fontlab.hintData = {
hhints = (
{
position = -41;
width = 20;
},
{
position = -24;
width = 56;
},
{
position = 1623;
width = 55;
}
);
};
com.typemytype.robofont.layerData = {
b = {
anchors = (
);
components = (
);
contours = (
);
lib = {
};
name = Q;
unicodes = (
);
width = 1058;
};
};
};
},
